<svg width="632" height="263" viewBox="0 0 632 263" fill="none" xmlns="http://www.w3.org/2000/svg">
<g filter="url(#filter0_d_111_20)">
<rect x="4.5" y="0.5" width="623" height="254" rx="10.5" stroke="#FFEE55"/>
<path d="M210.864 60.56C210.864 62.1087 210.729 63.4553 210.46 64.6C210.729 65.6773 210.864 67.024 210.864 68.64C210.864 70.1887 210.729 71.5353 210.46 72.68H206.42C206.689 73.7573 206.824 75.104 206.824 76.72C206.824 78.2687 206.689 79.6153 206.42 80.76H186.22C186.489 81.8373 186.624 83.184 186.624 84.8C186.624 86.3487 186.489 87.6953 186.22 88.84C186.489 89.9173 186.624 91.264 186.624 92.88C186.624 94.4287 186.489 95.7753 186.22 96.92C186.489 97.9973 186.624 99.344 186.624 100.96C186.624 102.509 186.489 103.855 186.22 105H178.14C177.871 103.855 177.736 102.509 177.736 100.96C177.736 99.344 177.871 97.9973 178.14 96.92C177.871 95.7753 177.736 94.4287 177.736 92.88C177.736 91.264 177.871 89.9173 178.14 88.84C177.871 87.6953 177.736 86.3487 177.736 84.8C177.736 83.184 177.871 81.8373 178.14 80.76C177.871 79.6153 177.736 78.2687 177.736 76.72C177.736 75.104 177.871 73.7573 178.14 72.68C177.871 71.5353 177.736 70.1887 177.736 68.64C177.736 67.024 177.871 65.6773 178.14 64.6C177.871 63.4553 177.736 62.1087 177.736 60.56C177.736 58.944 177.871 57.5973 178.14 56.52C177.871 55.3753 177.736 54.0287 177.736 52.48C177.736 50.864 177.871 49.5173 178.14 48.44H206.42C206.689 49.5173 206.824 50.864 206.824 52.48C206.824 54.0287 206.689 55.3753 206.42 56.52H210.46C210.729 57.5973 210.864 58.944 210.864 60.56ZM202.38 72.68C202.111 71.5353 201.976 70.1887 201.976 68.64C201.976 67.024 202.111 65.6773 202.38 64.6C202.111 63.4553 201.976 62.1087 201.976 60.56C201.976 58.944 202.111 57.5973 202.38 56.52H186.22C186.489 57.5973 186.624 58.944 186.624 60.56C186.624 62.1087 186.489 63.4553 186.22 64.6C186.489 65.6773 186.624 67.024 186.624 68.64C186.624 70.1887 186.489 71.5353 186.22 72.68H202.38ZM250.9 56.52C251.169 57.5973 251.304 58.944 251.304 60.56C251.304 62.1087 251.169 63.4553 250.9 64.6C251.169 65.6773 251.304 67.024 251.304 68.64C251.304 70.1887 251.169 71.5353 250.9 72.68C251.169 73.7573 251.304 75.104 251.304 76.72C251.304 78.2687 251.169 79.6153 250.9 80.76C251.169 81.8373 251.304 83.184 251.304 84.8C251.304 86.3487 251.169 87.6953 250.9 88.84C251.169 89.9173 251.304 91.264 251.304 92.88C251.304 94.4287 251.169 95.7753 250.9 96.92C251.169 97.9973 251.304 99.344 251.304 100.96C251.304 102.509 251.169 103.855 250.9 105H242.82C242.55 103.855 242.416 102.509 242.416 100.96C242.416 99.344 242.55 97.9973 242.82 96.92C242.55 95.7753 242.416 94.4287 242.416 92.88C242.416 91.264 242.55 89.9173 242.82 88.84C242.55 87.6953 242.416 86.3487 242.416 84.8C242.416 83.184 242.55 81.8373 242.82 80.76H226.66C226.929 81.8373 227.064 83.184 227.064 84.8C227.064 86.3487 226.929 87.6953 226.66 88.84C226.929 89.9173 227.064 91.264 227.064 92.88C227.064 94.4287 226.929 95.7753 226.66 96.92C226.929 97.9973 227.064 99.344 227.064 100.96C227.064 102.509 226.929 103.855 226.66 105H218.58C218.31 103.855 218.176 102.509 218.176 100.96C218.176 99.344 218.31 97.9973 218.58 96.92C218.31 95.7753 218.176 94.4287 218.176 92.88C218.176 91.264 218.31 89.9173 218.58 88.84C218.31 87.6953 218.176 86.3487 218.176 84.8C218.176 83.184 218.31 81.8373 218.58 80.76C218.31 79.6153 218.176 78.2687 218.176 76.72C218.176 75.104 218.31 73.7573 218.58 72.68C218.31 71.5353 218.176 70.1887 218.176 68.64C218.176 67.024 218.31 65.6773 218.58 64.6C218.31 63.4553 218.176 62.1087 218.176 60.56C218.176 58.944 218.31 57.5973 218.58 56.52C218.31 55.3753 218.176 54.0287 218.176 52.48C218.176 50.864 218.31 49.5173 218.58 48.44H226.66C226.929 49.5173 227.064 50.864 227.064 52.48C227.064 54.0287 226.929 55.3753 226.66 56.52C226.929 57.5973 227.064 58.944 227.064 60.56C227.064 62.1087 226.929 63.4553 226.66 64.6C226.929 65.6773 227.064 67.024 227.064 68.64C227.064 70.1887 226.929 71.5353 226.66 72.68H242.82C242.55 71.5353 242.416 70.1887 242.416 68.64C242.416 67.024 242.55 65.6773 242.82 64.6C242.55 63.4553 242.416 62.1087 242.416 60.56C242.416 58.944 242.55 57.5973 242.82 56.52C242.55 55.3753 242.416 54.0287 242.416 52.48C242.416 50.864 242.55 49.5173 242.82 48.44H250.9C251.169 49.5173 251.304 50.864 251.304 52.48C251.304 54.0287 251.169 55.3753 250.9 56.52ZM291.743 92.88C291.743 94.4287 291.608 95.7753 291.339 96.92C291.608 97.9973 291.743 99.344 291.743 100.96C291.743 102.509 291.608 103.855 291.339 105H283.259C282.99 103.855 282.855 102.509 282.855 100.96C282.855 99.344 282.99 97.9973 283.259 96.92C282.99 95.7753 282.855 94.4287 282.855 92.88C282.855 91.264 282.99 89.9173 283.259 88.84H267.099C267.368 89.9173 267.503 91.264 267.503 92.88C267.503 94.4287 267.368 95.7753 267.099 96.92C267.368 97.9973 267.503 99.344 267.503 100.96C267.503 102.509 267.368 103.855 267.099 105H259.019C258.75 103.855 258.615 102.509 258.615 100.96C258.615 99.344 258.75 97.9973 259.019 96.92C258.75 95.7753 258.615 94.4287 258.615 92.88C258.615 91.264 258.75 89.9173 259.019 88.84H262.049C261.78 87.6953 261.645 86.3487 261.645 84.8C261.645 83.184 261.78 81.8373 262.049 80.76C261.78 79.6153 261.645 78.2687 261.645 76.72C261.645 75.104 261.78 73.7573 262.049 72.68H264.069C263.8 71.5353 263.665 70.1887 263.665 68.64C263.665 67.024 263.8 65.6773 264.069 64.6H267.099C266.83 63.4553 266.695 62.1087 266.695 60.56C266.695 58.944 266.83 57.5973 267.099 56.52H269.119C268.85 55.3753 268.715 54.0287 268.715 52.48C268.715 50.864 268.85 49.5173 269.119 48.44H281.239C281.508 49.5173 281.643 50.864 281.643 52.48C281.643 54.0287 281.508 55.3753 281.239 56.52H283.259C283.528 57.5973 283.663 58.944 283.663 60.56C283.663 62.1087 283.528 63.4553 283.259 64.6H286.289C286.558 65.6773 286.693 67.024 286.693 68.64C286.693 70.1887 286.558 71.5353 286.289 72.68H288.309C288.578 73.7573 288.713 75.104 288.713 76.72C288.713 78.2687 288.578 79.6153 288.309 80.76C288.578 81.8373 288.713 83.184 288.713 84.8C288.713 86.3487 288.578 87.6953 288.309 88.84H291.339C291.608 89.9173 291.743 91.264 291.743 92.88ZM280.229 80.76C279.96 79.6153 279.825 78.2687 279.825 76.72C279.825 75.104 279.96 73.7573 280.229 72.68H278.209C277.94 71.5353 277.805 70.1887 277.805 68.64C277.805 67.024 277.94 65.6773 278.209 64.6H272.149C272.418 65.6773 272.553 67.024 272.553 68.64C272.553 70.1887 272.418 71.5353 272.149 72.68H270.129C270.398 73.7573 270.533 75.104 270.533 76.72C270.533 78.2687 270.398 79.6153 270.129 80.76H280.229ZM331.778 80.76C332.048 81.8373 332.182 83.184 332.182 84.8C332.182 86.3487 332.048 87.6953 331.778 88.84C332.048 89.9173 332.182 91.264 332.182 92.88C332.182 94.4287 332.048 95.7753 331.778 96.92H327.738C328.008 97.9973 328.142 99.344 328.142 100.96C328.142 102.509 328.008 103.855 327.738 105H303.498C303.229 103.855 303.094 102.509 303.094 100.96C303.094 99.344 303.229 97.9973 303.498 96.92H299.458C299.189 95.7753 299.054 94.4287 299.054 92.88C299.054 91.264 299.189 89.9173 299.458 88.84H307.538C307.808 89.9173 307.942 91.264 307.942 92.88C307.942 94.4287 307.808 95.7753 307.538 96.92H323.698C323.429 95.7753 323.294 94.4287 323.294 92.88C323.294 91.264 323.429 89.9173 323.698 88.84C323.429 87.6953 323.294 86.3487 323.294 84.8C323.294 83.184 323.429 81.8373 323.698 80.76H303.498C303.229 79.6153 303.094 78.2687 303.094 76.72C303.094 75.104 303.229 73.7573 303.498 72.68H299.458C299.189 71.5353 299.054 70.1887 299.054 68.64C299.054 67.024 299.189 65.6773 299.458 64.6C299.189 63.4553 299.054 62.1087 299.054 60.56C299.054 58.944 299.189 57.5973 299.458 56.52H303.498C303.229 55.3753 303.094 54.0287 303.094 52.48C303.094 50.864 303.229 49.5173 303.498 48.44H327.738C328.008 49.5173 328.142 50.864 328.142 52.48C328.142 54.0287 328.008 55.3753 327.738 56.52H331.778C332.048 57.5973 332.182 58.944 332.182 60.56C332.182 62.1087 332.048 63.4553 331.778 64.6H323.698C323.429 63.4553 323.294 62.1087 323.294 60.56C323.294 58.944 323.429 57.5973 323.698 56.52H307.538C307.808 57.5973 307.942 58.944 307.942 60.56C307.942 62.1087 307.808 63.4553 307.538 64.6C307.808 65.6773 307.942 67.024 307.942 68.64C307.942 70.1887 307.808 71.5353 307.538 72.68H327.738C328.008 73.7573 328.142 75.104 328.142 76.72C328.142 78.2687 328.008 79.6153 327.738 80.76H331.778ZM352.018 80.76C352.287 81.8373 352.422 83.184 352.422 84.8C352.422 86.3487 352.287 87.6953 352.018 88.84C352.287 89.9173 352.422 91.264 352.422 92.88C352.422 94.4287 352.287 95.7753 352.018 96.92H368.178C368.447 97.9973 368.582 99.344 368.582 100.96C368.582 102.509 368.447 103.855 368.178 105H343.938C343.669 103.855 343.534 102.509 343.534 100.96C343.534 99.344 343.669 97.9973 343.938 96.92C343.669 95.7753 343.534 94.4287 343.534 92.88C343.534 91.264 343.669 89.9173 343.938 88.84C343.669 87.6953 343.534 86.3487 343.534 84.8C343.534 83.184 343.669 81.8373 343.938 80.76C343.669 79.6153 343.534 78.2687 343.534 76.72C343.534 75.104 343.669 73.7573 343.938 72.68C343.669 71.5353 343.534 70.1887 343.534 68.64C343.534 67.024 343.669 65.6773 343.938 64.6C343.669 63.4553 343.534 62.1087 343.534 60.56C343.534 58.944 343.669 57.5973 343.938 56.52C343.669 55.3753 343.534 54.0287 343.534 52.48C343.534 50.864 343.669 49.5173 343.938 48.44H368.178C368.447 49.5173 368.582 50.864 368.582 52.48C368.582 54.0287 368.447 55.3753 368.178 56.52H352.018C352.287 57.5973 352.422 58.944 352.422 60.56C352.422 62.1087 352.287 63.4553 352.018 64.6C352.287 65.6773 352.422 67.024 352.422 68.64C352.422 70.1887 352.287 71.5353 352.018 72.68H368.178C368.447 73.7573 368.582 75.104 368.582 76.72C368.582 78.2687 368.447 79.6153 368.178 80.76H352.018ZM451.481 68.64C451.481 70.1887 451.346 71.5353 451.077 72.68H447.037C447.306 73.7573 447.441 75.104 447.441 76.72C447.441 78.2687 447.306 79.6153 447.037 80.76H451.077C451.346 81.8373 451.481 83.184 451.481 84.8C451.481 86.3487 451.346 87.6953 451.077 88.84C451.346 89.9173 451.481 91.264 451.481 92.88C451.481 94.4287 451.346 95.7753 451.077 96.92H447.037C447.306 97.9973 447.441 99.344 447.441 100.96C447.441 102.509 447.306 103.855 447.037 105H426.837C426.568 103.855 426.433 102.509 426.433 100.96C426.433 99.344 426.568 97.9973 426.837 96.92H422.797C422.528 95.7753 422.393 94.4287 422.393 92.88C422.393 91.264 422.528 89.9173 422.797 88.84H430.877C431.146 89.9173 431.281 91.264 431.281 92.88C431.281 94.4287 431.146 95.7753 430.877 96.92H442.997C442.728 95.7753 442.593 94.4287 442.593 92.88C442.593 91.264 442.728 89.9173 442.997 88.84C442.728 87.6953 442.593 86.3487 442.593 84.8C442.593 83.184 442.728 81.8373 442.997 80.76H432.897C432.628 79.6153 432.493 78.2687 432.493 76.72C432.493 75.104 432.628 73.7573 432.897 72.68H442.997C442.728 71.5353 442.593 70.1887 442.593 68.64C442.593 67.024 442.728 65.6773 442.997 64.6C442.728 63.4553 442.593 62.1087 442.593 60.56C442.593 58.944 442.728 57.5973 442.997 56.52H430.877C431.146 57.5973 431.281 58.944 431.281 60.56C431.281 62.1087 431.146 63.4553 430.877 64.6H422.797C422.528 63.4553 422.393 62.1087 422.393 60.56C422.393 58.944 422.528 57.5973 422.797 56.52H426.837C426.568 55.3753 426.433 54.0287 426.433 52.48C426.433 50.864 426.568 49.5173 426.837 48.44H447.037C447.306 49.5173 447.441 50.864 447.441 52.48C447.441 54.0287 447.306 55.3753 447.037 56.52H451.077C451.346 57.5973 451.481 58.944 451.481 60.56C451.481 62.1087 451.346 63.4553 451.077 64.6C451.346 65.6773 451.481 67.024 451.481 68.64Z" fill="#FFEE55"/>
<path d="M230.222 159.84C230.334 160.288 230.39 160.848 230.39 161.52C230.39 162.164 230.334 162.724 230.222 163.2C230.334 163.648 230.39 164.208 230.39 164.88C230.39 165.524 230.334 166.084 230.222 166.56C230.334 167.008 230.39 167.568 230.39 168.24C230.39 168.884 230.334 169.444 230.222 169.92C230.334 170.368 230.39 170.928 230.39 171.6C230.39 172.244 230.334 172.804 230.222 173.28C230.334 173.728 230.39 174.288 230.39 174.96C230.39 175.604 230.334 176.164 230.222 176.64C230.334 177.088 230.39 177.648 230.39 178.32C230.39 178.964 230.334 179.524 230.222 180H226.862C226.75 179.524 226.694 178.964 226.694 178.32C226.694 177.648 226.75 177.088 226.862 176.64C226.75 176.164 226.694 175.604 226.694 174.96C226.694 174.288 226.75 173.728 226.862 173.28C226.75 172.804 226.694 172.244 226.694 171.6C226.694 170.928 226.75 170.368 226.862 169.92C226.75 169.444 226.694 168.884 226.694 168.24C226.694 167.568 226.75 167.008 226.862 166.56C226.75 166.084 226.694 165.524 226.694 164.88C226.694 164.208 226.75 163.648 226.862 163.2H225.602C225.714 163.648 225.77 164.208 225.77 164.88C225.77 165.524 225.714 166.084 225.602 166.56C225.714 167.008 225.77 167.568 225.77 168.24C225.77 168.884 225.714 169.444 225.602 169.92H224.762C224.874 170.368 224.93 170.928 224.93 171.6C224.93 172.244 224.874 172.804 224.762 173.28C224.874 173.728 224.93 174.288 224.93 174.96C224.93 175.604 224.874 176.164 224.762 176.64H222.242C222.13 176.164 222.074 175.604 222.074 174.96C222.074 174.288 222.13 173.728 222.242 173.28C222.13 172.804 222.074 172.244 222.074 171.6C222.074 170.928 222.13 170.368 222.242 169.92H221.402C221.29 169.444 221.234 168.884 221.234 168.24C221.234 167.568 221.29 167.008 221.402 166.56C221.29 166.084 221.234 165.524 221.234 164.88C221.234 164.208 221.29 163.648 221.402 163.2H220.142C220.254 163.648 220.31 164.208 220.31 164.88C220.31 165.524 220.254 166.084 220.142 166.56C220.254 167.008 220.31 167.568 220.31 168.24C220.31 168.884 220.254 169.444 220.142 169.92C220.254 170.368 220.31 170.928 220.31 171.6C220.31 172.244 220.254 172.804 220.142 173.28C220.254 173.728 220.31 174.288 220.31 174.96C220.31 175.604 220.254 176.164 220.142 176.64C220.254 177.088 220.31 177.648 220.31 178.32C220.31 178.964 220.254 179.524 220.142 180H216.782C216.67 179.524 216.614 178.964 216.614 178.32C216.614 177.648 216.67 177.088 216.782 176.64C216.67 176.164 216.614 175.604 216.614 174.96C216.614 174.288 216.67 173.728 216.782 173.28C216.67 172.804 216.614 172.244 216.614 171.6C216.614 170.928 216.67 170.368 216.782 169.92C216.67 169.444 216.614 168.884 216.614 168.24C216.614 167.568 216.67 167.008 216.782 166.56C216.67 166.084 216.614 165.524 216.614 164.88C216.614 164.208 216.67 163.648 216.782 163.2C216.67 162.724 216.614 162.164 216.614 161.52C216.614 160.848 216.67 160.288 216.782 159.84C216.67 159.364 216.614 158.804 216.614 158.16C216.614 157.488 216.67 156.928 216.782 156.48H220.982C221.094 156.928 221.15 157.488 221.15 158.16C221.15 158.804 221.094 159.364 220.982 159.84H222.242C222.354 160.288 222.41 160.848 222.41 161.52C222.41 162.164 222.354 162.724 222.242 163.2H222.872C222.984 163.648 223.04 164.208 223.04 164.88C223.04 165.524 222.984 166.084 222.872 166.56H224.132C224.02 166.084 223.964 165.524 223.964 164.88C223.964 164.208 224.02 163.648 224.132 163.2H224.762C224.65 162.724 224.594 162.164 224.594 161.52C224.594 160.848 224.65 160.288 224.762 159.84H226.022C225.91 159.364 225.854 158.804 225.854 158.16C225.854 157.488 225.91 156.928 226.022 156.48H230.222C230.334 156.928 230.39 157.488 230.39 158.16C230.39 158.804 230.334 159.364 230.222 159.84ZM247.038 159.84C247.15 160.288 247.206 160.848 247.206 161.52C247.206 162.164 247.15 162.724 247.038 163.2C247.15 163.648 247.206 164.208 247.206 164.88C247.206 165.524 247.15 166.084 247.038 166.56C247.15 167.008 247.206 167.568 247.206 168.24C247.206 168.884 247.15 169.444 247.038 169.92C247.15 170.368 247.206 170.928 247.206 171.6C247.206 172.244 247.15 172.804 247.038 173.28C247.15 173.728 247.206 174.288 247.206 174.96C247.206 175.604 247.15 176.164 247.038 176.64H245.358C245.47 177.088 245.526 177.648 245.526 178.32C245.526 178.964 245.47 179.524 245.358 180H235.278C235.166 179.524 235.11 178.964 235.11 178.32C235.11 177.648 235.166 177.088 235.278 176.64H233.598C233.486 176.164 233.43 175.604 233.43 174.96C233.43 174.288 233.486 173.728 233.598 173.28C233.486 172.804 233.43 172.244 233.43 171.6C233.43 170.928 233.486 170.368 233.598 169.92C233.486 169.444 233.43 168.884 233.43 168.24C233.43 167.568 233.486 167.008 233.598 166.56C233.486 166.084 233.43 165.524 233.43 164.88C233.43 164.208 233.486 163.648 233.598 163.2C233.486 162.724 233.43 162.164 233.43 161.52C233.43 160.848 233.486 160.288 233.598 159.84C233.486 159.364 233.43 158.804 233.43 158.16C233.43 157.488 233.486 156.928 233.598 156.48H236.958C237.07 156.928 237.126 157.488 237.126 158.16C237.126 158.804 237.07 159.364 236.958 159.84C237.07 160.288 237.126 160.848 237.126 161.52C237.126 162.164 237.07 162.724 236.958 163.2C237.07 163.648 237.126 164.208 237.126 164.88C237.126 165.524 237.07 166.084 236.958 166.56C237.07 167.008 237.126 167.568 237.126 168.24C237.126 168.884 237.07 169.444 236.958 169.92C237.07 170.368 237.126 170.928 237.126 171.6C237.126 172.244 237.07 172.804 236.958 173.28C237.07 173.728 237.126 174.288 237.126 174.96C237.126 175.604 237.07 176.164 236.958 176.64H243.678C243.566 176.164 243.51 175.604 243.51 174.96C243.51 174.288 243.566 173.728 243.678 173.28C243.566 172.804 243.51 172.244 243.51 171.6C243.51 170.928 243.566 170.368 243.678 169.92C243.566 169.444 243.51 168.884 243.51 168.24C243.51 167.568 243.566 167.008 243.678 166.56C243.566 166.084 243.51 165.524 243.51 164.88C243.51 164.208 243.566 163.648 243.678 163.2C243.566 162.724 243.51 162.164 243.51 161.52C243.51 160.848 243.566 160.288 243.678 159.84C243.566 159.364 243.51 158.804 243.51 158.16C243.51 157.488 243.566 156.928 243.678 156.48H247.038C247.15 156.928 247.206 157.488 247.206 158.16C247.206 158.804 247.15 159.364 247.038 159.84ZM263.854 173.28C263.966 173.728 264.022 174.288 264.022 174.96C264.022 175.604 263.966 176.164 263.854 176.64H262.174C262.286 177.088 262.342 177.648 262.342 178.32C262.342 178.964 262.286 179.524 262.174 180H253.774C253.662 179.524 253.606 178.964 253.606 178.32C253.606 177.648 253.662 177.088 253.774 176.64H252.094C251.982 176.164 251.926 175.604 251.926 174.96C251.926 174.288 251.982 173.728 252.094 173.28H250.414C250.302 172.804 250.246 172.244 250.246 171.6C250.246 170.928 250.302 170.368 250.414 169.92C250.302 169.444 250.246 168.884 250.246 168.24C250.246 167.568 250.302 167.008 250.414 166.56C250.302 166.084 250.246 165.524 250.246 164.88C250.246 164.208 250.302 163.648 250.414 163.2H252.094C251.982 162.724 251.926 162.164 251.926 161.52C251.926 160.848 251.982 160.288 252.094 159.84H253.774C253.662 159.364 253.606 158.804 253.606 158.16C253.606 157.488 253.662 156.928 253.774 156.48H262.174C262.286 156.928 262.342 157.488 262.342 158.16C262.342 158.804 262.286 159.364 262.174 159.84H263.854C263.966 160.288 264.022 160.848 264.022 161.52C264.022 162.164 263.966 162.724 263.854 163.2H260.494C260.382 162.724 260.326 162.164 260.326 161.52C260.326 160.848 260.382 160.288 260.494 159.84H255.454C255.566 160.288 255.622 160.848 255.622 161.52C255.622 162.164 255.566 162.724 255.454 163.2H253.774C253.886 163.648 253.942 164.208 253.942 164.88C253.942 165.524 253.886 166.084 253.774 166.56C253.886 167.008 253.942 167.568 253.942 168.24C253.942 168.884 253.886 169.444 253.774 169.92C253.886 170.368 253.942 170.928 253.942 171.6C253.942 172.244 253.886 172.804 253.774 173.28H255.454C255.566 173.728 255.622 174.288 255.622 174.96C255.622 175.604 255.566 176.164 255.454 176.64H260.494C260.382 176.164 260.326 175.604 260.326 174.96C260.326 174.288 260.382 173.728 260.494 173.28H263.854ZM280.671 159.84C280.783 160.288 280.839 160.848 280.839 161.52C280.839 162.164 280.783 162.724 280.671 163.2C280.783 163.648 280.839 164.208 280.839 164.88C280.839 165.524 280.783 166.084 280.671 166.56C280.783 167.008 280.839 167.568 280.839 168.24C280.839 168.884 280.783 169.444 280.671 169.92C280.783 170.368 280.839 170.928 280.839 171.6C280.839 172.244 280.783 172.804 280.671 173.28C280.783 173.728 280.839 174.288 280.839 174.96C280.839 175.604 280.783 176.164 280.671 176.64C280.783 177.088 280.839 177.648 280.839 178.32C280.839 178.964 280.783 179.524 280.671 180H277.311C277.199 179.524 277.143 178.964 277.143 178.32C277.143 177.648 277.199 177.088 277.311 176.64C277.199 176.164 277.143 175.604 277.143 174.96C277.143 174.288 277.199 173.728 277.311 173.28C277.199 172.804 277.143 172.244 277.143 171.6C277.143 170.928 277.199 170.368 277.311 169.92H270.591C270.703 170.368 270.759 170.928 270.759 171.6C270.759 172.244 270.703 172.804 270.591 173.28C270.703 173.728 270.759 174.288 270.759 174.96C270.759 175.604 270.703 176.164 270.591 176.64C270.703 177.088 270.759 177.648 270.759 178.32C270.759 178.964 270.703 179.524 270.591 180H267.231C267.119 179.524 267.063 178.964 267.063 178.32C267.063 177.648 267.119 177.088 267.231 176.64C267.119 176.164 267.063 175.604 267.063 174.96C267.063 174.288 267.119 173.728 267.231 173.28C267.119 172.804 267.063 172.244 267.063 171.6C267.063 170.928 267.119 170.368 267.231 169.92C267.119 169.444 267.063 168.884 267.063 168.24C267.063 167.568 267.119 167.008 267.231 166.56C267.119 166.084 267.063 165.524 267.063 164.88C267.063 164.208 267.119 163.648 267.231 163.2C267.119 162.724 267.063 162.164 267.063 161.52C267.063 160.848 267.119 160.288 267.231 159.84C267.119 159.364 267.063 158.804 267.063 158.16C267.063 157.488 267.119 156.928 267.231 156.48H270.591C270.703 156.928 270.759 157.488 270.759 158.16C270.759 158.804 270.703 159.364 270.591 159.84C270.703 160.288 270.759 160.848 270.759 161.52C270.759 162.164 270.703 162.724 270.591 163.2C270.703 163.648 270.759 164.208 270.759 164.88C270.759 165.524 270.703 166.084 270.591 166.56H277.311C277.199 166.084 277.143 165.524 277.143 164.88C277.143 164.208 277.199 163.648 277.311 163.2C277.199 162.724 277.143 162.164 277.143 161.52C277.143 160.848 277.199 160.288 277.311 159.84C277.199 159.364 277.143 158.804 277.143 158.16C277.143 157.488 277.199 156.928 277.311 156.48H280.671C280.783 156.928 280.839 157.488 280.839 158.16C280.839 158.804 280.783 159.364 280.671 159.84ZM314.304 159.84C314.416 160.288 314.472 160.848 314.472 161.52C314.472 162.164 314.416 162.724 314.304 163.2C314.416 163.648 314.472 164.208 314.472 164.88C314.472 165.524 314.416 166.084 314.304 166.56C314.416 167.008 314.472 167.568 314.472 168.24C314.472 168.884 314.416 169.444 314.304 169.92C314.416 170.368 314.472 170.928 314.472 171.6C314.472 172.244 314.416 172.804 314.304 173.28C314.416 173.728 314.472 174.288 314.472 174.96C314.472 175.604 314.416 176.164 314.304 176.64C314.416 177.088 314.472 177.648 314.472 178.32C314.472 178.964 314.416 179.524 314.304 180H310.944C310.832 179.524 310.776 178.964 310.776 178.32C310.776 177.648 310.832 177.088 310.944 176.64C310.832 176.164 310.776 175.604 310.776 174.96C310.776 174.288 310.832 173.728 310.944 173.28C310.832 172.804 310.776 172.244 310.776 171.6C310.776 170.928 310.832 170.368 310.944 169.92C310.832 169.444 310.776 168.884 310.776 168.24C310.776 167.568 310.832 167.008 310.944 166.56C310.832 166.084 310.776 165.524 310.776 164.88C310.776 164.208 310.832 163.648 310.944 163.2H309.684C309.796 163.648 309.852 164.208 309.852 164.88C309.852 165.524 309.796 166.084 309.684 166.56C309.796 167.008 309.852 167.568 309.852 168.24C309.852 168.884 309.796 169.444 309.684 169.92H308.844C308.956 170.368 309.012 170.928 309.012 171.6C309.012 172.244 308.956 172.804 308.844 173.28C308.956 173.728 309.012 174.288 309.012 174.96C309.012 175.604 308.956 176.164 308.844 176.64H306.324C306.212 176.164 306.156 175.604 306.156 174.96C306.156 174.288 306.212 173.728 306.324 173.28C306.212 172.804 306.156 172.244 306.156 171.6C306.156 170.928 306.212 170.368 306.324 169.92H305.484C305.372 169.444 305.316 168.884 305.316 168.24C305.316 167.568 305.372 167.008 305.484 166.56C305.372 166.084 305.316 165.524 305.316 164.88C305.316 164.208 305.372 163.648 305.484 163.2H304.224C304.336 163.648 304.392 164.208 304.392 164.88C304.392 165.524 304.336 166.084 304.224 166.56C304.336 167.008 304.392 167.568 304.392 168.24C304.392 168.884 304.336 169.444 304.224 169.92C304.336 170.368 304.392 170.928 304.392 171.6C304.392 172.244 304.336 172.804 304.224 173.28C304.336 173.728 304.392 174.288 304.392 174.96C304.392 175.604 304.336 176.164 304.224 176.64C304.336 177.088 304.392 177.648 304.392 178.32C304.392 178.964 304.336 179.524 304.224 180H300.864C300.752 179.524 300.696 178.964 300.696 178.32C300.696 177.648 300.752 177.088 300.864 176.64C300.752 176.164 300.696 175.604 300.696 174.96C300.696 174.288 300.752 173.728 300.864 173.28C300.752 172.804 300.696 172.244 300.696 171.6C300.696 170.928 300.752 170.368 300.864 169.92C300.752 169.444 300.696 168.884 300.696 168.24C300.696 167.568 300.752 167.008 300.864 166.56C300.752 166.084 300.696 165.524 300.696 164.88C300.696 164.208 300.752 163.648 300.864 163.2C300.752 162.724 300.696 162.164 300.696 161.52C300.696 160.848 300.752 160.288 300.864 159.84C300.752 159.364 300.696 158.804 300.696 158.16C300.696 157.488 300.752 156.928 300.864 156.48H305.064C305.176 156.928 305.232 157.488 305.232 158.16C305.232 158.804 305.176 159.364 305.064 159.84H306.324C306.436 160.288 306.492 160.848 306.492 161.52C306.492 162.164 306.436 162.724 306.324 163.2H306.954C307.066 163.648 307.122 164.208 307.122 164.88C307.122 165.524 307.066 166.084 306.954 166.56H308.214C308.102 166.084 308.046 165.524 308.046 164.88C308.046 164.208 308.102 163.648 308.214 163.2H308.844C308.732 162.724 308.676 162.164 308.676 161.52C308.676 160.848 308.732 160.288 308.844 159.84H310.104C309.992 159.364 309.936 158.804 309.936 158.16C309.936 157.488 309.992 156.928 310.104 156.48H314.304C314.416 156.928 314.472 157.488 314.472 158.16C314.472 158.804 314.416 159.364 314.304 159.84ZM331.12 166.56C331.232 167.008 331.288 167.568 331.288 168.24C331.288 168.884 331.232 169.444 331.12 169.92C331.232 170.368 331.288 170.928 331.288 171.6C331.288 172.244 331.232 172.804 331.12 173.28H329.86C329.972 173.728 330.028 174.288 330.028 174.96C330.028 175.604 329.972 176.164 329.86 176.64H327.76C327.872 177.088 327.928 177.648 327.928 178.32C327.928 178.964 327.872 179.524 327.76 180H321.04C320.928 179.524 320.872 178.964 320.872 178.32C320.872 177.648 320.928 177.088 321.04 176.64H318.94C318.828 176.164 318.772 175.604 318.772 174.96C318.772 174.288 318.828 173.728 318.94 173.28H317.68C317.568 172.804 317.512 172.244 317.512 171.6C317.512 170.928 317.568 170.368 317.68 169.92C317.568 169.444 317.512 168.884 317.512 168.24C317.512 167.568 317.568 167.008 317.68 166.56C317.568 166.084 317.512 165.524 317.512 164.88C317.512 164.208 317.568 163.648 317.68 163.2H318.94C318.828 162.724 318.772 162.164 318.772 161.52C318.772 160.848 318.828 160.288 318.94 159.84H321.04C320.928 159.364 320.872 158.804 320.872 158.16C320.872 157.488 320.928 156.928 321.04 156.48H327.76C327.872 156.928 327.928 157.488 327.928 158.16C327.928 158.804 327.872 159.364 327.76 159.84H329.86C329.972 160.288 330.028 160.848 330.028 161.52C330.028 162.164 329.972 162.724 329.86 163.2H331.12C331.232 163.648 331.288 164.208 331.288 164.88C331.288 165.524 331.232 166.084 331.12 166.56ZM327.76 173.28C327.648 172.804 327.592 172.244 327.592 171.6C327.592 170.928 327.648 170.368 327.76 169.92C327.648 169.444 327.592 168.884 327.592 168.24C327.592 167.568 327.648 167.008 327.76 166.56C327.648 166.084 327.592 165.524 327.592 164.88C327.592 164.208 327.648 163.648 327.76 163.2H326.5C326.388 162.724 326.332 162.164 326.332 161.52C326.332 160.848 326.388 160.288 326.5 159.84H322.3C322.412 160.288 322.468 160.848 322.468 161.52C322.468 162.164 322.412 162.724 322.3 163.2H321.04C321.152 163.648 321.208 164.208 321.208 164.88C321.208 165.524 321.152 166.084 321.04 166.56C321.152 167.008 321.208 167.568 321.208 168.24C321.208 168.884 321.152 169.444 321.04 169.92C321.152 170.368 321.208 170.928 321.208 171.6C321.208 172.244 321.152 172.804 321.04 173.28H322.3C322.412 173.728 322.468 174.288 322.468 174.96C322.468 175.604 322.412 176.164 322.3 176.64H326.5C326.388 176.164 326.332 175.604 326.332 174.96C326.332 174.288 326.388 173.728 326.5 173.28H327.76ZM347.936 176.64C348.048 177.088 348.104 177.648 348.104 178.32C348.104 178.964 348.048 179.524 347.936 180H344.576C344.464 179.524 344.408 178.964 344.408 178.32C344.408 177.648 344.464 177.088 344.576 176.64H343.316C343.204 176.164 343.148 175.604 343.148 174.96C343.148 174.288 343.204 173.728 343.316 173.28H342.056C341.944 172.804 341.888 172.244 341.888 171.6C341.888 170.928 341.944 170.368 342.056 169.92H337.856C337.968 170.368 338.024 170.928 338.024 171.6C338.024 172.244 337.968 172.804 337.856 173.28C337.968 173.728 338.024 174.288 338.024 174.96C338.024 175.604 337.968 176.164 337.856 176.64C337.968 177.088 338.024 177.648 338.024 178.32C338.024 178.964 337.968 179.524 337.856 180H334.496C334.384 179.524 334.328 178.964 334.328 178.32C334.328 177.648 334.384 177.088 334.496 176.64C334.384 176.164 334.328 175.604 334.328 174.96C334.328 174.288 334.384 173.728 334.496 173.28C334.384 172.804 334.328 172.244 334.328 171.6C334.328 170.928 334.384 170.368 334.496 169.92C334.384 169.444 334.328 168.884 334.328 168.24C334.328 167.568 334.384 167.008 334.496 166.56C334.384 166.084 334.328 165.524 334.328 164.88C334.328 164.208 334.384 163.648 334.496 163.2C334.384 162.724 334.328 162.164 334.328 161.52C334.328 160.848 334.384 160.288 334.496 159.84C334.384 159.364 334.328 158.804 334.328 158.16C334.328 157.488 334.384 156.928 334.496 156.48H346.256C346.368 156.928 346.424 157.488 346.424 158.16C346.424 158.804 346.368 159.364 346.256 159.84H347.936C348.048 160.288 348.104 160.848 348.104 161.52C348.104 162.164 348.048 162.724 347.936 163.2H347.096C347.208 163.648 347.264 164.208 347.264 164.88C347.264 165.524 347.208 166.084 347.096 166.56H344.576C344.688 167.008 344.744 167.568 344.744 168.24C344.744 168.884 344.688 169.444 344.576 169.92H345.416C345.528 170.368 345.584 170.928 345.584 171.6C345.584 172.244 345.528 172.804 345.416 173.28H346.676C346.788 173.728 346.844 174.288 346.844 174.96C346.844 175.604 346.788 176.164 346.676 176.64H347.936ZM343.736 166.56C343.624 166.084 343.568 165.524 343.568 164.88C343.568 164.208 343.624 163.648 343.736 163.2C343.624 162.724 343.568 162.164 343.568 161.52C343.568 160.848 343.624 160.288 343.736 159.84H337.856C337.968 160.288 338.024 160.848 338.024 161.52C338.024 162.164 337.968 162.724 337.856 163.2C337.968 163.648 338.024 164.208 338.024 164.88C338.024 165.524 337.968 166.084 337.856 166.56H343.736ZM356.353 169.92C356.465 170.368 356.521 170.928 356.521 171.6C356.521 172.244 356.465 172.804 356.353 173.28C356.465 173.728 356.521 174.288 356.521 174.96C356.521 175.604 356.465 176.164 356.353 176.64H363.073C363.185 177.088 363.241 177.648 363.241 178.32C363.241 178.964 363.185 179.524 363.073 180H352.993C352.881 179.524 352.825 178.964 352.825 178.32C352.825 177.648 352.881 177.088 352.993 176.64C352.881 176.164 352.825 175.604 352.825 174.96C352.825 174.288 352.881 173.728 352.993 173.28C352.881 172.804 352.825 172.244 352.825 171.6C352.825 170.928 352.881 170.368 352.993 169.92C352.881 169.444 352.825 168.884 352.825 168.24C352.825 167.568 352.881 167.008 352.993 166.56C352.881 166.084 352.825 165.524 352.825 164.88C352.825 164.208 352.881 163.648 352.993 163.2C352.881 162.724 352.825 162.164 352.825 161.52C352.825 160.848 352.881 160.288 352.993 159.84C352.881 159.364 352.825 158.804 352.825 158.16C352.825 157.488 352.881 156.928 352.993 156.48H363.073C363.185 156.928 363.241 157.488 363.241 158.16C363.241 158.804 363.185 159.364 363.073 159.84H356.353C356.465 160.288 356.521 160.848 356.521 161.52C356.521 162.164 356.465 162.724 356.353 163.2C356.465 163.648 356.521 164.208 356.521 164.88C356.521 165.524 356.465 166.084 356.353 166.56H363.073C363.185 167.008 363.241 167.568 363.241 168.24C363.241 168.884 363.185 169.444 363.073 169.92H356.353ZM377.117 174.96C377.117 175.604 377.061 176.164 376.949 176.64C377.061 177.088 377.117 177.648 377.117 178.32C377.117 178.964 377.061 179.524 376.949 180H372.749C372.637 179.524 372.581 178.964 372.581 178.32C372.581 177.648 372.637 177.088 372.749 176.64C372.637 176.164 372.581 175.604 372.581 174.96C372.581 174.288 372.637 173.728 372.749 173.28H376.949C377.061 173.728 377.117 174.288 377.117 174.96ZM393.934 174.96C393.934 175.604 393.878 176.164 393.766 176.64C393.878 177.088 393.934 177.648 393.934 178.32C393.934 178.964 393.878 179.524 393.766 180H389.566C389.454 179.524 389.398 178.964 389.398 178.32C389.398 177.648 389.454 177.088 389.566 176.64C389.454 176.164 389.398 175.604 389.398 174.96C389.398 174.288 389.454 173.728 389.566 173.28H393.766C393.878 173.728 393.934 174.288 393.934 174.96ZM410.75 174.96C410.75 175.604 410.694 176.164 410.582 176.64C410.694 177.088 410.75 177.648 410.75 178.32C410.75 178.964 410.694 179.524 410.582 180H406.382C406.27 179.524 406.214 178.964 406.214 178.32C406.214 177.648 406.27 177.088 406.382 176.64C406.27 176.164 406.214 175.604 406.214 174.96C406.214 174.288 406.27 173.728 406.382 173.28H410.582C410.694 173.728 410.75 174.288 410.75 174.96Z" fill="#FFEE55"/>
</g>
<defs>
<filter id="filter0_d_111_20" x="0" y="0" width="632" height="263" filterUnits="userSpaceOnUse" color-interpolation-filters="sRGB">
<feFlood flood-opacity="0" result="BackgroundImageFix"/>
<feColorMatrix in="SourceAlpha" type="matrix" values="0 0 0 0 0 0 0 0 0 0 0 0 0 0 0 0 0 0 127 0" result="hardAlpha"/>
<feOffset dy="4"/>
<feGaussianBlur stdDeviation="2"/>
<feComposite in2="hardAlpha" operator="out"/>
<feColorMatrix type="matrix" values="0 0 0 0 0 0 0 0 0 0 0 0 0 0 0 0 0 0 0.25 0"/>
<feBlend mode="normal" in2="BackgroundImageFix" result="effect1_dropShadow_111_20"/>
<feBlend mode="normal" in="SourceGraphic" in2="effect1_dropShadow_111_20" result="shape"/>
</filter>
</defs>
</svg>
