<svg width="296" height="292" viewBox="0 0 296 292" fill="none" xmlns="http://www.w3.org/2000/svg">
<rect x="0.5" y="0.5" width="295" height="291" rx="10.5" fill="#FFEE55" stroke="#FFEE55"/>
<path d="M133.715 52.48C133.715 54.0287 133.58 55.3753 133.311 56.52H123.211C122.941 55.3753 122.807 54.0287 122.807 52.48C122.807 50.864 122.941 49.5173 123.211 48.44H133.311C133.58 49.5173 133.715 50.864 133.715 52.48ZM123.211 88.84C123.48 89.9173 123.615 91.264 123.615 92.88C123.615 94.4287 123.48 95.7753 123.211 96.92H118.161C117.891 95.7753 117.757 94.4287 117.757 92.88C117.757 91.264 117.891 89.9173 118.161 88.84H115.131C114.861 87.6953 114.727 86.3487 114.727 84.8C114.727 83.184 114.861 81.8373 115.131 80.76C114.861 79.6153 114.727 78.2687 114.727 76.72C114.727 75.104 114.861 73.7573 115.131 72.68C114.861 71.5353 114.727 70.1887 114.727 68.64C114.727 67.024 114.861 65.6773 115.131 64.6H118.161C117.891 63.4553 117.757 62.1087 117.757 60.56C117.757 58.944 117.891 57.5973 118.161 56.52H123.211C123.48 57.5973 123.615 58.944 123.615 60.56C123.615 62.1087 123.48 63.4553 123.211 64.6C123.48 65.6773 123.615 67.024 123.615 68.64C123.615 70.1887 123.48 71.5353 123.211 72.68C123.48 73.7573 123.615 75.104 123.615 76.72C123.615 78.2687 123.48 79.6153 123.211 80.76C123.48 81.8373 123.615 83.184 123.615 84.8C123.615 86.3487 123.48 87.6953 123.211 88.84ZM141.391 72.68C141.66 73.7573 141.795 75.104 141.795 76.72C141.795 78.2687 141.66 79.6153 141.391 80.76C141.66 81.8373 141.795 83.184 141.795 84.8C141.795 86.3487 141.66 87.6953 141.391 88.84H138.361C138.63 89.9173 138.765 91.264 138.765 92.88C138.765 94.4287 138.63 95.7753 138.361 96.92H133.311C133.041 95.7753 132.907 94.4287 132.907 92.88C132.907 91.264 133.041 89.9173 133.311 88.84C133.041 87.6953 132.907 86.3487 132.907 84.8C132.907 83.184 133.041 81.8373 133.311 80.76C133.041 79.6153 132.907 78.2687 132.907 76.72C132.907 75.104 133.041 73.7573 133.311 72.68C133.041 71.5353 132.907 70.1887 132.907 68.64C132.907 67.024 133.041 65.6773 133.311 64.6C133.041 63.4553 132.907 62.1087 132.907 60.56C132.907 58.944 133.041 57.5973 133.311 56.52H138.361C138.63 57.5973 138.765 58.944 138.765 60.56C138.765 62.1087 138.63 63.4553 138.361 64.6H141.391C141.66 65.6773 141.795 67.024 141.795 68.64C141.795 70.1887 141.66 71.5353 141.391 72.68ZM122.807 100.96C122.807 99.344 122.941 97.9973 123.211 96.92H133.311C133.58 97.9973 133.715 99.344 133.715 100.96C133.715 102.509 133.58 103.855 133.311 105H123.211C122.941 103.855 122.807 102.509 122.807 100.96ZM183.244 68.64C183.244 70.1887 183.109 71.5353 182.84 72.68H177.79C178.059 73.7573 178.194 75.104 178.194 76.72C178.194 78.2687 178.059 79.6153 177.79 80.76H172.74C173.009 81.8373 173.144 83.184 173.144 84.8C173.144 86.3487 173.009 87.6953 172.74 88.84H167.69C167.959 89.9173 168.094 91.264 168.094 92.88C168.094 94.4287 167.959 95.7753 167.69 96.92H182.84C183.109 97.9973 183.244 99.344 183.244 100.96C183.244 102.509 183.109 103.855 182.84 105H154.56C154.291 103.855 154.156 102.509 154.156 100.96C154.156 99.344 154.291 97.9973 154.56 96.92H159.61C159.341 95.7753 159.206 94.4287 159.206 92.88C159.206 91.264 159.341 89.9173 159.61 88.84H164.66C164.391 87.6953 164.256 86.3487 164.256 84.8C164.256 83.184 164.391 81.8373 164.66 80.76H169.71C169.441 79.6153 169.306 78.2687 169.306 76.72C169.306 75.104 169.441 73.7573 169.71 72.68H174.76C174.491 71.5353 174.356 70.1887 174.356 68.64C174.356 67.024 174.491 65.6773 174.76 64.6C174.491 63.4553 174.356 62.1087 174.356 60.56C174.356 58.944 174.491 57.5973 174.76 56.52H160.62C160.889 57.5973 161.024 58.944 161.024 60.56C161.024 62.1087 160.889 63.4553 160.62 64.6H154.56C154.291 63.4553 154.156 62.1087 154.156 60.56C154.156 58.944 154.291 57.5973 154.56 56.52H158.6C158.331 55.3753 158.196 54.0287 158.196 52.48C158.196 50.864 158.331 49.5173 158.6 48.44H178.8C179.069 49.5173 179.204 50.864 179.204 52.48C179.204 54.0287 179.069 55.3753 178.8 56.52H182.84C183.109 57.5973 183.244 58.944 183.244 60.56C183.244 62.1087 183.109 63.4553 182.84 64.6C183.109 65.6773 183.244 67.024 183.244 68.64Z" fill="black"/>
<path d="M90.5316 171.2C90.625 171.573 90.6716 172.04 90.6716 172.6C90.6716 173.137 90.625 173.603 90.5316 174H80.7316C80.6383 173.603 80.5916 173.137 80.5916 172.6C80.5916 172.04 80.6383 171.573 80.7316 171.2C80.6383 170.803 80.5916 170.337 80.5916 169.8C80.5916 169.24 80.6383 168.773 80.7316 168.4C80.6383 168.003 80.5916 167.537 80.5916 167C80.5916 166.44 80.6383 165.973 80.7316 165.6C80.6383 165.203 80.5916 164.737 80.5916 164.2C80.5916 163.64 80.6383 163.173 80.7316 162.8C80.6383 162.403 80.5916 161.937 80.5916 161.4C80.5916 160.84 80.6383 160.373 80.7316 160C80.6383 159.603 80.5916 159.137 80.5916 158.6C80.5916 158.04 80.6383 157.573 80.7316 157.2C80.6383 156.803 80.5916 156.337 80.5916 155.8C80.5916 155.24 80.6383 154.773 80.7316 154.4H83.5316C83.625 154.773 83.6716 155.24 83.6716 155.8C83.6716 156.337 83.625 156.803 83.5316 157.2C83.625 157.573 83.6716 158.04 83.6716 158.6C83.6716 159.137 83.625 159.603 83.5316 160C83.625 160.373 83.6716 160.84 83.6716 161.4C83.6716 161.937 83.625 162.403 83.5316 162.8C83.625 163.173 83.6716 163.64 83.6716 164.2C83.6716 164.737 83.625 165.203 83.5316 165.6C83.625 165.973 83.6716 166.44 83.6716 167C83.6716 167.537 83.625 168.003 83.5316 168.4C83.625 168.773 83.6716 169.24 83.6716 169.8C83.6716 170.337 83.625 170.803 83.5316 171.2H90.5316ZM104.545 162.8C104.639 163.173 104.685 163.64 104.685 164.2C104.685 164.737 104.639 165.203 104.545 165.6C104.639 165.973 104.685 166.44 104.685 167C104.685 167.537 104.639 168.003 104.545 168.4H103.495C103.589 168.773 103.635 169.24 103.635 169.8C103.635 170.337 103.589 170.803 103.495 171.2H101.745C101.839 171.573 101.885 172.04 101.885 172.6C101.885 173.137 101.839 173.603 101.745 174H96.1453C96.052 173.603 96.0053 173.137 96.0053 172.6C96.0053 172.04 96.052 171.573 96.1453 171.2H94.3953C94.302 170.803 94.2553 170.337 94.2553 169.8C94.2553 169.24 94.302 168.773 94.3953 168.4H93.3453C93.252 168.003 93.2053 167.537 93.2053 167C93.2053 166.44 93.252 165.973 93.3453 165.6C93.252 165.203 93.2053 164.737 93.2053 164.2C93.2053 163.64 93.252 163.173 93.3453 162.8C93.252 162.403 93.2053 161.937 93.2053 161.4C93.2053 160.84 93.252 160.373 93.3453 160H94.3953C94.302 159.603 94.2553 159.137 94.2553 158.6C94.2553 158.04 94.302 157.573 94.3953 157.2H96.1453C96.052 156.803 96.0053 156.337 96.0053 155.8C96.0053 155.24 96.052 154.773 96.1453 154.4H101.745C101.839 154.773 101.885 155.24 101.885 155.8C101.885 156.337 101.839 156.803 101.745 157.2H103.495C103.589 157.573 103.635 158.04 103.635 158.6C103.635 159.137 103.589 159.603 103.495 160H104.545C104.639 160.373 104.685 160.84 104.685 161.4C104.685 161.937 104.639 162.403 104.545 162.8ZM101.745 168.4C101.652 168.003 101.605 167.537 101.605 167C101.605 166.44 101.652 165.973 101.745 165.6C101.652 165.203 101.605 164.737 101.605 164.2C101.605 163.64 101.652 163.173 101.745 162.8C101.652 162.403 101.605 161.937 101.605 161.4C101.605 160.84 101.652 160.373 101.745 160H100.695C100.602 159.603 100.555 159.137 100.555 158.6C100.555 158.04 100.602 157.573 100.695 157.2H97.1953C97.2886 157.573 97.3353 158.04 97.3353 158.6C97.3353 159.137 97.2886 159.603 97.1953 160H96.1453C96.2386 160.373 96.2853 160.84 96.2853 161.4C96.2853 161.937 96.2386 162.403 96.1453 162.8C96.2386 163.173 96.2853 163.64 96.2853 164.2C96.2853 164.737 96.2386 165.203 96.1453 165.6C96.2386 165.973 96.2853 166.44 96.2853 167C96.2853 167.537 96.2386 168.003 96.1453 168.4H97.1953C97.2886 168.773 97.3353 169.24 97.3353 169.8C97.3353 170.337 97.2886 170.803 97.1953 171.2H100.695C100.602 170.803 100.555 170.337 100.555 169.8C100.555 169.24 100.602 168.773 100.695 168.4H101.745ZM118.699 169.8C118.699 170.337 118.652 170.803 118.559 171.2C118.652 171.573 118.699 172.04 118.699 172.6C118.699 173.137 118.652 173.603 118.559 174H115.759C115.666 173.603 115.619 173.137 115.619 172.6C115.619 172.04 115.666 171.573 115.759 171.2C115.666 170.803 115.619 170.337 115.619 169.8C115.619 169.24 115.666 168.773 115.759 168.4H110.159C110.252 168.773 110.299 169.24 110.299 169.8C110.299 170.337 110.252 170.803 110.159 171.2C110.252 171.573 110.299 172.04 110.299 172.6C110.299 173.137 110.252 173.603 110.159 174H107.359C107.266 173.603 107.219 173.137 107.219 172.6C107.219 172.04 107.266 171.573 107.359 171.2C107.266 170.803 107.219 170.337 107.219 169.8C107.219 169.24 107.266 168.773 107.359 168.4H108.409C108.316 168.003 108.269 167.537 108.269 167C108.269 166.44 108.316 165.973 108.409 165.6C108.316 165.203 108.269 164.737 108.269 164.2C108.269 163.64 108.316 163.173 108.409 162.8H109.109C109.016 162.403 108.969 161.937 108.969 161.4C108.969 160.84 109.016 160.373 109.109 160H110.159C110.066 159.603 110.019 159.137 110.019 158.6C110.019 158.04 110.066 157.573 110.159 157.2H110.859C110.766 156.803 110.719 156.337 110.719 155.8C110.719 155.24 110.766 154.773 110.859 154.4H115.059C115.152 154.773 115.199 155.24 115.199 155.8C115.199 156.337 115.152 156.803 115.059 157.2H115.759C115.852 157.573 115.899 158.04 115.899 158.6C115.899 159.137 115.852 159.603 115.759 160H116.809C116.902 160.373 116.949 160.84 116.949 161.4C116.949 161.937 116.902 162.403 116.809 162.8H117.509C117.602 163.173 117.649 163.64 117.649 164.2C117.649 164.737 117.602 165.203 117.509 165.6C117.602 165.973 117.649 166.44 117.649 167C117.649 167.537 117.602 168.003 117.509 168.4H118.559C118.652 168.773 118.699 169.24 118.699 169.8ZM114.709 165.6C114.616 165.203 114.569 164.737 114.569 164.2C114.569 163.64 114.616 163.173 114.709 162.8H114.009C113.916 162.403 113.869 161.937 113.869 161.4C113.869 160.84 113.916 160.373 114.009 160H111.909C112.002 160.373 112.049 160.84 112.049 161.4C112.049 161.937 112.002 162.403 111.909 162.8H111.209C111.302 163.173 111.349 163.64 111.349 164.2C111.349 164.737 111.302 165.203 111.209 165.6H114.709ZM132.573 162.8C132.666 163.173 132.713 163.64 132.713 164.2C132.713 164.737 132.666 165.203 132.573 165.6C132.666 165.973 132.713 166.44 132.713 167C132.713 167.537 132.666 168.003 132.573 168.4H131.173C131.266 168.773 131.313 169.24 131.313 169.8C131.313 170.337 131.266 170.803 131.173 171.2H129.773C129.866 171.573 129.913 172.04 129.913 172.6C129.913 173.137 129.866 173.603 129.773 174H121.373C121.279 173.603 121.233 173.137 121.233 172.6C121.233 172.04 121.279 171.573 121.373 171.2C121.279 170.803 121.233 170.337 121.233 169.8C121.233 169.24 121.279 168.773 121.373 168.4C121.279 168.003 121.233 167.537 121.233 167C121.233 166.44 121.279 165.973 121.373 165.6C121.279 165.203 121.233 164.737 121.233 164.2C121.233 163.64 121.279 163.173 121.373 162.8C121.279 162.403 121.233 161.937 121.233 161.4C121.233 160.84 121.279 160.373 121.373 160C121.279 159.603 121.233 159.137 121.233 158.6C121.233 158.04 121.279 157.573 121.373 157.2C121.279 156.803 121.233 156.337 121.233 155.8C121.233 155.24 121.279 154.773 121.373 154.4H129.773C129.866 154.773 129.913 155.24 129.913 155.8C129.913 156.337 129.866 156.803 129.773 157.2H131.173C131.266 157.573 131.313 158.04 131.313 158.6C131.313 159.137 131.266 159.603 131.173 160H132.573C132.666 160.373 132.713 160.84 132.713 161.4C132.713 161.937 132.666 162.403 132.573 162.8ZM129.773 168.4C129.679 168.003 129.633 167.537 129.633 167C129.633 166.44 129.679 165.973 129.773 165.6C129.679 165.203 129.633 164.737 129.633 164.2C129.633 163.64 129.679 163.173 129.773 162.8C129.679 162.403 129.633 161.937 129.633 161.4C129.633 160.84 129.679 160.373 129.773 160H128.373C128.279 159.603 128.233 159.137 128.233 158.6C128.233 158.04 128.279 157.573 128.373 157.2H124.173C124.266 157.573 124.313 158.04 124.313 158.6C124.313 159.137 124.266 159.603 124.173 160C124.266 160.373 124.313 160.84 124.313 161.4C124.313 161.937 124.266 162.403 124.173 162.8C124.266 163.173 124.313 163.64 124.313 164.2C124.313 164.737 124.266 165.203 124.173 165.6C124.266 165.973 124.313 166.44 124.313 167C124.313 167.537 124.266 168.003 124.173 168.4C124.266 168.773 124.313 169.24 124.313 169.8C124.313 170.337 124.266 170.803 124.173 171.2H128.373C128.279 170.803 128.233 170.337 128.233 169.8C128.233 169.24 128.279 168.773 128.373 168.4H129.773ZM158.5 171.2C158.593 171.573 158.64 172.04 158.64 172.6C158.64 173.137 158.593 173.603 158.5 174H151.5C151.407 173.603 151.36 173.137 151.36 172.6C151.36 172.04 151.407 171.573 151.5 171.2H153.6C153.507 170.803 153.46 170.337 153.46 169.8C153.46 169.24 153.507 168.773 153.6 168.4C153.507 168.003 153.46 167.537 153.46 167C153.46 166.44 153.507 165.973 153.6 165.6C153.507 165.203 153.46 164.737 153.46 164.2C153.46 163.64 153.507 163.173 153.6 162.8C153.507 162.403 153.46 161.937 153.46 161.4C153.46 160.84 153.507 160.373 153.6 160C153.507 159.603 153.46 159.137 153.46 158.6C153.46 158.04 153.507 157.573 153.6 157.2H151.5C151.407 156.803 151.36 156.337 151.36 155.8C151.36 155.24 151.407 154.773 151.5 154.4H158.5C158.593 154.773 158.64 155.24 158.64 155.8C158.64 156.337 158.593 156.803 158.5 157.2H156.4C156.493 157.573 156.54 158.04 156.54 158.6C156.54 159.137 156.493 159.603 156.4 160C156.493 160.373 156.54 160.84 156.54 161.4C156.54 161.937 156.493 162.403 156.4 162.8C156.493 163.173 156.54 163.64 156.54 164.2C156.54 164.737 156.493 165.203 156.4 165.6C156.493 165.973 156.54 166.44 156.54 167C156.54 167.537 156.493 168.003 156.4 168.4C156.493 168.773 156.54 169.24 156.54 169.8C156.54 170.337 156.493 170.803 156.4 171.2H158.5ZM174.754 155.8C174.754 156.337 174.707 156.803 174.614 157.2H170.414C170.507 157.573 170.554 158.04 170.554 158.6C170.554 159.137 170.507 159.603 170.414 160C170.507 160.373 170.554 160.84 170.554 161.4C170.554 161.937 170.507 162.403 170.414 162.8C170.507 163.173 170.554 163.64 170.554 164.2C170.554 164.737 170.507 165.203 170.414 165.6C170.507 165.973 170.554 166.44 170.554 167C170.554 167.537 170.507 168.003 170.414 168.4C170.507 168.773 170.554 169.24 170.554 169.8C170.554 170.337 170.507 170.803 170.414 171.2C170.507 171.573 170.554 172.04 170.554 172.6C170.554 173.137 170.507 173.603 170.414 174H167.614C167.52 173.603 167.474 173.137 167.474 172.6C167.474 172.04 167.52 171.573 167.614 171.2C167.52 170.803 167.474 170.337 167.474 169.8C167.474 169.24 167.52 168.773 167.614 168.4C167.52 168.003 167.474 167.537 167.474 167C167.474 166.44 167.52 165.973 167.614 165.6C167.52 165.203 167.474 164.737 167.474 164.2C167.474 163.64 167.52 163.173 167.614 162.8C167.52 162.403 167.474 161.937 167.474 161.4C167.474 160.84 167.52 160.373 167.614 160C167.52 159.603 167.474 159.137 167.474 158.6C167.474 158.04 167.52 157.573 167.614 157.2H163.414C163.32 156.803 163.274 156.337 163.274 155.8C163.274 155.24 163.32 154.773 163.414 154.4H174.614C174.707 154.773 174.754 155.24 174.754 155.8ZM202.641 157.2C202.734 157.573 202.781 158.04 202.781 158.6C202.781 159.137 202.734 159.603 202.641 160C202.734 160.373 202.781 160.84 202.781 161.4C202.781 161.937 202.734 162.403 202.641 162.8C202.734 163.173 202.781 163.64 202.781 164.2C202.781 164.737 202.734 165.203 202.641 165.6C202.734 165.973 202.781 166.44 202.781 167C202.781 167.537 202.734 168.003 202.641 168.4C202.734 168.773 202.781 169.24 202.781 169.8C202.781 170.337 202.734 170.803 202.641 171.2H201.241C201.334 171.573 201.381 172.04 201.381 172.6C201.381 173.137 201.334 173.603 201.241 174H192.841C192.748 173.603 192.701 173.137 192.701 172.6C192.701 172.04 192.748 171.573 192.841 171.2H191.441C191.348 170.803 191.301 170.337 191.301 169.8C191.301 169.24 191.348 168.773 191.441 168.4C191.348 168.003 191.301 167.537 191.301 167C191.301 166.44 191.348 165.973 191.441 165.6C191.348 165.203 191.301 164.737 191.301 164.2C191.301 163.64 191.348 163.173 191.441 162.8C191.348 162.403 191.301 161.937 191.301 161.4C191.301 160.84 191.348 160.373 191.441 160C191.348 159.603 191.301 159.137 191.301 158.6C191.301 158.04 191.348 157.573 191.441 157.2C191.348 156.803 191.301 156.337 191.301 155.8C191.301 155.24 191.348 154.773 191.441 154.4H194.241C194.334 154.773 194.381 155.24 194.381 155.8C194.381 156.337 194.334 156.803 194.241 157.2C194.334 157.573 194.381 158.04 194.381 158.6C194.381 159.137 194.334 159.603 194.241 160C194.334 160.373 194.381 160.84 194.381 161.4C194.381 161.937 194.334 162.403 194.241 162.8C194.334 163.173 194.381 163.64 194.381 164.2C194.381 164.737 194.334 165.203 194.241 165.6C194.334 165.973 194.381 166.44 194.381 167C194.381 167.537 194.334 168.003 194.241 168.4C194.334 168.773 194.381 169.24 194.381 169.8C194.381 170.337 194.334 170.803 194.241 171.2H199.841C199.748 170.803 199.701 170.337 199.701 169.8C199.701 169.24 199.748 168.773 199.841 168.4C199.748 168.003 199.701 167.537 199.701 167C199.701 166.44 199.748 165.973 199.841 165.6C199.748 165.203 199.701 164.737 199.701 164.2C199.701 163.64 199.748 163.173 199.841 162.8C199.748 162.403 199.701 161.937 199.701 161.4C199.701 160.84 199.748 160.373 199.841 160C199.748 159.603 199.701 159.137 199.701 158.6C199.701 158.04 199.748 157.573 199.841 157.2C199.748 156.803 199.701 156.337 199.701 155.8C199.701 155.24 199.748 154.773 199.841 154.4H202.641C202.734 154.773 202.781 155.24 202.781 155.8C202.781 156.337 202.734 156.803 202.641 157.2ZM216.795 158.6C216.795 159.137 216.748 159.603 216.655 160C216.748 160.373 216.795 160.84 216.795 161.4C216.795 161.937 216.748 162.403 216.655 162.8H215.255C215.348 163.173 215.395 163.64 215.395 164.2C215.395 164.737 215.348 165.203 215.255 165.6H208.255C208.348 165.973 208.395 166.44 208.395 167C208.395 167.537 208.348 168.003 208.255 168.4C208.348 168.773 208.395 169.24 208.395 169.8C208.395 170.337 208.348 170.803 208.255 171.2C208.348 171.573 208.395 172.04 208.395 172.6C208.395 173.137 208.348 173.603 208.255 174H205.455C205.361 173.603 205.315 173.137 205.315 172.6C205.315 172.04 205.361 171.573 205.455 171.2C205.361 170.803 205.315 170.337 205.315 169.8C205.315 169.24 205.361 168.773 205.455 168.4C205.361 168.003 205.315 167.537 205.315 167C205.315 166.44 205.361 165.973 205.455 165.6C205.361 165.203 205.315 164.737 205.315 164.2C205.315 163.64 205.361 163.173 205.455 162.8C205.361 162.403 205.315 161.937 205.315 161.4C205.315 160.84 205.361 160.373 205.455 160C205.361 159.603 205.315 159.137 205.315 158.6C205.315 158.04 205.361 157.573 205.455 157.2C205.361 156.803 205.315 156.337 205.315 155.8C205.315 155.24 205.361 154.773 205.455 154.4H215.255C215.348 154.773 215.395 155.24 215.395 155.8C215.395 156.337 215.348 156.803 215.255 157.2H216.655C216.748 157.573 216.795 158.04 216.795 158.6ZM213.855 162.8C213.761 162.403 213.715 161.937 213.715 161.4C213.715 160.84 213.761 160.373 213.855 160C213.761 159.603 213.715 159.137 213.715 158.6C213.715 158.04 213.761 157.573 213.855 157.2H208.255C208.348 157.573 208.395 158.04 208.395 158.6C208.395 159.137 208.348 159.603 208.255 160C208.348 160.373 208.395 160.84 208.395 161.4C208.395 161.937 208.348 162.403 208.255 162.8H213.855ZM69.5111 192.2C69.6045 192.573 69.6511 193.04 69.6511 193.6C69.6511 194.137 69.6045 194.603 69.5111 195C69.6045 195.373 69.6511 195.84 69.6511 196.4C69.6511 196.937 69.6045 197.403 69.5111 197.8C69.6045 198.173 69.6511 198.64 69.6511 199.2C69.6511 199.737 69.6045 200.203 69.5111 200.6H68.4611C68.5545 200.973 68.6011 201.44 68.6011 202C68.6011 202.537 68.5545 203.003 68.4611 203.4C68.5545 203.773 68.6011 204.24 68.6011 204.8C68.6011 205.337 68.5545 205.803 68.4611 206.2H67.7611C67.8545 206.573 67.9011 207.04 67.9011 207.6C67.9011 208.137 67.8545 208.603 67.7611 209H65.6611C65.5678 208.603 65.5211 208.137 65.5211 207.6C65.5211 207.04 65.5678 206.573 65.6611 206.2H64.9611C64.8678 205.803 64.8211 205.337 64.8211 204.8C64.8211 204.24 64.8678 203.773 64.9611 203.4H62.8611C62.9545 203.773 63.0011 204.24 63.0011 204.8C63.0011 205.337 62.9545 205.803 62.8611 206.2H62.1611C62.2545 206.573 62.3011 207.04 62.3011 207.6C62.3011 208.137 62.2545 208.603 62.1611 209H60.0611C59.9678 208.603 59.9211 208.137 59.9211 207.6C59.9211 207.04 59.9678 206.573 60.0611 206.2H59.3611C59.2678 205.803 59.2211 205.337 59.2211 204.8C59.2211 204.24 59.2678 203.773 59.3611 203.4C59.2678 203.003 59.2211 202.537 59.2211 202C59.2211 201.44 59.2678 200.973 59.3611 200.6H58.3111C58.2178 200.203 58.1711 199.737 58.1711 199.2C58.1711 198.64 58.2178 198.173 58.3111 197.8C58.2178 197.403 58.1711 196.937 58.1711 196.4C58.1711 195.84 58.2178 195.373 58.3111 195C58.2178 194.603 58.1711 194.137 58.1711 193.6C58.1711 193.04 58.2178 192.573 58.3111 192.2C58.2178 191.803 58.1711 191.337 58.1711 190.8C58.1711 190.24 58.2178 189.773 58.3111 189.4H61.1111C61.2045 189.773 61.2511 190.24 61.2511 190.8C61.2511 191.337 61.2045 191.803 61.1111 192.2C61.2045 192.573 61.2511 193.04 61.2511 193.6C61.2511 194.137 61.2045 194.603 61.1111 195C61.2045 195.373 61.2511 195.84 61.2511 196.4C61.2511 196.937 61.2045 197.403 61.1111 197.8C61.2045 198.173 61.2511 198.64 61.2511 199.2C61.2511 199.737 61.2045 200.203 61.1111 200.6C61.2045 200.973 61.2511 201.44 61.2511 202C61.2511 202.537 61.2045 203.003 61.1111 203.4H62.1611C62.0678 203.003 62.0211 202.537 62.0211 202C62.0211 201.44 62.0678 200.973 62.1611 200.6H62.8611C62.7678 200.203 62.7211 199.737 62.7211 199.2C62.7211 198.64 62.7678 198.173 62.8611 197.8C62.7678 197.403 62.7211 196.937 62.7211 196.4C62.7211 195.84 62.7678 195.373 62.8611 195C62.7678 194.603 62.7211 194.137 62.7211 193.6C62.7211 193.04 62.7678 192.573 62.8611 192.2C62.7678 191.803 62.7211 191.337 62.7211 190.8C62.7211 190.24 62.7678 189.773 62.8611 189.4H64.9611C65.0545 189.773 65.1011 190.24 65.1011 190.8C65.1011 191.337 65.0545 191.803 64.9611 192.2C65.0545 192.573 65.1011 193.04 65.1011 193.6C65.1011 194.137 65.0545 194.603 64.9611 195C65.0545 195.373 65.1011 195.84 65.1011 196.4C65.1011 196.937 65.0545 197.403 64.9611 197.8C65.0545 198.173 65.1011 198.64 65.1011 199.2C65.1011 199.737 65.0545 200.203 64.9611 200.6H65.6611C65.7545 200.973 65.8011 201.44 65.8011 202C65.8011 202.537 65.7545 203.003 65.6611 203.4H66.7111C66.6178 203.003 66.5711 202.537 66.5711 202C66.5711 201.44 66.6178 200.973 66.7111 200.6C66.6178 200.203 66.5711 199.737 66.5711 199.2C66.5711 198.64 66.6178 198.173 66.7111 197.8C66.6178 197.403 66.5711 196.937 66.5711 196.4C66.5711 195.84 66.6178 195.373 66.7111 195C66.6178 194.603 66.5711 194.137 66.5711 193.6C66.5711 193.04 66.6178 192.573 66.7111 192.2C66.6178 191.803 66.5711 191.337 66.5711 190.8C66.5711 190.24 66.6178 189.773 66.7111 189.4H69.5111C69.6045 189.773 69.6511 190.24 69.6511 190.8C69.6511 191.337 69.6045 191.803 69.5111 192.2ZM81.4248 206.2C81.5181 206.573 81.5648 207.04 81.5648 207.6C81.5648 208.137 81.5181 208.603 81.4248 209H74.4248C74.3315 208.603 74.2848 208.137 74.2848 207.6C74.2848 207.04 74.3315 206.573 74.4248 206.2H76.5248C76.4315 205.803 76.3848 205.337 76.3848 204.8C76.3848 204.24 76.4315 203.773 76.5248 203.4C76.4315 203.003 76.3848 202.537 76.3848 202C76.3848 201.44 76.4315 200.973 76.5248 200.6C76.4315 200.203 76.3848 199.737 76.3848 199.2C76.3848 198.64 76.4315 198.173 76.5248 197.8C76.4315 197.403 76.3848 196.937 76.3848 196.4C76.3848 195.84 76.4315 195.373 76.5248 195C76.4315 194.603 76.3848 194.137 76.3848 193.6C76.3848 193.04 76.4315 192.573 76.5248 192.2H74.4248C74.3315 191.803 74.2848 191.337 74.2848 190.8C74.2848 190.24 74.3315 189.773 74.4248 189.4H81.4248C81.5181 189.773 81.5648 190.24 81.5648 190.8C81.5648 191.337 81.5181 191.803 81.4248 192.2H79.3248C79.4181 192.573 79.4648 193.04 79.4648 193.6C79.4648 194.137 79.4181 194.603 79.3248 195C79.4181 195.373 79.4648 195.84 79.4648 196.4C79.4648 196.937 79.4181 197.403 79.3248 197.8C79.4181 198.173 79.4648 198.64 79.4648 199.2C79.4648 199.737 79.4181 200.203 79.3248 200.6C79.4181 200.973 79.4648 201.44 79.4648 202C79.4648 202.537 79.4181 203.003 79.3248 203.4C79.4181 203.773 79.4648 204.24 79.4648 204.8C79.4648 205.337 79.4181 205.803 79.3248 206.2H81.4248ZM97.6785 190.8C97.6785 191.337 97.6318 191.803 97.5385 192.2H93.3385C93.4318 192.573 93.4785 193.04 93.4785 193.6C93.4785 194.137 93.4318 194.603 93.3385 195C93.4318 195.373 93.4785 195.84 93.4785 196.4C93.4785 196.937 93.4318 197.403 93.3385 197.8C93.4318 198.173 93.4785 198.64 93.4785 199.2C93.4785 199.737 93.4318 200.203 93.3385 200.6C93.4318 200.973 93.4785 201.44 93.4785 202C93.4785 202.537 93.4318 203.003 93.3385 203.4C93.4318 203.773 93.4785 204.24 93.4785 204.8C93.4785 205.337 93.4318 205.803 93.3385 206.2C93.4318 206.573 93.4785 207.04 93.4785 207.6C93.4785 208.137 93.4318 208.603 93.3385 209H90.5385C90.4451 208.603 90.3985 208.137 90.3985 207.6C90.3985 207.04 90.4451 206.573 90.5385 206.2C90.4451 205.803 90.3985 205.337 90.3985 204.8C90.3985 204.24 90.4451 203.773 90.5385 203.4C90.4451 203.003 90.3985 202.537 90.3985 202C90.3985 201.44 90.4451 200.973 90.5385 200.6C90.4451 200.203 90.3985 199.737 90.3985 199.2C90.3985 198.64 90.4451 198.173 90.5385 197.8C90.4451 197.403 90.3985 196.937 90.3985 196.4C90.3985 195.84 90.4451 195.373 90.5385 195C90.4451 194.603 90.3985 194.137 90.3985 193.6C90.3985 193.04 90.4451 192.573 90.5385 192.2H86.3385C86.2451 191.803 86.1985 191.337 86.1985 190.8C86.1985 190.24 86.2451 189.773 86.3385 189.4H97.5385C97.6318 189.773 97.6785 190.24 97.6785 190.8ZM111.552 192.2C111.645 192.573 111.692 193.04 111.692 193.6C111.692 194.137 111.645 194.603 111.552 195C111.645 195.373 111.692 195.84 111.692 196.4C111.692 196.937 111.645 197.403 111.552 197.8C111.645 198.173 111.692 198.64 111.692 199.2C111.692 199.737 111.645 200.203 111.552 200.6C111.645 200.973 111.692 201.44 111.692 202C111.692 202.537 111.645 203.003 111.552 203.4C111.645 203.773 111.692 204.24 111.692 204.8C111.692 205.337 111.645 205.803 111.552 206.2C111.645 206.573 111.692 207.04 111.692 207.6C111.692 208.137 111.645 208.603 111.552 209H108.752C108.659 208.603 108.612 208.137 108.612 207.6C108.612 207.04 108.659 206.573 108.752 206.2C108.659 205.803 108.612 205.337 108.612 204.8C108.612 204.24 108.659 203.773 108.752 203.4C108.659 203.003 108.612 202.537 108.612 202C108.612 201.44 108.659 200.973 108.752 200.6H103.152C103.245 200.973 103.292 201.44 103.292 202C103.292 202.537 103.245 203.003 103.152 203.4C103.245 203.773 103.292 204.24 103.292 204.8C103.292 205.337 103.245 205.803 103.152 206.2C103.245 206.573 103.292 207.04 103.292 207.6C103.292 208.137 103.245 208.603 103.152 209H100.352C100.259 208.603 100.212 208.137 100.212 207.6C100.212 207.04 100.259 206.573 100.352 206.2C100.259 205.803 100.212 205.337 100.212 204.8C100.212 204.24 100.259 203.773 100.352 203.4C100.259 203.003 100.212 202.537 100.212 202C100.212 201.44 100.259 200.973 100.352 200.6C100.259 200.203 100.212 199.737 100.212 199.2C100.212 198.64 100.259 198.173 100.352 197.8C100.259 197.403 100.212 196.937 100.212 196.4C100.212 195.84 100.259 195.373 100.352 195C100.259 194.603 100.212 194.137 100.212 193.6C100.212 193.04 100.259 192.573 100.352 192.2C100.259 191.803 100.212 191.337 100.212 190.8C100.212 190.24 100.259 189.773 100.352 189.4H103.152C103.245 189.773 103.292 190.24 103.292 190.8C103.292 191.337 103.245 191.803 103.152 192.2C103.245 192.573 103.292 193.04 103.292 193.6C103.292 194.137 103.245 194.603 103.152 195C103.245 195.373 103.292 195.84 103.292 196.4C103.292 196.937 103.245 197.403 103.152 197.8H108.752C108.659 197.403 108.612 196.937 108.612 196.4C108.612 195.84 108.659 195.373 108.752 195C108.659 194.603 108.612 194.137 108.612 193.6C108.612 193.04 108.659 192.573 108.752 192.2C108.659 191.803 108.612 191.337 108.612 190.8C108.612 190.24 108.659 189.773 108.752 189.4H111.552C111.645 189.773 111.692 190.24 111.692 190.8C111.692 191.337 111.645 191.803 111.552 192.2ZM139.579 200.6C139.673 200.973 139.719 201.44 139.719 202C139.719 202.537 139.673 203.003 139.579 203.4C139.673 203.773 139.719 204.24 139.719 204.8C139.719 205.337 139.673 205.803 139.579 206.2H138.179C138.273 206.573 138.319 207.04 138.319 207.6C138.319 208.137 138.273 208.603 138.179 209H129.779C129.686 208.603 129.639 208.137 129.639 207.6C129.639 207.04 129.686 206.573 129.779 206.2H128.379C128.286 205.803 128.239 205.337 128.239 204.8C128.239 204.24 128.286 203.773 128.379 203.4H131.179C131.273 203.773 131.319 204.24 131.319 204.8C131.319 205.337 131.273 205.803 131.179 206.2H136.779C136.686 205.803 136.639 205.337 136.639 204.8C136.639 204.24 136.686 203.773 136.779 203.4C136.686 203.003 136.639 202.537 136.639 202C136.639 201.44 136.686 200.973 136.779 200.6H129.779C129.686 200.203 129.639 199.737 129.639 199.2C129.639 198.64 129.686 198.173 129.779 197.8H128.379C128.286 197.403 128.239 196.937 128.239 196.4C128.239 195.84 128.286 195.373 128.379 195C128.286 194.603 128.239 194.137 128.239 193.6C128.239 193.04 128.286 192.573 128.379 192.2H129.779C129.686 191.803 129.639 191.337 129.639 190.8C129.639 190.24 129.686 189.773 129.779 189.4H138.179C138.273 189.773 138.319 190.24 138.319 190.8C138.319 191.337 138.273 191.803 138.179 192.2H139.579C139.673 192.573 139.719 193.04 139.719 193.6C139.719 194.137 139.673 194.603 139.579 195H136.779C136.686 194.603 136.639 194.137 136.639 193.6C136.639 193.04 136.686 192.573 136.779 192.2H131.179C131.273 192.573 131.319 193.04 131.319 193.6C131.319 194.137 131.273 194.603 131.179 195C131.273 195.373 131.319 195.84 131.319 196.4C131.319 196.937 131.273 197.403 131.179 197.8H138.179C138.273 198.173 138.319 198.64 138.319 199.2C138.319 199.737 138.273 200.203 138.179 200.6H139.579ZM153.593 197.8C153.686 198.173 153.733 198.64 153.733 199.2C153.733 199.737 153.686 200.203 153.593 200.6C153.686 200.973 153.733 201.44 153.733 202C153.733 202.537 153.686 203.003 153.593 203.4H152.543C152.636 203.773 152.683 204.24 152.683 204.8C152.683 205.337 152.636 205.803 152.543 206.2H150.793C150.886 206.573 150.933 207.04 150.933 207.6C150.933 208.137 150.886 208.603 150.793 209H145.193C145.1 208.603 145.053 208.137 145.053 207.6C145.053 207.04 145.1 206.573 145.193 206.2H143.443C143.35 205.803 143.303 205.337 143.303 204.8C143.303 204.24 143.35 203.773 143.443 203.4H142.393C142.3 203.003 142.253 202.537 142.253 202C142.253 201.44 142.3 200.973 142.393 200.6C142.3 200.203 142.253 199.737 142.253 199.2C142.253 198.64 142.3 198.173 142.393 197.8C142.3 197.403 142.253 196.937 142.253 196.4C142.253 195.84 142.3 195.373 142.393 195H143.443C143.35 194.603 143.303 194.137 143.303 193.6C143.303 193.04 143.35 192.573 143.443 192.2H145.193C145.1 191.803 145.053 191.337 145.053 190.8C145.053 190.24 145.1 189.773 145.193 189.4H150.793C150.886 189.773 150.933 190.24 150.933 190.8C150.933 191.337 150.886 191.803 150.793 192.2H152.543C152.636 192.573 152.683 193.04 152.683 193.6C152.683 194.137 152.636 194.603 152.543 195H153.593C153.686 195.373 153.733 195.84 153.733 196.4C153.733 196.937 153.686 197.403 153.593 197.8ZM150.793 203.4C150.7 203.003 150.653 202.537 150.653 202C150.653 201.44 150.7 200.973 150.793 200.6C150.7 200.203 150.653 199.737 150.653 199.2C150.653 198.64 150.7 198.173 150.793 197.8C150.7 197.403 150.653 196.937 150.653 196.4C150.653 195.84 150.7 195.373 150.793 195H149.743C149.65 194.603 149.603 194.137 149.603 193.6C149.603 193.04 149.65 192.573 149.743 192.2H146.243C146.336 192.573 146.383 193.04 146.383 193.6C146.383 194.137 146.336 194.603 146.243 195H145.193C145.286 195.373 145.333 195.84 145.333 196.4C145.333 196.937 145.286 197.403 145.193 197.8C145.286 198.173 145.333 198.64 145.333 199.2C145.333 199.737 145.286 200.203 145.193 200.6C145.286 200.973 145.333 201.44 145.333 202C145.333 202.537 145.286 203.003 145.193 203.4H146.243C146.336 203.773 146.383 204.24 146.383 204.8C146.383 205.337 146.336 205.803 146.243 206.2H149.743C149.65 205.803 149.603 205.337 149.603 204.8C149.603 204.24 149.65 203.773 149.743 203.4H150.793ZM167.607 192.2C167.7 192.573 167.747 193.04 167.747 193.6C167.747 194.137 167.7 194.603 167.607 195C167.7 195.373 167.747 195.84 167.747 196.4C167.747 196.937 167.7 197.403 167.607 197.8C167.7 198.173 167.747 198.64 167.747 199.2C167.747 199.737 167.7 200.203 167.607 200.6C167.7 200.973 167.747 201.44 167.747 202C167.747 202.537 167.7 203.003 167.607 203.4C167.7 203.773 167.747 204.24 167.747 204.8C167.747 205.337 167.7 205.803 167.607 206.2C167.7 206.573 167.747 207.04 167.747 207.6C167.747 208.137 167.7 208.603 167.607 209H164.807C164.714 208.603 164.667 208.137 164.667 207.6C164.667 207.04 164.714 206.573 164.807 206.2C164.714 205.803 164.667 205.337 164.667 204.8C164.667 204.24 164.714 203.773 164.807 203.4C164.714 203.003 164.667 202.537 164.667 202C164.667 201.44 164.714 200.973 164.807 200.6C164.714 200.203 164.667 199.737 164.667 199.2C164.667 198.64 164.714 198.173 164.807 197.8C164.714 197.403 164.667 196.937 164.667 196.4C164.667 195.84 164.714 195.373 164.807 195H163.757C163.85 195.373 163.897 195.84 163.897 196.4C163.897 196.937 163.85 197.403 163.757 197.8C163.85 198.173 163.897 198.64 163.897 199.2C163.897 199.737 163.85 200.203 163.757 200.6H163.057C163.15 200.973 163.197 201.44 163.197 202C163.197 202.537 163.15 203.003 163.057 203.4C163.15 203.773 163.197 204.24 163.197 204.8C163.197 205.337 163.15 205.803 163.057 206.2H160.957C160.864 205.803 160.817 205.337 160.817 204.8C160.817 204.24 160.864 203.773 160.957 203.4C160.864 203.003 160.817 202.537 160.817 202C160.817 201.44 160.864 200.973 160.957 200.6H160.257C160.164 200.203 160.117 199.737 160.117 199.2C160.117 198.64 160.164 198.173 160.257 197.8C160.164 197.403 160.117 196.937 160.117 196.4C160.117 195.84 160.164 195.373 160.257 195H159.207C159.3 195.373 159.347 195.84 159.347 196.4C159.347 196.937 159.3 197.403 159.207 197.8C159.3 198.173 159.347 198.64 159.347 199.2C159.347 199.737 159.3 200.203 159.207 200.6C159.3 200.973 159.347 201.44 159.347 202C159.347 202.537 159.3 203.003 159.207 203.4C159.3 203.773 159.347 204.24 159.347 204.8C159.347 205.337 159.3 205.803 159.207 206.2C159.3 206.573 159.347 207.04 159.347 207.6C159.347 208.137 159.3 208.603 159.207 209H156.407C156.314 208.603 156.267 208.137 156.267 207.6C156.267 207.04 156.314 206.573 156.407 206.2C156.314 205.803 156.267 205.337 156.267 204.8C156.267 204.24 156.314 203.773 156.407 203.4C156.314 203.003 156.267 202.537 156.267 202C156.267 201.44 156.314 200.973 156.407 200.6C156.314 200.203 156.267 199.737 156.267 199.2C156.267 198.64 156.314 198.173 156.407 197.8C156.314 197.403 156.267 196.937 156.267 196.4C156.267 195.84 156.314 195.373 156.407 195C156.314 194.603 156.267 194.137 156.267 193.6C156.267 193.04 156.314 192.573 156.407 192.2C156.314 191.803 156.267 191.337 156.267 190.8C156.267 190.24 156.314 189.773 156.407 189.4H159.907C160 189.773 160.047 190.24 160.047 190.8C160.047 191.337 160 191.803 159.907 192.2H160.957C161.05 192.573 161.097 193.04 161.097 193.6C161.097 194.137 161.05 194.603 160.957 195H161.482C161.575 195.373 161.622 195.84 161.622 196.4C161.622 196.937 161.575 197.403 161.482 197.8H162.532C162.439 197.403 162.392 196.937 162.392 196.4C162.392 195.84 162.439 195.373 162.532 195H163.057C162.964 194.603 162.917 194.137 162.917 193.6C162.917 193.04 162.964 192.573 163.057 192.2H164.107C164.014 191.803 163.967 191.337 163.967 190.8C163.967 190.24 164.014 189.773 164.107 189.4H167.607C167.7 189.773 167.747 190.24 167.747 190.8C167.747 191.337 167.7 191.803 167.607 192.2ZM174.621 200.6C174.714 200.973 174.761 201.44 174.761 202C174.761 202.537 174.714 203.003 174.621 203.4C174.714 203.773 174.761 204.24 174.761 204.8C174.761 205.337 174.714 205.803 174.621 206.2H180.221C180.314 206.573 180.361 207.04 180.361 207.6C180.361 208.137 180.314 208.603 180.221 209H171.821C171.727 208.603 171.681 208.137 171.681 207.6C171.681 207.04 171.727 206.573 171.821 206.2C171.727 205.803 171.681 205.337 171.681 204.8C171.681 204.24 171.727 203.773 171.821 203.4C171.727 203.003 171.681 202.537 171.681 202C171.681 201.44 171.727 200.973 171.821 200.6C171.727 200.203 171.681 199.737 171.681 199.2C171.681 198.64 171.727 198.173 171.821 197.8C171.727 197.403 171.681 196.937 171.681 196.4C171.681 195.84 171.727 195.373 171.821 195C171.727 194.603 171.681 194.137 171.681 193.6C171.681 193.04 171.727 192.573 171.821 192.2C171.727 191.803 171.681 191.337 171.681 190.8C171.681 190.24 171.727 189.773 171.821 189.4H180.221C180.314 189.773 180.361 190.24 180.361 190.8C180.361 191.337 180.314 191.803 180.221 192.2H174.621C174.714 192.573 174.761 193.04 174.761 193.6C174.761 194.137 174.714 194.603 174.621 195C174.714 195.373 174.761 195.84 174.761 196.4C174.761 196.937 174.714 197.403 174.621 197.8H180.221C180.314 198.173 180.361 198.64 180.361 199.2C180.361 199.737 180.314 200.203 180.221 200.6H174.621ZM202.648 200.6C202.741 200.973 202.788 201.44 202.788 202C202.788 202.537 202.741 203.003 202.648 203.4C202.741 203.773 202.788 204.24 202.788 204.8C202.788 205.337 202.741 205.803 202.648 206.2H208.248C208.341 206.573 208.388 207.04 208.388 207.6C208.388 208.137 208.341 208.603 208.248 209H199.848C199.755 208.603 199.708 208.137 199.708 207.6C199.708 207.04 199.755 206.573 199.848 206.2C199.755 205.803 199.708 205.337 199.708 204.8C199.708 204.24 199.755 203.773 199.848 203.4C199.755 203.003 199.708 202.537 199.708 202C199.708 201.44 199.755 200.973 199.848 200.6C199.755 200.203 199.708 199.737 199.708 199.2C199.708 198.64 199.755 198.173 199.848 197.8C199.755 197.403 199.708 196.937 199.708 196.4C199.708 195.84 199.755 195.373 199.848 195C199.755 194.603 199.708 194.137 199.708 193.6C199.708 193.04 199.755 192.573 199.848 192.2C199.755 191.803 199.708 191.337 199.708 190.8C199.708 190.24 199.755 189.773 199.848 189.4H208.248C208.341 189.773 208.388 190.24 208.388 190.8C208.388 191.337 208.341 191.803 208.248 192.2H202.648C202.741 192.573 202.788 193.04 202.788 193.6C202.788 194.137 202.741 194.603 202.648 195C202.741 195.373 202.788 195.84 202.788 196.4C202.788 196.937 202.741 197.403 202.648 197.8H208.248C208.341 198.173 208.388 198.64 208.388 199.2C208.388 199.737 208.341 200.203 208.248 200.6H202.648ZM223.802 190.8C223.802 191.337 223.755 191.803 223.662 192.2H219.462C219.555 192.573 219.602 193.04 219.602 193.6C219.602 194.137 219.555 194.603 219.462 195C219.555 195.373 219.602 195.84 219.602 196.4C219.602 196.937 219.555 197.403 219.462 197.8C219.555 198.173 219.602 198.64 219.602 199.2C219.602 199.737 219.555 200.203 219.462 200.6C219.555 200.973 219.602 201.44 219.602 202C219.602 202.537 219.555 203.003 219.462 203.4C219.555 203.773 219.602 204.24 219.602 204.8C219.602 205.337 219.555 205.803 219.462 206.2C219.555 206.573 219.602 207.04 219.602 207.6C219.602 208.137 219.555 208.603 219.462 209H216.662C216.568 208.603 216.522 208.137 216.522 207.6C216.522 207.04 216.568 206.573 216.662 206.2C216.568 205.803 216.522 205.337 216.522 204.8C216.522 204.24 216.568 203.773 216.662 203.4C216.568 203.003 216.522 202.537 216.522 202C216.522 201.44 216.568 200.973 216.662 200.6C216.568 200.203 216.522 199.737 216.522 199.2C216.522 198.64 216.568 198.173 216.662 197.8C216.568 197.403 216.522 196.937 216.522 196.4C216.522 195.84 216.568 195.373 216.662 195C216.568 194.603 216.522 194.137 216.522 193.6C216.522 193.04 216.568 192.573 216.662 192.2H212.462C212.368 191.803 212.322 191.337 212.322 190.8C212.322 190.24 212.368 189.773 212.462 189.4H223.662C223.755 189.773 223.802 190.24 223.802 190.8ZM237.675 192.2C237.769 192.573 237.815 193.04 237.815 193.6C237.815 194.137 237.769 194.603 237.675 195C237.769 195.373 237.815 195.84 237.815 196.4C237.815 196.937 237.769 197.403 237.675 197.8C237.769 198.173 237.815 198.64 237.815 199.2C237.815 199.737 237.769 200.203 237.675 200.6C237.769 200.973 237.815 201.44 237.815 202C237.815 202.537 237.769 203.003 237.675 203.4C237.769 203.773 237.815 204.24 237.815 204.8C237.815 205.337 237.769 205.803 237.675 206.2C237.769 206.573 237.815 207.04 237.815 207.6C237.815 208.137 237.769 208.603 237.675 209H234.875C234.782 208.603 234.735 208.137 234.735 207.6C234.735 207.04 234.782 206.573 234.875 206.2C234.782 205.803 234.735 205.337 234.735 204.8C234.735 204.24 234.782 203.773 234.875 203.4C234.782 203.003 234.735 202.537 234.735 202C234.735 201.44 234.782 200.973 234.875 200.6H229.275C229.369 200.973 229.415 201.44 229.415 202C229.415 202.537 229.369 203.003 229.275 203.4C229.369 203.773 229.415 204.24 229.415 204.8C229.415 205.337 229.369 205.803 229.275 206.2C229.369 206.573 229.415 207.04 229.415 207.6C229.415 208.137 229.369 208.603 229.275 209H226.475C226.382 208.603 226.335 208.137 226.335 207.6C226.335 207.04 226.382 206.573 226.475 206.2C226.382 205.803 226.335 205.337 226.335 204.8C226.335 204.24 226.382 203.773 226.475 203.4C226.382 203.003 226.335 202.537 226.335 202C226.335 201.44 226.382 200.973 226.475 200.6C226.382 200.203 226.335 199.737 226.335 199.2C226.335 198.64 226.382 198.173 226.475 197.8C226.382 197.403 226.335 196.937 226.335 196.4C226.335 195.84 226.382 195.373 226.475 195C226.382 194.603 226.335 194.137 226.335 193.6C226.335 193.04 226.382 192.573 226.475 192.2C226.382 191.803 226.335 191.337 226.335 190.8C226.335 190.24 226.382 189.773 226.475 189.4H229.275C229.369 189.773 229.415 190.24 229.415 190.8C229.415 191.337 229.369 191.803 229.275 192.2C229.369 192.573 229.415 193.04 229.415 193.6C229.415 194.137 229.369 194.603 229.275 195C229.369 195.373 229.415 195.84 229.415 196.4C229.415 196.937 229.369 197.403 229.275 197.8H234.875C234.782 197.403 234.735 196.937 234.735 196.4C234.735 195.84 234.782 195.373 234.875 195C234.782 194.603 234.735 194.137 234.735 193.6C234.735 193.04 234.782 192.573 234.875 192.2C234.782 191.803 234.735 191.337 234.735 190.8C234.735 190.24 234.782 189.773 234.875 189.4H237.675C237.769 189.773 237.815 190.24 237.815 190.8C237.815 191.337 237.769 191.803 237.675 192.2Z" fill="black"/>
</svg>
