<svg width="296" height="292" viewBox="0 0 296 292" fill="none" xmlns="http://www.w3.org/2000/svg">
<rect x="0.5" y="0.5" width="295" height="291" rx="10.5" stroke="#FFEE55"/>
<path d="M133.715 52.48C133.715 54.0287 133.58 55.3753 133.311 56.52H123.211C122.941 55.3753 122.807 54.0287 122.807 52.48C122.807 50.864 122.941 49.5173 123.211 48.44H133.311C133.58 49.5173 133.715 50.864 133.715 52.48ZM123.211 88.84C123.48 89.9173 123.615 91.264 123.615 92.88C123.615 94.4287 123.48 95.7753 123.211 96.92H118.161C117.891 95.7753 117.757 94.4287 117.757 92.88C117.757 91.264 117.891 89.9173 118.161 88.84H115.131C114.861 87.6953 114.727 86.3487 114.727 84.8C114.727 83.184 114.861 81.8373 115.131 80.76C114.861 79.6153 114.727 78.2687 114.727 76.72C114.727 75.104 114.861 73.7573 115.131 72.68C114.861 71.5353 114.727 70.1887 114.727 68.64C114.727 67.024 114.861 65.6773 115.131 64.6H118.161C117.891 63.4553 117.757 62.1087 117.757 60.56C117.757 58.944 117.891 57.5973 118.161 56.52H123.211C123.48 57.5973 123.615 58.944 123.615 60.56C123.615 62.1087 123.48 63.4553 123.211 64.6C123.48 65.6773 123.615 67.024 123.615 68.64C123.615 70.1887 123.48 71.5353 123.211 72.68C123.48 73.7573 123.615 75.104 123.615 76.72C123.615 78.2687 123.48 79.6153 123.211 80.76C123.48 81.8373 123.615 83.184 123.615 84.8C123.615 86.3487 123.48 87.6953 123.211 88.84ZM141.391 72.68C141.66 73.7573 141.795 75.104 141.795 76.72C141.795 78.2687 141.66 79.6153 141.391 80.76C141.66 81.8373 141.795 83.184 141.795 84.8C141.795 86.3487 141.66 87.6953 141.391 88.84H138.361C138.63 89.9173 138.765 91.264 138.765 92.88C138.765 94.4287 138.63 95.7753 138.361 96.92H133.311C133.041 95.7753 132.907 94.4287 132.907 92.88C132.907 91.264 133.041 89.9173 133.311 88.84C133.041 87.6953 132.907 86.3487 132.907 84.8C132.907 83.184 133.041 81.8373 133.311 80.76C133.041 79.6153 132.907 78.2687 132.907 76.72C132.907 75.104 133.041 73.7573 133.311 72.68C133.041 71.5353 132.907 70.1887 132.907 68.64C132.907 67.024 133.041 65.6773 133.311 64.6C133.041 63.4553 132.907 62.1087 132.907 60.56C132.907 58.944 133.041 57.5973 133.311 56.52H138.361C138.63 57.5973 138.765 58.944 138.765 60.56C138.765 62.1087 138.63 63.4553 138.361 64.6H141.391C141.66 65.6773 141.795 67.024 141.795 68.64C141.795 70.1887 141.66 71.5353 141.391 72.68ZM122.807 100.96C122.807 99.344 122.941 97.9973 123.211 96.92H133.311C133.58 97.9973 133.715 99.344 133.715 100.96C133.715 102.509 133.58 103.855 133.311 105H123.211C122.941 103.855 122.807 102.509 122.807 100.96ZM183.244 68.64C183.244 70.1887 183.109 71.5353 182.84 72.68H178.8C179.069 73.7573 179.204 75.104 179.204 76.72C179.204 78.2687 179.069 79.6153 178.8 80.76H182.84C183.109 81.8373 183.244 83.184 183.244 84.8C183.244 86.3487 183.109 87.6953 182.84 88.84C183.109 89.9173 183.244 91.264 183.244 92.88C183.244 94.4287 183.109 95.7753 182.84 96.92H178.8C179.069 97.9973 179.204 99.344 179.204 100.96C179.204 102.509 179.069 103.855 178.8 105H158.6C158.331 103.855 158.196 102.509 158.196 100.96C158.196 99.344 158.331 97.9973 158.6 96.92H154.56C154.291 95.7753 154.156 94.4287 154.156 92.88C154.156 91.264 154.291 89.9173 154.56 88.84H162.64C162.909 89.9173 163.044 91.264 163.044 92.88C163.044 94.4287 162.909 95.7753 162.64 96.92H174.76C174.491 95.7753 174.356 94.4287 174.356 92.88C174.356 91.264 174.491 89.9173 174.76 88.84C174.491 87.6953 174.356 86.3487 174.356 84.8C174.356 83.184 174.491 81.8373 174.76 80.76H164.66C164.391 79.6153 164.256 78.2687 164.256 76.72C164.256 75.104 164.391 73.7573 164.66 72.68H174.76C174.491 71.5353 174.356 70.1887 174.356 68.64C174.356 67.024 174.491 65.6773 174.76 64.6C174.491 63.4553 174.356 62.1087 174.356 60.56C174.356 58.944 174.491 57.5973 174.76 56.52H162.64C162.909 57.5973 163.044 58.944 163.044 60.56C163.044 62.1087 162.909 63.4553 162.64 64.6H154.56C154.291 63.4553 154.156 62.1087 154.156 60.56C154.156 58.944 154.291 57.5973 154.56 56.52H158.6C158.331 55.3753 158.196 54.0287 158.196 52.48C158.196 50.864 158.331 49.5173 158.6 48.44H178.8C179.069 49.5173 179.204 50.864 179.204 52.48C179.204 54.0287 179.069 55.3753 178.8 56.52H182.84C183.109 57.5973 183.244 58.944 183.244 60.56C183.244 62.1087 183.109 63.4553 182.84 64.6C183.109 65.6773 183.244 67.024 183.244 68.64Z" fill="#FFEE55"/>
<path d="M76.518 168.4C76.6113 168.773 76.658 169.24 76.658 169.8C76.658 170.337 76.6113 170.803 76.518 171.2H75.118C75.2113 171.573 75.258 172.04 75.258 172.6C75.258 173.137 75.2113 173.603 75.118 174H68.118C68.0246 173.603 67.978 173.137 67.978 172.6C67.978 172.04 68.0246 171.573 68.118 171.2H66.718C66.6246 170.803 66.578 170.337 66.578 169.8C66.578 169.24 66.6246 168.773 66.718 168.4H65.318C65.2246 168.003 65.178 167.537 65.178 167C65.178 166.44 65.2246 165.973 65.318 165.6C65.2246 165.203 65.178 164.737 65.178 164.2C65.178 163.64 65.2246 163.173 65.318 162.8C65.2246 162.403 65.178 161.937 65.178 161.4C65.178 160.84 65.2246 160.373 65.318 160H66.718C66.6246 159.603 66.578 159.137 66.578 158.6C66.578 158.04 66.6246 157.573 66.718 157.2H68.118C68.0246 156.803 67.978 156.337 67.978 155.8C67.978 155.24 68.0246 154.773 68.118 154.4H75.118C75.2113 154.773 75.258 155.24 75.258 155.8C75.258 156.337 75.2113 156.803 75.118 157.2H76.518C76.6113 157.573 76.658 158.04 76.658 158.6C76.658 159.137 76.6113 159.603 76.518 160H73.718C73.6246 159.603 73.578 159.137 73.578 158.6C73.578 158.04 73.6246 157.573 73.718 157.2H69.518C69.6113 157.573 69.658 158.04 69.658 158.6C69.658 159.137 69.6113 159.603 69.518 160H68.118C68.2113 160.373 68.258 160.84 68.258 161.4C68.258 161.937 68.2113 162.403 68.118 162.8C68.2113 163.173 68.258 163.64 68.258 164.2C68.258 164.737 68.2113 165.203 68.118 165.6C68.2113 165.973 68.258 166.44 68.258 167C68.258 167.537 68.2113 168.003 68.118 168.4H69.518C69.6113 168.773 69.658 169.24 69.658 169.8C69.658 170.337 69.6113 170.803 69.518 171.2H73.718C73.6246 170.803 73.578 170.337 73.578 169.8C73.578 169.24 73.6246 168.773 73.718 168.4H76.518ZM90.5316 162.8C90.625 163.173 90.6716 163.64 90.6716 164.2C90.6716 164.737 90.625 165.203 90.5316 165.6C90.625 165.973 90.6716 166.44 90.6716 167C90.6716 167.537 90.625 168.003 90.5316 168.4H89.4816C89.575 168.773 89.6216 169.24 89.6216 169.8C89.6216 170.337 89.575 170.803 89.4816 171.2H87.7316C87.825 171.573 87.8716 172.04 87.8716 172.6C87.8716 173.137 87.825 173.603 87.7316 174H82.1316C82.0383 173.603 81.9916 173.137 81.9916 172.6C81.9916 172.04 82.0383 171.573 82.1316 171.2H80.3816C80.2883 170.803 80.2416 170.337 80.2416 169.8C80.2416 169.24 80.2883 168.773 80.3816 168.4H79.3316C79.2383 168.003 79.1916 167.537 79.1916 167C79.1916 166.44 79.2383 165.973 79.3316 165.6C79.2383 165.203 79.1916 164.737 79.1916 164.2C79.1916 163.64 79.2383 163.173 79.3316 162.8C79.2383 162.403 79.1916 161.937 79.1916 161.4C79.1916 160.84 79.2383 160.373 79.3316 160H80.3816C80.2883 159.603 80.2416 159.137 80.2416 158.6C80.2416 158.04 80.2883 157.573 80.3816 157.2H82.1316C82.0383 156.803 81.9916 156.337 81.9916 155.8C81.9916 155.24 82.0383 154.773 82.1316 154.4H87.7316C87.825 154.773 87.8716 155.24 87.8716 155.8C87.8716 156.337 87.825 156.803 87.7316 157.2H89.4816C89.575 157.573 89.6216 158.04 89.6216 158.6C89.6216 159.137 89.575 159.603 89.4816 160H90.5316C90.625 160.373 90.6716 160.84 90.6716 161.4C90.6716 161.937 90.625 162.403 90.5316 162.8ZM87.7316 168.4C87.6383 168.003 87.5916 167.537 87.5916 167C87.5916 166.44 87.6383 165.973 87.7316 165.6C87.6383 165.203 87.5916 164.737 87.5916 164.2C87.5916 163.64 87.6383 163.173 87.7316 162.8C87.6383 162.403 87.5916 161.937 87.5916 161.4C87.5916 160.84 87.6383 160.373 87.7316 160H86.6816C86.5883 159.603 86.5416 159.137 86.5416 158.6C86.5416 158.04 86.5883 157.573 86.6816 157.2H83.1816C83.275 157.573 83.3216 158.04 83.3216 158.6C83.3216 159.137 83.275 159.603 83.1816 160H82.1316C82.225 160.373 82.2716 160.84 82.2716 161.4C82.2716 161.937 82.225 162.403 82.1316 162.8C82.225 163.173 82.2716 163.64 82.2716 164.2C82.2716 164.737 82.225 165.203 82.1316 165.6C82.225 165.973 82.2716 166.44 82.2716 167C82.2716 167.537 82.225 168.003 82.1316 168.4H83.1816C83.275 168.773 83.3216 169.24 83.3216 169.8C83.3216 170.337 83.275 170.803 83.1816 171.2H86.6816C86.5883 170.803 86.5416 170.337 86.5416 169.8C86.5416 169.24 86.5883 168.773 86.6816 168.4H87.7316ZM104.545 157.2C104.639 157.573 104.685 158.04 104.685 158.6C104.685 159.137 104.639 159.603 104.545 160C104.639 160.373 104.685 160.84 104.685 161.4C104.685 161.937 104.639 162.403 104.545 162.8C104.639 163.173 104.685 163.64 104.685 164.2C104.685 164.737 104.639 165.203 104.545 165.6C104.639 165.973 104.685 166.44 104.685 167C104.685 167.537 104.639 168.003 104.545 168.4C104.639 168.773 104.685 169.24 104.685 169.8C104.685 170.337 104.639 170.803 104.545 171.2C104.639 171.573 104.685 172.04 104.685 172.6C104.685 173.137 104.639 173.603 104.545 174H101.745C101.652 173.603 101.605 173.137 101.605 172.6C101.605 172.04 101.652 171.573 101.745 171.2H99.9953C99.902 170.803 99.8553 170.337 99.8553 169.8C99.8553 169.24 99.902 168.773 99.9953 168.4H98.9453C98.852 168.003 98.8053 167.537 98.8053 167C98.8053 166.44 98.852 165.973 98.9453 165.6H97.5453C97.452 165.203 97.4053 164.737 97.4053 164.2C97.4053 163.64 97.452 163.173 97.5453 162.8H96.1453C96.2386 163.173 96.2853 163.64 96.2853 164.2C96.2853 164.737 96.2386 165.203 96.1453 165.6C96.2386 165.973 96.2853 166.44 96.2853 167C96.2853 167.537 96.2386 168.003 96.1453 168.4C96.2386 168.773 96.2853 169.24 96.2853 169.8C96.2853 170.337 96.2386 170.803 96.1453 171.2C96.2386 171.573 96.2853 172.04 96.2853 172.6C96.2853 173.137 96.2386 173.603 96.1453 174H93.3453C93.252 173.603 93.2053 173.137 93.2053 172.6C93.2053 172.04 93.252 171.573 93.3453 171.2C93.252 170.803 93.2053 170.337 93.2053 169.8C93.2053 169.24 93.252 168.773 93.3453 168.4C93.252 168.003 93.2053 167.537 93.2053 167C93.2053 166.44 93.252 165.973 93.3453 165.6C93.252 165.203 93.2053 164.737 93.2053 164.2C93.2053 163.64 93.252 163.173 93.3453 162.8C93.252 162.403 93.2053 161.937 93.2053 161.4C93.2053 160.84 93.252 160.373 93.3453 160C93.252 159.603 93.2053 159.137 93.2053 158.6C93.2053 158.04 93.252 157.573 93.3453 157.2C93.252 156.803 93.2053 156.337 93.2053 155.8C93.2053 155.24 93.252 154.773 93.3453 154.4H96.8453C96.9386 154.773 96.9853 155.24 96.9853 155.8C96.9853 156.337 96.9386 156.803 96.8453 157.2H97.8953C97.9886 157.573 98.0353 158.04 98.0353 158.6C98.0353 159.137 97.9886 159.603 97.8953 160H98.9453C99.0386 160.373 99.0853 160.84 99.0853 161.4C99.0853 161.937 99.0386 162.403 98.9453 162.8H100.345C100.439 163.173 100.485 163.64 100.485 164.2C100.485 164.737 100.439 165.203 100.345 165.6H101.745C101.652 165.203 101.605 164.737 101.605 164.2C101.605 163.64 101.652 163.173 101.745 162.8C101.652 162.403 101.605 161.937 101.605 161.4C101.605 160.84 101.652 160.373 101.745 160C101.652 159.603 101.605 159.137 101.605 158.6C101.605 158.04 101.652 157.573 101.745 157.2C101.652 156.803 101.605 156.337 101.605 155.8C101.605 155.24 101.652 154.773 101.745 154.4H104.545C104.639 154.773 104.685 155.24 104.685 155.8C104.685 156.337 104.639 156.803 104.545 157.2ZM118.559 157.2C118.652 157.573 118.699 158.04 118.699 158.6C118.699 159.137 118.652 159.603 118.559 160C118.652 160.373 118.699 160.84 118.699 161.4C118.699 161.937 118.652 162.403 118.559 162.8C118.652 163.173 118.699 163.64 118.699 164.2C118.699 164.737 118.652 165.203 118.559 165.6C118.652 165.973 118.699 166.44 118.699 167C118.699 167.537 118.652 168.003 118.559 168.4C118.652 168.773 118.699 169.24 118.699 169.8C118.699 170.337 118.652 170.803 118.559 171.2C118.652 171.573 118.699 172.04 118.699 172.6C118.699 173.137 118.652 173.603 118.559 174H115.759C115.666 173.603 115.619 173.137 115.619 172.6C115.619 172.04 115.666 171.573 115.759 171.2H114.009C113.916 170.803 113.869 170.337 113.869 169.8C113.869 169.24 113.916 168.773 114.009 168.4H112.959C112.866 168.003 112.819 167.537 112.819 167C112.819 166.44 112.866 165.973 112.959 165.6H111.559C111.466 165.203 111.419 164.737 111.419 164.2C111.419 163.64 111.466 163.173 111.559 162.8H110.159C110.252 163.173 110.299 163.64 110.299 164.2C110.299 164.737 110.252 165.203 110.159 165.6C110.252 165.973 110.299 166.44 110.299 167C110.299 167.537 110.252 168.003 110.159 168.4C110.252 168.773 110.299 169.24 110.299 169.8C110.299 170.337 110.252 170.803 110.159 171.2C110.252 171.573 110.299 172.04 110.299 172.6C110.299 173.137 110.252 173.603 110.159 174H107.359C107.266 173.603 107.219 173.137 107.219 172.6C107.219 172.04 107.266 171.573 107.359 171.2C107.266 170.803 107.219 170.337 107.219 169.8C107.219 169.24 107.266 168.773 107.359 168.4C107.266 168.003 107.219 167.537 107.219 167C107.219 166.44 107.266 165.973 107.359 165.6C107.266 165.203 107.219 164.737 107.219 164.2C107.219 163.64 107.266 163.173 107.359 162.8C107.266 162.403 107.219 161.937 107.219 161.4C107.219 160.84 107.266 160.373 107.359 160C107.266 159.603 107.219 159.137 107.219 158.6C107.219 158.04 107.266 157.573 107.359 157.2C107.266 156.803 107.219 156.337 107.219 155.8C107.219 155.24 107.266 154.773 107.359 154.4H110.859C110.952 154.773 110.999 155.24 110.999 155.8C110.999 156.337 110.952 156.803 110.859 157.2H111.909C112.002 157.573 112.049 158.04 112.049 158.6C112.049 159.137 112.002 159.603 111.909 160H112.959C113.052 160.373 113.099 160.84 113.099 161.4C113.099 161.937 113.052 162.403 112.959 162.8H114.359C114.452 163.173 114.499 163.64 114.499 164.2C114.499 164.737 114.452 165.203 114.359 165.6H115.759C115.666 165.203 115.619 164.737 115.619 164.2C115.619 163.64 115.666 163.173 115.759 162.8C115.666 162.403 115.619 161.937 115.619 161.4C115.619 160.84 115.666 160.373 115.759 160C115.666 159.603 115.619 159.137 115.619 158.6C115.619 158.04 115.666 157.573 115.759 157.2C115.666 156.803 115.619 156.337 115.619 155.8C115.619 155.24 115.666 154.773 115.759 154.4H118.559C118.652 154.773 118.699 155.24 118.699 155.8C118.699 156.337 118.652 156.803 118.559 157.2ZM125.573 165.6C125.666 165.973 125.713 166.44 125.713 167C125.713 167.537 125.666 168.003 125.573 168.4C125.666 168.773 125.713 169.24 125.713 169.8C125.713 170.337 125.666 170.803 125.573 171.2H131.173C131.266 171.573 131.313 172.04 131.313 172.6C131.313 173.137 131.266 173.603 131.173 174H122.773C122.679 173.603 122.633 173.137 122.633 172.6C122.633 172.04 122.679 171.573 122.773 171.2C122.679 170.803 122.633 170.337 122.633 169.8C122.633 169.24 122.679 168.773 122.773 168.4C122.679 168.003 122.633 167.537 122.633 167C122.633 166.44 122.679 165.973 122.773 165.6C122.679 165.203 122.633 164.737 122.633 164.2C122.633 163.64 122.679 163.173 122.773 162.8C122.679 162.403 122.633 161.937 122.633 161.4C122.633 160.84 122.679 160.373 122.773 160C122.679 159.603 122.633 159.137 122.633 158.6C122.633 158.04 122.679 157.573 122.773 157.2C122.679 156.803 122.633 156.337 122.633 155.8C122.633 155.24 122.679 154.773 122.773 154.4H131.173C131.266 154.773 131.313 155.24 131.313 155.8C131.313 156.337 131.266 156.803 131.173 157.2H125.573C125.666 157.573 125.713 158.04 125.713 158.6C125.713 159.137 125.666 159.603 125.573 160C125.666 160.373 125.713 160.84 125.713 161.4C125.713 161.937 125.666 162.403 125.573 162.8H131.173C131.266 163.173 131.313 163.64 131.313 164.2C131.313 164.737 131.266 165.203 131.173 165.6H125.573ZM146.586 168.4C146.68 168.773 146.726 169.24 146.726 169.8C146.726 170.337 146.68 170.803 146.586 171.2H145.186C145.28 171.573 145.326 172.04 145.326 172.6C145.326 173.137 145.28 173.603 145.186 174H138.186C138.093 173.603 138.046 173.137 138.046 172.6C138.046 172.04 138.093 171.573 138.186 171.2H136.786C136.693 170.803 136.646 170.337 136.646 169.8C136.646 169.24 136.693 168.773 136.786 168.4H135.386C135.293 168.003 135.246 167.537 135.246 167C135.246 166.44 135.293 165.973 135.386 165.6C135.293 165.203 135.246 164.737 135.246 164.2C135.246 163.64 135.293 163.173 135.386 162.8C135.293 162.403 135.246 161.937 135.246 161.4C135.246 160.84 135.293 160.373 135.386 160H136.786C136.693 159.603 136.646 159.137 136.646 158.6C136.646 158.04 136.693 157.573 136.786 157.2H138.186C138.093 156.803 138.046 156.337 138.046 155.8C138.046 155.24 138.093 154.773 138.186 154.4H145.186C145.28 154.773 145.326 155.24 145.326 155.8C145.326 156.337 145.28 156.803 145.186 157.2H146.586C146.68 157.573 146.726 158.04 146.726 158.6C146.726 159.137 146.68 159.603 146.586 160H143.786C143.693 159.603 143.646 159.137 143.646 158.6C143.646 158.04 143.693 157.573 143.786 157.2H139.586C139.68 157.573 139.726 158.04 139.726 158.6C139.726 159.137 139.68 159.603 139.586 160H138.186C138.28 160.373 138.326 160.84 138.326 161.4C138.326 161.937 138.28 162.403 138.186 162.8C138.28 163.173 138.326 163.64 138.326 164.2C138.326 164.737 138.28 165.203 138.186 165.6C138.28 165.973 138.326 166.44 138.326 167C138.326 167.537 138.28 168.003 138.186 168.4H139.586C139.68 168.773 139.726 169.24 139.726 169.8C139.726 170.337 139.68 170.803 139.586 171.2H143.786C143.693 170.803 143.646 170.337 143.646 169.8C143.646 169.24 143.693 168.773 143.786 168.4H146.586ZM160.74 155.8C160.74 156.337 160.693 156.803 160.6 157.2H156.4C156.493 157.573 156.54 158.04 156.54 158.6C156.54 159.137 156.493 159.603 156.4 160C156.493 160.373 156.54 160.84 156.54 161.4C156.54 161.937 156.493 162.403 156.4 162.8C156.493 163.173 156.54 163.64 156.54 164.2C156.54 164.737 156.493 165.203 156.4 165.6C156.493 165.973 156.54 166.44 156.54 167C156.54 167.537 156.493 168.003 156.4 168.4C156.493 168.773 156.54 169.24 156.54 169.8C156.54 170.337 156.493 170.803 156.4 171.2C156.493 171.573 156.54 172.04 156.54 172.6C156.54 173.137 156.493 173.603 156.4 174H153.6C153.507 173.603 153.46 173.137 153.46 172.6C153.46 172.04 153.507 171.573 153.6 171.2C153.507 170.803 153.46 170.337 153.46 169.8C153.46 169.24 153.507 168.773 153.6 168.4C153.507 168.003 153.46 167.537 153.46 167C153.46 166.44 153.507 165.973 153.6 165.6C153.507 165.203 153.46 164.737 153.46 164.2C153.46 163.64 153.507 163.173 153.6 162.8C153.507 162.403 153.46 161.937 153.46 161.4C153.46 160.84 153.507 160.373 153.6 160C153.507 159.603 153.46 159.137 153.46 158.6C153.46 158.04 153.507 157.573 153.6 157.2H149.4C149.307 156.803 149.26 156.337 149.26 155.8C149.26 155.24 149.307 154.773 149.4 154.4H160.6C160.693 154.773 160.74 155.24 160.74 155.8ZM188.767 155.8C188.767 156.337 188.721 156.803 188.627 157.2C188.721 157.573 188.767 158.04 188.767 158.6C188.767 159.137 188.721 159.603 188.627 160H187.227C187.321 160.373 187.367 160.84 187.367 161.4C187.367 161.937 187.321 162.403 187.227 162.8H185.827C185.921 163.173 185.967 163.64 185.967 164.2C185.967 164.737 185.921 165.203 185.827 165.6H184.427C184.521 165.973 184.567 166.44 184.567 167C184.567 167.537 184.521 168.003 184.427 168.4C184.521 168.773 184.567 169.24 184.567 169.8C184.567 170.337 184.521 170.803 184.427 171.2C184.521 171.573 184.567 172.04 184.567 172.6C184.567 173.137 184.521 173.603 184.427 174H181.627C181.534 173.603 181.487 173.137 181.487 172.6C181.487 172.04 181.534 171.573 181.627 171.2C181.534 170.803 181.487 170.337 181.487 169.8C181.487 169.24 181.534 168.773 181.627 168.4C181.534 168.003 181.487 167.537 181.487 167C181.487 166.44 181.534 165.973 181.627 165.6H180.227C180.134 165.203 180.087 164.737 180.087 164.2C180.087 163.64 180.134 163.173 180.227 162.8H178.827C178.734 162.403 178.687 161.937 178.687 161.4C178.687 160.84 178.734 160.373 178.827 160H177.427C177.334 159.603 177.287 159.137 177.287 158.6C177.287 158.04 177.334 157.573 177.427 157.2C177.334 156.803 177.287 156.337 177.287 155.8C177.287 155.24 177.334 154.773 177.427 154.4H180.227C180.321 154.773 180.367 155.24 180.367 155.8C180.367 156.337 180.321 156.803 180.227 157.2C180.321 157.573 180.367 158.04 180.367 158.6C180.367 159.137 180.321 159.603 180.227 160H181.627C181.721 160.373 181.767 160.84 181.767 161.4C181.767 161.937 181.721 162.403 181.627 162.8H184.427C184.334 162.403 184.287 161.937 184.287 161.4C184.287 160.84 184.334 160.373 184.427 160H185.827C185.734 159.603 185.687 159.137 185.687 158.6C185.687 158.04 185.734 157.573 185.827 157.2C185.734 156.803 185.687 156.337 185.687 155.8C185.687 155.24 185.734 154.773 185.827 154.4H188.627C188.721 154.773 188.767 155.24 188.767 155.8ZM202.641 162.8C202.734 163.173 202.781 163.64 202.781 164.2C202.781 164.737 202.734 165.203 202.641 165.6C202.734 165.973 202.781 166.44 202.781 167C202.781 167.537 202.734 168.003 202.641 168.4H201.591C201.684 168.773 201.731 169.24 201.731 169.8C201.731 170.337 201.684 170.803 201.591 171.2H199.841C199.934 171.573 199.981 172.04 199.981 172.6C199.981 173.137 199.934 173.603 199.841 174H194.241C194.148 173.603 194.101 173.137 194.101 172.6C194.101 172.04 194.148 171.573 194.241 171.2H192.491C192.398 170.803 192.351 170.337 192.351 169.8C192.351 169.24 192.398 168.773 192.491 168.4H191.441C191.348 168.003 191.301 167.537 191.301 167C191.301 166.44 191.348 165.973 191.441 165.6C191.348 165.203 191.301 164.737 191.301 164.2C191.301 163.64 191.348 163.173 191.441 162.8C191.348 162.403 191.301 161.937 191.301 161.4C191.301 160.84 191.348 160.373 191.441 160H192.491C192.398 159.603 192.351 159.137 192.351 158.6C192.351 158.04 192.398 157.573 192.491 157.2H194.241C194.148 156.803 194.101 156.337 194.101 155.8C194.101 155.24 194.148 154.773 194.241 154.4H199.841C199.934 154.773 199.981 155.24 199.981 155.8C199.981 156.337 199.934 156.803 199.841 157.2H201.591C201.684 157.573 201.731 158.04 201.731 158.6C201.731 159.137 201.684 159.603 201.591 160H202.641C202.734 160.373 202.781 160.84 202.781 161.4C202.781 161.937 202.734 162.403 202.641 162.8ZM199.841 168.4C199.748 168.003 199.701 167.537 199.701 167C199.701 166.44 199.748 165.973 199.841 165.6C199.748 165.203 199.701 164.737 199.701 164.2C199.701 163.64 199.748 163.173 199.841 162.8C199.748 162.403 199.701 161.937 199.701 161.4C199.701 160.84 199.748 160.373 199.841 160H198.791C198.698 159.603 198.651 159.137 198.651 158.6C198.651 158.04 198.698 157.573 198.791 157.2H195.291C195.384 157.573 195.431 158.04 195.431 158.6C195.431 159.137 195.384 159.603 195.291 160H194.241C194.334 160.373 194.381 160.84 194.381 161.4C194.381 161.937 194.334 162.403 194.241 162.8C194.334 163.173 194.381 163.64 194.381 164.2C194.381 164.737 194.334 165.203 194.241 165.6C194.334 165.973 194.381 166.44 194.381 167C194.381 167.537 194.334 168.003 194.241 168.4H195.291C195.384 168.773 195.431 169.24 195.431 169.8C195.431 170.337 195.384 170.803 195.291 171.2H198.791C198.698 170.803 198.651 170.337 198.651 169.8C198.651 169.24 198.698 168.773 198.791 168.4H199.841ZM216.655 157.2C216.748 157.573 216.795 158.04 216.795 158.6C216.795 159.137 216.748 159.603 216.655 160C216.748 160.373 216.795 160.84 216.795 161.4C216.795 161.937 216.748 162.403 216.655 162.8C216.748 163.173 216.795 163.64 216.795 164.2C216.795 164.737 216.748 165.203 216.655 165.6C216.748 165.973 216.795 166.44 216.795 167C216.795 167.537 216.748 168.003 216.655 168.4C216.748 168.773 216.795 169.24 216.795 169.8C216.795 170.337 216.748 170.803 216.655 171.2H215.255C215.348 171.573 215.395 172.04 215.395 172.6C215.395 173.137 215.348 173.603 215.255 174H206.855C206.761 173.603 206.715 173.137 206.715 172.6C206.715 172.04 206.761 171.573 206.855 171.2H205.455C205.361 170.803 205.315 170.337 205.315 169.8C205.315 169.24 205.361 168.773 205.455 168.4C205.361 168.003 205.315 167.537 205.315 167C205.315 166.44 205.361 165.973 205.455 165.6C205.361 165.203 205.315 164.737 205.315 164.2C205.315 163.64 205.361 163.173 205.455 162.8C205.361 162.403 205.315 161.937 205.315 161.4C205.315 160.84 205.361 160.373 205.455 160C205.361 159.603 205.315 159.137 205.315 158.6C205.315 158.04 205.361 157.573 205.455 157.2C205.361 156.803 205.315 156.337 205.315 155.8C205.315 155.24 205.361 154.773 205.455 154.4H208.255C208.348 154.773 208.395 155.24 208.395 155.8C208.395 156.337 208.348 156.803 208.255 157.2C208.348 157.573 208.395 158.04 208.395 158.6C208.395 159.137 208.348 159.603 208.255 160C208.348 160.373 208.395 160.84 208.395 161.4C208.395 161.937 208.348 162.403 208.255 162.8C208.348 163.173 208.395 163.64 208.395 164.2C208.395 164.737 208.348 165.203 208.255 165.6C208.348 165.973 208.395 166.44 208.395 167C208.395 167.537 208.348 168.003 208.255 168.4C208.348 168.773 208.395 169.24 208.395 169.8C208.395 170.337 208.348 170.803 208.255 171.2H213.855C213.761 170.803 213.715 170.337 213.715 169.8C213.715 169.24 213.761 168.773 213.855 168.4C213.761 168.003 213.715 167.537 213.715 167C213.715 166.44 213.761 165.973 213.855 165.6C213.761 165.203 213.715 164.737 213.715 164.2C213.715 163.64 213.761 163.173 213.855 162.8C213.761 162.403 213.715 161.937 213.715 161.4C213.715 160.84 213.761 160.373 213.855 160C213.761 159.603 213.715 159.137 213.715 158.6C213.715 158.04 213.761 157.573 213.855 157.2C213.761 156.803 213.715 156.337 213.715 155.8C213.715 155.24 213.761 154.773 213.855 154.4H216.655C216.748 154.773 216.795 155.24 216.795 155.8C216.795 156.337 216.748 156.803 216.655 157.2ZM230.668 171.2C230.762 171.573 230.808 172.04 230.808 172.6C230.808 173.137 230.762 173.603 230.668 174H227.868C227.775 173.603 227.728 173.137 227.728 172.6C227.728 172.04 227.775 171.573 227.868 171.2H226.818C226.725 170.803 226.678 170.337 226.678 169.8C226.678 169.24 226.725 168.773 226.818 168.4H225.768C225.675 168.003 225.628 167.537 225.628 167C225.628 166.44 225.675 165.973 225.768 165.6H222.268C222.362 165.973 222.408 166.44 222.408 167C222.408 167.537 222.362 168.003 222.268 168.4C222.362 168.773 222.408 169.24 222.408 169.8C222.408 170.337 222.362 170.803 222.268 171.2C222.362 171.573 222.408 172.04 222.408 172.6C222.408 173.137 222.362 173.603 222.268 174H219.468C219.375 173.603 219.328 173.137 219.328 172.6C219.328 172.04 219.375 171.573 219.468 171.2C219.375 170.803 219.328 170.337 219.328 169.8C219.328 169.24 219.375 168.773 219.468 168.4C219.375 168.003 219.328 167.537 219.328 167C219.328 166.44 219.375 165.973 219.468 165.6C219.375 165.203 219.328 164.737 219.328 164.2C219.328 163.64 219.375 163.173 219.468 162.8C219.375 162.403 219.328 161.937 219.328 161.4C219.328 160.84 219.375 160.373 219.468 160C219.375 159.603 219.328 159.137 219.328 158.6C219.328 158.04 219.375 157.573 219.468 157.2C219.375 156.803 219.328 156.337 219.328 155.8C219.328 155.24 219.375 154.773 219.468 154.4H229.268C229.362 154.773 229.408 155.24 229.408 155.8C229.408 156.337 229.362 156.803 229.268 157.2H230.668C230.762 157.573 230.808 158.04 230.808 158.6C230.808 159.137 230.762 159.603 230.668 160H229.968C230.062 160.373 230.108 160.84 230.108 161.4C230.108 161.937 230.062 162.403 229.968 162.8H227.868C227.962 163.173 228.008 163.64 228.008 164.2C228.008 164.737 227.962 165.203 227.868 165.6H228.568C228.662 165.973 228.708 166.44 228.708 167C228.708 167.537 228.662 168.003 228.568 168.4H229.618C229.712 168.773 229.758 169.24 229.758 169.8C229.758 170.337 229.712 170.803 229.618 171.2H230.668ZM227.168 162.8C227.075 162.403 227.028 161.937 227.028 161.4C227.028 160.84 227.075 160.373 227.168 160C227.075 159.603 227.028 159.137 227.028 158.6C227.028 158.04 227.075 157.573 227.168 157.2H222.268C222.362 157.573 222.408 158.04 222.408 158.6C222.408 159.137 222.362 159.603 222.268 160C222.362 160.373 222.408 160.84 222.408 161.4C222.408 161.937 222.362 162.403 222.268 162.8H227.168ZM111.552 192.2C111.645 192.573 111.692 193.04 111.692 193.6C111.692 194.137 111.645 194.603 111.552 195C111.645 195.373 111.692 195.84 111.692 196.4C111.692 196.937 111.645 197.403 111.552 197.8C111.645 198.173 111.692 198.64 111.692 199.2C111.692 199.737 111.645 200.203 111.552 200.6H110.502C110.595 200.973 110.642 201.44 110.642 202C110.642 202.537 110.595 203.003 110.502 203.4C110.595 203.773 110.642 204.24 110.642 204.8C110.642 205.337 110.595 205.803 110.502 206.2H109.802C109.895 206.573 109.942 207.04 109.942 207.6C109.942 208.137 109.895 208.603 109.802 209H107.702C107.609 208.603 107.562 208.137 107.562 207.6C107.562 207.04 107.609 206.573 107.702 206.2H107.002C106.909 205.803 106.862 205.337 106.862 204.8C106.862 204.24 106.909 203.773 107.002 203.4H104.902C104.995 203.773 105.042 204.24 105.042 204.8C105.042 205.337 104.995 205.803 104.902 206.2H104.202C104.295 206.573 104.342 207.04 104.342 207.6C104.342 208.137 104.295 208.603 104.202 209H102.102C102.009 208.603 101.962 208.137 101.962 207.6C101.962 207.04 102.009 206.573 102.102 206.2H101.402C101.309 205.803 101.262 205.337 101.262 204.8C101.262 204.24 101.309 203.773 101.402 203.4C101.309 203.003 101.262 202.537 101.262 202C101.262 201.44 101.309 200.973 101.402 200.6H100.352C100.259 200.203 100.212 199.737 100.212 199.2C100.212 198.64 100.259 198.173 100.352 197.8C100.259 197.403 100.212 196.937 100.212 196.4C100.212 195.84 100.259 195.373 100.352 195C100.259 194.603 100.212 194.137 100.212 193.6C100.212 193.04 100.259 192.573 100.352 192.2C100.259 191.803 100.212 191.337 100.212 190.8C100.212 190.24 100.259 189.773 100.352 189.4H103.152C103.245 189.773 103.292 190.24 103.292 190.8C103.292 191.337 103.245 191.803 103.152 192.2C103.245 192.573 103.292 193.04 103.292 193.6C103.292 194.137 103.245 194.603 103.152 195C103.245 195.373 103.292 195.84 103.292 196.4C103.292 196.937 103.245 197.403 103.152 197.8C103.245 198.173 103.292 198.64 103.292 199.2C103.292 199.737 103.245 200.203 103.152 200.6C103.245 200.973 103.292 201.44 103.292 202C103.292 202.537 103.245 203.003 103.152 203.4H104.202C104.109 203.003 104.062 202.537 104.062 202C104.062 201.44 104.109 200.973 104.202 200.6H104.902C104.809 200.203 104.762 199.737 104.762 199.2C104.762 198.64 104.809 198.173 104.902 197.8C104.809 197.403 104.762 196.937 104.762 196.4C104.762 195.84 104.809 195.373 104.902 195C104.809 194.603 104.762 194.137 104.762 193.6C104.762 193.04 104.809 192.573 104.902 192.2C104.809 191.803 104.762 191.337 104.762 190.8C104.762 190.24 104.809 189.773 104.902 189.4H107.002C107.095 189.773 107.142 190.24 107.142 190.8C107.142 191.337 107.095 191.803 107.002 192.2C107.095 192.573 107.142 193.04 107.142 193.6C107.142 194.137 107.095 194.603 107.002 195C107.095 195.373 107.142 195.84 107.142 196.4C107.142 196.937 107.095 197.403 107.002 197.8C107.095 198.173 107.142 198.64 107.142 199.2C107.142 199.737 107.095 200.203 107.002 200.6H107.702C107.795 200.973 107.842 201.44 107.842 202C107.842 202.537 107.795 203.003 107.702 203.4H108.752C108.659 203.003 108.612 202.537 108.612 202C108.612 201.44 108.659 200.973 108.752 200.6C108.659 200.203 108.612 199.737 108.612 199.2C108.612 198.64 108.659 198.173 108.752 197.8C108.659 197.403 108.612 196.937 108.612 196.4C108.612 195.84 108.659 195.373 108.752 195C108.659 194.603 108.612 194.137 108.612 193.6C108.612 193.04 108.659 192.573 108.752 192.2C108.659 191.803 108.612 191.337 108.612 190.8C108.612 190.24 108.659 189.773 108.752 189.4H111.552C111.645 189.773 111.692 190.24 111.692 190.8C111.692 191.337 111.645 191.803 111.552 192.2ZM125.706 204.8C125.706 205.337 125.659 205.803 125.566 206.2C125.659 206.573 125.706 207.04 125.706 207.6C125.706 208.137 125.659 208.603 125.566 209H122.766C122.672 208.603 122.626 208.137 122.626 207.6C122.626 207.04 122.672 206.573 122.766 206.2C122.672 205.803 122.626 205.337 122.626 204.8C122.626 204.24 122.672 203.773 122.766 203.4H117.166C117.259 203.773 117.306 204.24 117.306 204.8C117.306 205.337 117.259 205.803 117.166 206.2C117.259 206.573 117.306 207.04 117.306 207.6C117.306 208.137 117.259 208.603 117.166 209H114.366C114.272 208.603 114.226 208.137 114.226 207.6C114.226 207.04 114.272 206.573 114.366 206.2C114.272 205.803 114.226 205.337 114.226 204.8C114.226 204.24 114.272 203.773 114.366 203.4H115.416C115.322 203.003 115.276 202.537 115.276 202C115.276 201.44 115.322 200.973 115.416 200.6C115.322 200.203 115.276 199.737 115.276 199.2C115.276 198.64 115.322 198.173 115.416 197.8H116.116C116.022 197.403 115.976 196.937 115.976 196.4C115.976 195.84 116.022 195.373 116.116 195H117.166C117.072 194.603 117.026 194.137 117.026 193.6C117.026 193.04 117.072 192.573 117.166 192.2H117.866C117.772 191.803 117.726 191.337 117.726 190.8C117.726 190.24 117.772 189.773 117.866 189.4H122.066C122.159 189.773 122.206 190.24 122.206 190.8C122.206 191.337 122.159 191.803 122.066 192.2H122.766C122.859 192.573 122.906 193.04 122.906 193.6C122.906 194.137 122.859 194.603 122.766 195H123.816C123.909 195.373 123.956 195.84 123.956 196.4C123.956 196.937 123.909 197.403 123.816 197.8H124.516C124.609 198.173 124.656 198.64 124.656 199.2C124.656 199.737 124.609 200.203 124.516 200.6C124.609 200.973 124.656 201.44 124.656 202C124.656 202.537 124.609 203.003 124.516 203.4H125.566C125.659 203.773 125.706 204.24 125.706 204.8ZM121.716 200.6C121.622 200.203 121.576 199.737 121.576 199.2C121.576 198.64 121.622 198.173 121.716 197.8H121.016C120.922 197.403 120.876 196.937 120.876 196.4C120.876 195.84 120.922 195.373 121.016 195H118.916C119.009 195.373 119.056 195.84 119.056 196.4C119.056 196.937 119.009 197.403 118.916 197.8H118.216C118.309 198.173 118.356 198.64 118.356 199.2C118.356 199.737 118.309 200.203 118.216 200.6H121.716ZM139.579 206.2C139.673 206.573 139.719 207.04 139.719 207.6C139.719 208.137 139.673 208.603 139.579 209H129.779C129.686 208.603 129.639 208.137 129.639 207.6C129.639 207.04 129.686 206.573 129.779 206.2C129.686 205.803 129.639 205.337 129.639 204.8C129.639 204.24 129.686 203.773 129.779 203.4C129.686 203.003 129.639 202.537 129.639 202C129.639 201.44 129.686 200.973 129.779 200.6C129.686 200.203 129.639 199.737 129.639 199.2C129.639 198.64 129.686 198.173 129.779 197.8C129.686 197.403 129.639 196.937 129.639 196.4C129.639 195.84 129.686 195.373 129.779 195C129.686 194.603 129.639 194.137 129.639 193.6C129.639 193.04 129.686 192.573 129.779 192.2C129.686 191.803 129.639 191.337 129.639 190.8C129.639 190.24 129.686 189.773 129.779 189.4H132.579C132.673 189.773 132.719 190.24 132.719 190.8C132.719 191.337 132.673 191.803 132.579 192.2C132.673 192.573 132.719 193.04 132.719 193.6C132.719 194.137 132.673 194.603 132.579 195C132.673 195.373 132.719 195.84 132.719 196.4C132.719 196.937 132.673 197.403 132.579 197.8C132.673 198.173 132.719 198.64 132.719 199.2C132.719 199.737 132.673 200.203 132.579 200.6C132.673 200.973 132.719 201.44 132.719 202C132.719 202.537 132.673 203.003 132.579 203.4C132.673 203.773 132.719 204.24 132.719 204.8C132.719 205.337 132.673 205.803 132.579 206.2H139.579ZM153.593 206.2C153.686 206.573 153.733 207.04 153.733 207.6C153.733 208.137 153.686 208.603 153.593 209H143.793C143.7 208.603 143.653 208.137 143.653 207.6C143.653 207.04 143.7 206.573 143.793 206.2C143.7 205.803 143.653 205.337 143.653 204.8C143.653 204.24 143.7 203.773 143.793 203.4C143.7 203.003 143.653 202.537 143.653 202C143.653 201.44 143.7 200.973 143.793 200.6C143.7 200.203 143.653 199.737 143.653 199.2C143.653 198.64 143.7 198.173 143.793 197.8C143.7 197.403 143.653 196.937 143.653 196.4C143.653 195.84 143.7 195.373 143.793 195C143.7 194.603 143.653 194.137 143.653 193.6C143.653 193.04 143.7 192.573 143.793 192.2C143.7 191.803 143.653 191.337 143.653 190.8C143.653 190.24 143.7 189.773 143.793 189.4H146.593C146.686 189.773 146.733 190.24 146.733 190.8C146.733 191.337 146.686 191.803 146.593 192.2C146.686 192.573 146.733 193.04 146.733 193.6C146.733 194.137 146.686 194.603 146.593 195C146.686 195.373 146.733 195.84 146.733 196.4C146.733 196.937 146.686 197.403 146.593 197.8C146.686 198.173 146.733 198.64 146.733 199.2C146.733 199.737 146.686 200.203 146.593 200.6C146.686 200.973 146.733 201.44 146.733 202C146.733 202.537 146.686 203.003 146.593 203.4C146.686 203.773 146.733 204.24 146.733 204.8C146.733 205.337 146.686 205.803 146.593 206.2H153.593ZM160.607 200.6C160.7 200.973 160.747 201.44 160.747 202C160.747 202.537 160.7 203.003 160.607 203.4C160.7 203.773 160.747 204.24 160.747 204.8C160.747 205.337 160.7 205.803 160.607 206.2H166.207C166.3 206.573 166.347 207.04 166.347 207.6C166.347 208.137 166.3 208.603 166.207 209H157.807C157.714 208.603 157.667 208.137 157.667 207.6C157.667 207.04 157.714 206.573 157.807 206.2C157.714 205.803 157.667 205.337 157.667 204.8C157.667 204.24 157.714 203.773 157.807 203.4C157.714 203.003 157.667 202.537 157.667 202C157.667 201.44 157.714 200.973 157.807 200.6C157.714 200.203 157.667 199.737 157.667 199.2C157.667 198.64 157.714 198.173 157.807 197.8C157.714 197.403 157.667 196.937 157.667 196.4C157.667 195.84 157.714 195.373 157.807 195C157.714 194.603 157.667 194.137 157.667 193.6C157.667 193.04 157.714 192.573 157.807 192.2C157.714 191.803 157.667 191.337 157.667 190.8C157.667 190.24 157.714 189.773 157.807 189.4H166.207C166.3 189.773 166.347 190.24 166.347 190.8C166.347 191.337 166.3 191.803 166.207 192.2H160.607C160.7 192.573 160.747 193.04 160.747 193.6C160.747 194.137 160.7 194.603 160.607 195C160.7 195.373 160.747 195.84 160.747 196.4C160.747 196.937 160.7 197.403 160.607 197.8H166.207C166.3 198.173 166.347 198.64 166.347 199.2C166.347 199.737 166.3 200.203 166.207 200.6H160.607ZM181.761 190.8C181.761 191.337 181.714 191.803 181.621 192.2H177.421C177.514 192.573 177.561 193.04 177.561 193.6C177.561 194.137 177.514 194.603 177.421 195C177.514 195.373 177.561 195.84 177.561 196.4C177.561 196.937 177.514 197.403 177.421 197.8C177.514 198.173 177.561 198.64 177.561 199.2C177.561 199.737 177.514 200.203 177.421 200.6C177.514 200.973 177.561 201.44 177.561 202C177.561 202.537 177.514 203.003 177.421 203.4C177.514 203.773 177.561 204.24 177.561 204.8C177.561 205.337 177.514 205.803 177.421 206.2C177.514 206.573 177.561 207.04 177.561 207.6C177.561 208.137 177.514 208.603 177.421 209H174.621C174.527 208.603 174.481 208.137 174.481 207.6C174.481 207.04 174.527 206.573 174.621 206.2C174.527 205.803 174.481 205.337 174.481 204.8C174.481 204.24 174.527 203.773 174.621 203.4C174.527 203.003 174.481 202.537 174.481 202C174.481 201.44 174.527 200.973 174.621 200.6C174.527 200.203 174.481 199.737 174.481 199.2C174.481 198.64 174.527 198.173 174.621 197.8C174.527 197.403 174.481 196.937 174.481 196.4C174.481 195.84 174.527 195.373 174.621 195C174.527 194.603 174.481 194.137 174.481 193.6C174.481 193.04 174.527 192.573 174.621 192.2H170.421C170.327 191.803 170.281 191.337 170.281 190.8C170.281 190.24 170.327 189.773 170.421 189.4H181.621C181.714 189.773 181.761 190.24 181.761 190.8ZM191.924 204.8C191.924 205.337 191.878 205.803 191.784 206.2C191.878 206.573 191.924 207.04 191.924 207.6C191.924 208.137 191.878 208.603 191.784 209H188.284C188.191 208.603 188.144 208.137 188.144 207.6C188.144 207.04 188.191 206.573 188.284 206.2C188.191 205.803 188.144 205.337 188.144 204.8C188.144 204.24 188.191 203.773 188.284 203.4H191.784C191.878 203.773 191.924 204.24 191.924 204.8Z" fill="#FFEE55"/>
</svg>
