<svg width="304" height="300" viewBox="0 0 304 300" fill="none" xmlns="http://www.w3.org/2000/svg">
<g filter="url(#filter0_d_8_158)">
<rect x="4.5" y="0.5" width="295" height="291" rx="10.5" stroke="#FFEE55"/>
<path d="M137.715 52.48C137.715 54.0287 137.58 55.3753 137.311 56.52H127.211C126.941 55.3753 126.807 54.0287 126.807 52.48C126.807 50.864 126.941 49.5173 127.211 48.44H137.311C137.58 49.5173 137.715 50.864 137.715 52.48ZM127.211 88.84C127.48 89.9173 127.615 91.264 127.615 92.88C127.615 94.4287 127.48 95.7753 127.211 96.92H122.161C121.891 95.7753 121.757 94.4287 121.757 92.88C121.757 91.264 121.891 89.9173 122.161 88.84H119.131C118.861 87.6953 118.727 86.3487 118.727 84.8C118.727 83.184 118.861 81.8373 119.131 80.76C118.861 79.6153 118.727 78.2687 118.727 76.72C118.727 75.104 118.861 73.7573 119.131 72.68C118.861 71.5353 118.727 70.1887 118.727 68.64C118.727 67.024 118.861 65.6773 119.131 64.6H122.161C121.891 63.4553 121.757 62.1087 121.757 60.56C121.757 58.944 121.891 57.5973 122.161 56.52H127.211C127.48 57.5973 127.615 58.944 127.615 60.56C127.615 62.1087 127.48 63.4553 127.211 64.6C127.48 65.6773 127.615 67.024 127.615 68.64C127.615 70.1887 127.48 71.5353 127.211 72.68C127.48 73.7573 127.615 75.104 127.615 76.72C127.615 78.2687 127.48 79.6153 127.211 80.76C127.48 81.8373 127.615 83.184 127.615 84.8C127.615 86.3487 127.48 87.6953 127.211 88.84ZM145.391 72.68C145.66 73.7573 145.795 75.104 145.795 76.72C145.795 78.2687 145.66 79.6153 145.391 80.76C145.66 81.8373 145.795 83.184 145.795 84.8C145.795 86.3487 145.66 87.6953 145.391 88.84H142.361C142.63 89.9173 142.765 91.264 142.765 92.88C142.765 94.4287 142.63 95.7753 142.361 96.92H137.311C137.041 95.7753 136.907 94.4287 136.907 92.88C136.907 91.264 137.041 89.9173 137.311 88.84C137.041 87.6953 136.907 86.3487 136.907 84.8C136.907 83.184 137.041 81.8373 137.311 80.76C137.041 79.6153 136.907 78.2687 136.907 76.72C136.907 75.104 137.041 73.7573 137.311 72.68C137.041 71.5353 136.907 70.1887 136.907 68.64C136.907 67.024 137.041 65.6773 137.311 64.6C137.041 63.4553 136.907 62.1087 136.907 60.56C136.907 58.944 137.041 57.5973 137.311 56.52H142.361C142.63 57.5973 142.765 58.944 142.765 60.56C142.765 62.1087 142.63 63.4553 142.361 64.6H145.391C145.66 65.6773 145.795 67.024 145.795 68.64C145.795 70.1887 145.66 71.5353 145.391 72.68ZM126.807 100.96C126.807 99.344 126.941 97.9973 127.211 96.92H137.311C137.58 97.9973 137.715 99.344 137.715 100.96C137.715 102.509 137.58 103.855 137.311 105H127.211C126.941 103.855 126.807 102.509 126.807 100.96ZM184.82 96.92C185.089 97.9973 185.224 99.344 185.224 100.96C185.224 102.509 185.089 103.855 184.82 105H160.58C160.311 103.855 160.176 102.509 160.176 100.96C160.176 99.344 160.311 97.9973 160.58 96.92H168.66C168.391 95.7753 168.256 94.4287 168.256 92.88C168.256 91.264 168.391 89.9173 168.66 88.84C168.391 87.6953 168.256 86.3487 168.256 84.8C168.256 83.184 168.391 81.8373 168.66 80.76C168.391 79.6153 168.256 78.2687 168.256 76.72C168.256 75.104 168.391 73.7573 168.66 72.68C168.391 71.5353 168.256 70.1887 168.256 68.64C168.256 67.024 168.391 65.6773 168.66 64.6H162.6C162.331 63.4553 162.196 62.1087 162.196 60.56C162.196 58.944 162.331 57.5973 162.6 56.52H168.66C168.391 55.3753 168.256 54.0287 168.256 52.48C168.256 50.864 168.391 49.5173 168.66 48.44H176.74C177.009 49.5173 177.144 50.864 177.144 52.48C177.144 54.0287 177.009 55.3753 176.74 56.52C177.009 57.5973 177.144 58.944 177.144 60.56C177.144 62.1087 177.009 63.4553 176.74 64.6C177.009 65.6773 177.144 67.024 177.144 68.64C177.144 70.1887 177.009 71.5353 176.74 72.68C177.009 73.7573 177.144 75.104 177.144 76.72C177.144 78.2687 177.009 79.6153 176.74 80.76C177.009 81.8373 177.144 83.184 177.144 84.8C177.144 86.3487 177.009 87.6953 176.74 88.84C177.009 89.9173 177.144 91.264 177.144 92.88C177.144 94.4287 177.009 95.7753 176.74 96.92H184.82Z" fill="#FFEE55"/>
<path d="M87.5248 168.4C87.6181 168.773 87.6648 169.24 87.6648 169.8C87.6648 170.337 87.6181 170.803 87.5248 171.2H86.1248C86.2181 171.573 86.2648 172.04 86.2648 172.6C86.2648 173.137 86.2181 173.603 86.1248 174H79.1248C79.0315 173.603 78.9848 173.137 78.9848 172.6C78.9848 172.04 79.0315 171.573 79.1248 171.2H77.7248C77.6315 170.803 77.5848 170.337 77.5848 169.8C77.5848 169.24 77.6315 168.773 77.7248 168.4H76.3248C76.2315 168.003 76.1848 167.537 76.1848 167C76.1848 166.44 76.2315 165.973 76.3248 165.6C76.2315 165.203 76.1848 164.737 76.1848 164.2C76.1848 163.64 76.2315 163.173 76.3248 162.8C76.2315 162.403 76.1848 161.937 76.1848 161.4C76.1848 160.84 76.2315 160.373 76.3248 160H77.7248C77.6315 159.603 77.5848 159.137 77.5848 158.6C77.5848 158.04 77.6315 157.573 77.7248 157.2H79.1248C79.0315 156.803 78.9848 156.337 78.9848 155.8C78.9848 155.24 79.0315 154.773 79.1248 154.4H86.1248C86.2181 154.773 86.2648 155.24 86.2648 155.8C86.2648 156.337 86.2181 156.803 86.1248 157.2H87.5248C87.6181 157.573 87.6648 158.04 87.6648 158.6C87.6648 159.137 87.6181 159.603 87.5248 160H84.7248C84.6315 159.603 84.5848 159.137 84.5848 158.6C84.5848 158.04 84.6315 157.573 84.7248 157.2H80.5248C80.6181 157.573 80.6648 158.04 80.6648 158.6C80.6648 159.137 80.6181 159.603 80.5248 160H79.1248C79.2181 160.373 79.2648 160.84 79.2648 161.4C79.2648 161.937 79.2181 162.403 79.1248 162.8C79.2181 163.173 79.2648 163.64 79.2648 164.2C79.2648 164.737 79.2181 165.203 79.1248 165.6C79.2181 165.973 79.2648 166.44 79.2648 167C79.2648 167.537 79.2181 168.003 79.1248 168.4H80.5248C80.6181 168.773 80.6648 169.24 80.6648 169.8C80.6648 170.337 80.6181 170.803 80.5248 171.2H84.7248C84.6315 170.803 84.5848 170.337 84.5848 169.8C84.5848 169.24 84.6315 168.773 84.7248 168.4H87.5248ZM101.538 171.2C101.632 171.573 101.678 172.04 101.678 172.6C101.678 173.137 101.632 173.603 101.538 174H98.7385C98.6451 173.603 98.5985 173.137 98.5985 172.6C98.5985 172.04 98.6451 171.573 98.7385 171.2H97.6885C97.5951 170.803 97.5485 170.337 97.5485 169.8C97.5485 169.24 97.5951 168.773 97.6885 168.4H96.6385C96.5451 168.003 96.4985 167.537 96.4985 167C96.4985 166.44 96.5451 165.973 96.6385 165.6H93.1385C93.2318 165.973 93.2785 166.44 93.2785 167C93.2785 167.537 93.2318 168.003 93.1385 168.4C93.2318 168.773 93.2785 169.24 93.2785 169.8C93.2785 170.337 93.2318 170.803 93.1385 171.2C93.2318 171.573 93.2785 172.04 93.2785 172.6C93.2785 173.137 93.2318 173.603 93.1385 174H90.3385C90.2451 173.603 90.1985 173.137 90.1985 172.6C90.1985 172.04 90.2451 171.573 90.3385 171.2C90.2451 170.803 90.1985 170.337 90.1985 169.8C90.1985 169.24 90.2451 168.773 90.3385 168.4C90.2451 168.003 90.1985 167.537 90.1985 167C90.1985 166.44 90.2451 165.973 90.3385 165.6C90.2451 165.203 90.1985 164.737 90.1985 164.2C90.1985 163.64 90.2451 163.173 90.3385 162.8C90.2451 162.403 90.1985 161.937 90.1985 161.4C90.1985 160.84 90.2451 160.373 90.3385 160C90.2451 159.603 90.1985 159.137 90.1985 158.6C90.1985 158.04 90.2451 157.573 90.3385 157.2C90.2451 156.803 90.1985 156.337 90.1985 155.8C90.1985 155.24 90.2451 154.773 90.3385 154.4H100.138C100.232 154.773 100.278 155.24 100.278 155.8C100.278 156.337 100.232 156.803 100.138 157.2H101.538C101.632 157.573 101.678 158.04 101.678 158.6C101.678 159.137 101.632 159.603 101.538 160H100.838C100.932 160.373 100.978 160.84 100.978 161.4C100.978 161.937 100.932 162.403 100.838 162.8H98.7385C98.8318 163.173 98.8785 163.64 98.8785 164.2C98.8785 164.737 98.8318 165.203 98.7385 165.6H99.4385C99.5318 165.973 99.5785 166.44 99.5785 167C99.5785 167.537 99.5318 168.003 99.4385 168.4H100.488C100.582 168.773 100.628 169.24 100.628 169.8C100.628 170.337 100.582 170.803 100.488 171.2H101.538ZM98.0385 162.8C97.9451 162.403 97.8985 161.937 97.8985 161.4C97.8985 160.84 97.9451 160.373 98.0385 160C97.9451 159.603 97.8985 159.137 97.8985 158.6C97.8985 158.04 97.9451 157.573 98.0385 157.2H93.1385C93.2318 157.573 93.2785 158.04 93.2785 158.6C93.2785 159.137 93.2318 159.603 93.1385 160C93.2318 160.373 93.2785 160.84 93.2785 161.4C93.2785 161.937 93.2318 162.403 93.1385 162.8H98.0385ZM108.552 165.6C108.645 165.973 108.692 166.44 108.692 167C108.692 167.537 108.645 168.003 108.552 168.4C108.645 168.773 108.692 169.24 108.692 169.8C108.692 170.337 108.645 170.803 108.552 171.2H114.152C114.245 171.573 114.292 172.04 114.292 172.6C114.292 173.137 114.245 173.603 114.152 174H105.752C105.659 173.603 105.612 173.137 105.612 172.6C105.612 172.04 105.659 171.573 105.752 171.2C105.659 170.803 105.612 170.337 105.612 169.8C105.612 169.24 105.659 168.773 105.752 168.4C105.659 168.003 105.612 167.537 105.612 167C105.612 166.44 105.659 165.973 105.752 165.6C105.659 165.203 105.612 164.737 105.612 164.2C105.612 163.64 105.659 163.173 105.752 162.8C105.659 162.403 105.612 161.937 105.612 161.4C105.612 160.84 105.659 160.373 105.752 160C105.659 159.603 105.612 159.137 105.612 158.6C105.612 158.04 105.659 157.573 105.752 157.2C105.659 156.803 105.612 156.337 105.612 155.8C105.612 155.24 105.659 154.773 105.752 154.4H114.152C114.245 154.773 114.292 155.24 114.292 155.8C114.292 156.337 114.245 156.803 114.152 157.2H108.552C108.645 157.573 108.692 158.04 108.692 158.6C108.692 159.137 108.645 159.603 108.552 160C108.645 160.373 108.692 160.84 108.692 161.4C108.692 161.937 108.645 162.403 108.552 162.8H114.152C114.245 163.173 114.292 163.64 114.292 164.2C114.292 164.737 114.245 165.203 114.152 165.6H108.552ZM129.706 169.8C129.706 170.337 129.659 170.803 129.566 171.2C129.659 171.573 129.706 172.04 129.706 172.6C129.706 173.137 129.659 173.603 129.566 174H126.766C126.672 173.603 126.626 173.137 126.626 172.6C126.626 172.04 126.672 171.573 126.766 171.2C126.672 170.803 126.626 170.337 126.626 169.8C126.626 169.24 126.672 168.773 126.766 168.4H121.166C121.259 168.773 121.306 169.24 121.306 169.8C121.306 170.337 121.259 170.803 121.166 171.2C121.259 171.573 121.306 172.04 121.306 172.6C121.306 173.137 121.259 173.603 121.166 174H118.366C118.272 173.603 118.226 173.137 118.226 172.6C118.226 172.04 118.272 171.573 118.366 171.2C118.272 170.803 118.226 170.337 118.226 169.8C118.226 169.24 118.272 168.773 118.366 168.4H119.416C119.322 168.003 119.276 167.537 119.276 167C119.276 166.44 119.322 165.973 119.416 165.6C119.322 165.203 119.276 164.737 119.276 164.2C119.276 163.64 119.322 163.173 119.416 162.8H120.116C120.022 162.403 119.976 161.937 119.976 161.4C119.976 160.84 120.022 160.373 120.116 160H121.166C121.072 159.603 121.026 159.137 121.026 158.6C121.026 158.04 121.072 157.573 121.166 157.2H121.866C121.772 156.803 121.726 156.337 121.726 155.8C121.726 155.24 121.772 154.773 121.866 154.4H126.066C126.159 154.773 126.206 155.24 126.206 155.8C126.206 156.337 126.159 156.803 126.066 157.2H126.766C126.859 157.573 126.906 158.04 126.906 158.6C126.906 159.137 126.859 159.603 126.766 160H127.816C127.909 160.373 127.956 160.84 127.956 161.4C127.956 161.937 127.909 162.403 127.816 162.8H128.516C128.609 163.173 128.656 163.64 128.656 164.2C128.656 164.737 128.609 165.203 128.516 165.6C128.609 165.973 128.656 166.44 128.656 167C128.656 167.537 128.609 168.003 128.516 168.4H129.566C129.659 168.773 129.706 169.24 129.706 169.8ZM125.716 165.6C125.622 165.203 125.576 164.737 125.576 164.2C125.576 163.64 125.622 163.173 125.716 162.8H125.016C124.922 162.403 124.876 161.937 124.876 161.4C124.876 160.84 124.922 160.373 125.016 160H122.916C123.009 160.373 123.056 160.84 123.056 161.4C123.056 161.937 123.009 162.403 122.916 162.8H122.216C122.309 163.173 122.356 163.64 122.356 164.2C122.356 164.737 122.309 165.203 122.216 165.6H125.716ZM143.719 155.8C143.719 156.337 143.673 156.803 143.579 157.2H139.379C139.473 157.573 139.519 158.04 139.519 158.6C139.519 159.137 139.473 159.603 139.379 160C139.473 160.373 139.519 160.84 139.519 161.4C139.519 161.937 139.473 162.403 139.379 162.8C139.473 163.173 139.519 163.64 139.519 164.2C139.519 164.737 139.473 165.203 139.379 165.6C139.473 165.973 139.519 166.44 139.519 167C139.519 167.537 139.473 168.003 139.379 168.4C139.473 168.773 139.519 169.24 139.519 169.8C139.519 170.337 139.473 170.803 139.379 171.2C139.473 171.573 139.519 172.04 139.519 172.6C139.519 173.137 139.473 173.603 139.379 174H136.579C136.486 173.603 136.439 173.137 136.439 172.6C136.439 172.04 136.486 171.573 136.579 171.2C136.486 170.803 136.439 170.337 136.439 169.8C136.439 169.24 136.486 168.773 136.579 168.4C136.486 168.003 136.439 167.537 136.439 167C136.439 166.44 136.486 165.973 136.579 165.6C136.486 165.203 136.439 164.737 136.439 164.2C136.439 163.64 136.486 163.173 136.579 162.8C136.486 162.403 136.439 161.937 136.439 161.4C136.439 160.84 136.486 160.373 136.579 160C136.486 159.603 136.439 159.137 136.439 158.6C136.439 158.04 136.486 157.573 136.579 157.2H132.379C132.286 156.803 132.239 156.337 132.239 155.8C132.239 155.24 132.286 154.773 132.379 154.4H143.579C143.673 154.773 143.719 155.24 143.719 155.8ZM150.593 165.6C150.686 165.973 150.733 166.44 150.733 167C150.733 167.537 150.686 168.003 150.593 168.4C150.686 168.773 150.733 169.24 150.733 169.8C150.733 170.337 150.686 170.803 150.593 171.2H156.193C156.286 171.573 156.333 172.04 156.333 172.6C156.333 173.137 156.286 173.603 156.193 174H147.793C147.7 173.603 147.653 173.137 147.653 172.6C147.653 172.04 147.7 171.573 147.793 171.2C147.7 170.803 147.653 170.337 147.653 169.8C147.653 169.24 147.7 168.773 147.793 168.4C147.7 168.003 147.653 167.537 147.653 167C147.653 166.44 147.7 165.973 147.793 165.6C147.7 165.203 147.653 164.737 147.653 164.2C147.653 163.64 147.7 163.173 147.793 162.8C147.7 162.403 147.653 161.937 147.653 161.4C147.653 160.84 147.7 160.373 147.793 160C147.7 159.603 147.653 159.137 147.653 158.6C147.653 158.04 147.7 157.573 147.793 157.2C147.7 156.803 147.653 156.337 147.653 155.8C147.653 155.24 147.7 154.773 147.793 154.4H156.193C156.286 154.773 156.333 155.24 156.333 155.8C156.333 156.337 156.286 156.803 156.193 157.2H150.593C150.686 157.573 150.733 158.04 150.733 158.6C150.733 159.137 150.686 159.603 150.593 160C150.686 160.373 150.733 160.84 150.733 161.4C150.733 161.937 150.686 162.403 150.593 162.8H156.193C156.286 163.173 156.333 163.64 156.333 164.2C156.333 164.737 156.286 165.203 156.193 165.6H150.593ZM185.761 155.8C185.761 156.337 185.714 156.803 185.621 157.2C185.714 157.573 185.761 158.04 185.761 158.6C185.761 159.137 185.714 159.603 185.621 160H184.221C184.314 160.373 184.361 160.84 184.361 161.4C184.361 161.937 184.314 162.403 184.221 162.8H182.821C182.914 163.173 182.961 163.64 182.961 164.2C182.961 164.737 182.914 165.203 182.821 165.6H181.421C181.514 165.973 181.561 166.44 181.561 167C181.561 167.537 181.514 168.003 181.421 168.4C181.514 168.773 181.561 169.24 181.561 169.8C181.561 170.337 181.514 170.803 181.421 171.2C181.514 171.573 181.561 172.04 181.561 172.6C181.561 173.137 181.514 173.603 181.421 174H178.621C178.527 173.603 178.481 173.137 178.481 172.6C178.481 172.04 178.527 171.573 178.621 171.2C178.527 170.803 178.481 170.337 178.481 169.8C178.481 169.24 178.527 168.773 178.621 168.4C178.527 168.003 178.481 167.537 178.481 167C178.481 166.44 178.527 165.973 178.621 165.6H177.221C177.127 165.203 177.081 164.737 177.081 164.2C177.081 163.64 177.127 163.173 177.221 162.8H175.821C175.727 162.403 175.681 161.937 175.681 161.4C175.681 160.84 175.727 160.373 175.821 160H174.421C174.327 159.603 174.281 159.137 174.281 158.6C174.281 158.04 174.327 157.573 174.421 157.2C174.327 156.803 174.281 156.337 174.281 155.8C174.281 155.24 174.327 154.773 174.421 154.4H177.221C177.314 154.773 177.361 155.24 177.361 155.8C177.361 156.337 177.314 156.803 177.221 157.2C177.314 157.573 177.361 158.04 177.361 158.6C177.361 159.137 177.314 159.603 177.221 160H178.621C178.714 160.373 178.761 160.84 178.761 161.4C178.761 161.937 178.714 162.403 178.621 162.8H181.421C181.327 162.403 181.281 161.937 181.281 161.4C181.281 160.84 181.327 160.373 181.421 160H182.821C182.727 159.603 182.681 159.137 182.681 158.6C182.681 158.04 182.727 157.573 182.821 157.2C182.727 156.803 182.681 156.337 182.681 155.8C182.681 155.24 182.727 154.773 182.821 154.4H185.621C185.714 154.773 185.761 155.24 185.761 155.8ZM199.634 162.8C199.728 163.173 199.774 163.64 199.774 164.2C199.774 164.737 199.728 165.203 199.634 165.6C199.728 165.973 199.774 166.44 199.774 167C199.774 167.537 199.728 168.003 199.634 168.4H198.584C198.678 168.773 198.724 169.24 198.724 169.8C198.724 170.337 198.678 170.803 198.584 171.2H196.834C196.928 171.573 196.974 172.04 196.974 172.6C196.974 173.137 196.928 173.603 196.834 174H191.234C191.141 173.603 191.094 173.137 191.094 172.6C191.094 172.04 191.141 171.573 191.234 171.2H189.484C189.391 170.803 189.344 170.337 189.344 169.8C189.344 169.24 189.391 168.773 189.484 168.4H188.434C188.341 168.003 188.294 167.537 188.294 167C188.294 166.44 188.341 165.973 188.434 165.6C188.341 165.203 188.294 164.737 188.294 164.2C188.294 163.64 188.341 163.173 188.434 162.8C188.341 162.403 188.294 161.937 188.294 161.4C188.294 160.84 188.341 160.373 188.434 160H189.484C189.391 159.603 189.344 159.137 189.344 158.6C189.344 158.04 189.391 157.573 189.484 157.2H191.234C191.141 156.803 191.094 156.337 191.094 155.8C191.094 155.24 191.141 154.773 191.234 154.4H196.834C196.928 154.773 196.974 155.24 196.974 155.8C196.974 156.337 196.928 156.803 196.834 157.2H198.584C198.678 157.573 198.724 158.04 198.724 158.6C198.724 159.137 198.678 159.603 198.584 160H199.634C199.728 160.373 199.774 160.84 199.774 161.4C199.774 161.937 199.728 162.403 199.634 162.8ZM196.834 168.4C196.741 168.003 196.694 167.537 196.694 167C196.694 166.44 196.741 165.973 196.834 165.6C196.741 165.203 196.694 164.737 196.694 164.2C196.694 163.64 196.741 163.173 196.834 162.8C196.741 162.403 196.694 161.937 196.694 161.4C196.694 160.84 196.741 160.373 196.834 160H195.784C195.691 159.603 195.644 159.137 195.644 158.6C195.644 158.04 195.691 157.573 195.784 157.2H192.284C192.378 157.573 192.424 158.04 192.424 158.6C192.424 159.137 192.378 159.603 192.284 160H191.234C191.328 160.373 191.374 160.84 191.374 161.4C191.374 161.937 191.328 162.403 191.234 162.8C191.328 163.173 191.374 163.64 191.374 164.2C191.374 164.737 191.328 165.203 191.234 165.6C191.328 165.973 191.374 166.44 191.374 167C191.374 167.537 191.328 168.003 191.234 168.4H192.284C192.378 168.773 192.424 169.24 192.424 169.8C192.424 170.337 192.378 170.803 192.284 171.2H195.784C195.691 170.803 195.644 170.337 195.644 169.8C195.644 169.24 195.691 168.773 195.784 168.4H196.834ZM213.648 157.2C213.741 157.573 213.788 158.04 213.788 158.6C213.788 159.137 213.741 159.603 213.648 160C213.741 160.373 213.788 160.84 213.788 161.4C213.788 161.937 213.741 162.403 213.648 162.8C213.741 163.173 213.788 163.64 213.788 164.2C213.788 164.737 213.741 165.203 213.648 165.6C213.741 165.973 213.788 166.44 213.788 167C213.788 167.537 213.741 168.003 213.648 168.4C213.741 168.773 213.788 169.24 213.788 169.8C213.788 170.337 213.741 170.803 213.648 171.2H212.248C212.341 171.573 212.388 172.04 212.388 172.6C212.388 173.137 212.341 173.603 212.248 174H203.848C203.755 173.603 203.708 173.137 203.708 172.6C203.708 172.04 203.755 171.573 203.848 171.2H202.448C202.355 170.803 202.308 170.337 202.308 169.8C202.308 169.24 202.355 168.773 202.448 168.4C202.355 168.003 202.308 167.537 202.308 167C202.308 166.44 202.355 165.973 202.448 165.6C202.355 165.203 202.308 164.737 202.308 164.2C202.308 163.64 202.355 163.173 202.448 162.8C202.355 162.403 202.308 161.937 202.308 161.4C202.308 160.84 202.355 160.373 202.448 160C202.355 159.603 202.308 159.137 202.308 158.6C202.308 158.04 202.355 157.573 202.448 157.2C202.355 156.803 202.308 156.337 202.308 155.8C202.308 155.24 202.355 154.773 202.448 154.4H205.248C205.341 154.773 205.388 155.24 205.388 155.8C205.388 156.337 205.341 156.803 205.248 157.2C205.341 157.573 205.388 158.04 205.388 158.6C205.388 159.137 205.341 159.603 205.248 160C205.341 160.373 205.388 160.84 205.388 161.4C205.388 161.937 205.341 162.403 205.248 162.8C205.341 163.173 205.388 163.64 205.388 164.2C205.388 164.737 205.341 165.203 205.248 165.6C205.341 165.973 205.388 166.44 205.388 167C205.388 167.537 205.341 168.003 205.248 168.4C205.341 168.773 205.388 169.24 205.388 169.8C205.388 170.337 205.341 170.803 205.248 171.2H210.848C210.755 170.803 210.708 170.337 210.708 169.8C210.708 169.24 210.755 168.773 210.848 168.4C210.755 168.003 210.708 167.537 210.708 167C210.708 166.44 210.755 165.973 210.848 165.6C210.755 165.203 210.708 164.737 210.708 164.2C210.708 163.64 210.755 163.173 210.848 162.8C210.755 162.403 210.708 161.937 210.708 161.4C210.708 160.84 210.755 160.373 210.848 160C210.755 159.603 210.708 159.137 210.708 158.6C210.708 158.04 210.755 157.573 210.848 157.2C210.755 156.803 210.708 156.337 210.708 155.8C210.708 155.24 210.755 154.773 210.848 154.4H213.648C213.741 154.773 213.788 155.24 213.788 155.8C213.788 156.337 213.741 156.803 213.648 157.2ZM227.662 171.2C227.755 171.573 227.802 172.04 227.802 172.6C227.802 173.137 227.755 173.603 227.662 174H224.862C224.768 173.603 224.722 173.137 224.722 172.6C224.722 172.04 224.768 171.573 224.862 171.2H223.812C223.718 170.803 223.672 170.337 223.672 169.8C223.672 169.24 223.718 168.773 223.812 168.4H222.762C222.668 168.003 222.622 167.537 222.622 167C222.622 166.44 222.668 165.973 222.762 165.6H219.262C219.355 165.973 219.402 166.44 219.402 167C219.402 167.537 219.355 168.003 219.262 168.4C219.355 168.773 219.402 169.24 219.402 169.8C219.402 170.337 219.355 170.803 219.262 171.2C219.355 171.573 219.402 172.04 219.402 172.6C219.402 173.137 219.355 173.603 219.262 174H216.462C216.368 173.603 216.322 173.137 216.322 172.6C216.322 172.04 216.368 171.573 216.462 171.2C216.368 170.803 216.322 170.337 216.322 169.8C216.322 169.24 216.368 168.773 216.462 168.4C216.368 168.003 216.322 167.537 216.322 167C216.322 166.44 216.368 165.973 216.462 165.6C216.368 165.203 216.322 164.737 216.322 164.2C216.322 163.64 216.368 163.173 216.462 162.8C216.368 162.403 216.322 161.937 216.322 161.4C216.322 160.84 216.368 160.373 216.462 160C216.368 159.603 216.322 159.137 216.322 158.6C216.322 158.04 216.368 157.573 216.462 157.2C216.368 156.803 216.322 156.337 216.322 155.8C216.322 155.24 216.368 154.773 216.462 154.4H226.262C226.355 154.773 226.402 155.24 226.402 155.8C226.402 156.337 226.355 156.803 226.262 157.2H227.662C227.755 157.573 227.802 158.04 227.802 158.6C227.802 159.137 227.755 159.603 227.662 160H226.962C227.055 160.373 227.102 160.84 227.102 161.4C227.102 161.937 227.055 162.403 226.962 162.8H224.862C224.955 163.173 225.002 163.64 225.002 164.2C225.002 164.737 224.955 165.203 224.862 165.6H225.562C225.655 165.973 225.702 166.44 225.702 167C225.702 167.537 225.655 168.003 225.562 168.4H226.612C226.705 168.773 226.752 169.24 226.752 169.8C226.752 170.337 226.705 170.803 226.612 171.2H227.662ZM224.162 162.8C224.068 162.403 224.022 161.937 224.022 161.4C224.022 160.84 224.068 160.373 224.162 160C224.068 159.603 224.022 159.137 224.022 158.6C224.022 158.04 224.068 157.573 224.162 157.2H219.262C219.355 157.573 219.402 158.04 219.402 158.6C219.402 159.137 219.355 159.603 219.262 160C219.355 160.373 219.402 160.84 219.402 161.4C219.402 161.937 219.355 162.403 219.262 162.8H224.162ZM108.545 192.2C108.639 192.573 108.685 193.04 108.685 193.6C108.685 194.137 108.639 194.603 108.545 195C108.639 195.373 108.685 195.84 108.685 196.4C108.685 196.937 108.639 197.403 108.545 197.8C108.639 198.173 108.685 198.64 108.685 199.2C108.685 199.737 108.639 200.203 108.545 200.6C108.639 200.973 108.685 201.44 108.685 202C108.685 202.537 108.639 203.003 108.545 203.4C108.639 203.773 108.685 204.24 108.685 204.8C108.685 205.337 108.639 205.803 108.545 206.2C108.639 206.573 108.685 207.04 108.685 207.6C108.685 208.137 108.639 208.603 108.545 209H105.745C105.652 208.603 105.605 208.137 105.605 207.6C105.605 207.04 105.652 206.573 105.745 206.2C105.652 205.803 105.605 205.337 105.605 204.8C105.605 204.24 105.652 203.773 105.745 203.4C105.652 203.003 105.605 202.537 105.605 202C105.605 201.44 105.652 200.973 105.745 200.6C105.652 200.203 105.605 199.737 105.605 199.2C105.605 198.64 105.652 198.173 105.745 197.8C105.652 197.403 105.605 196.937 105.605 196.4C105.605 195.84 105.652 195.373 105.745 195H104.695C104.789 195.373 104.835 195.84 104.835 196.4C104.835 196.937 104.789 197.403 104.695 197.8C104.789 198.173 104.835 198.64 104.835 199.2C104.835 199.737 104.789 200.203 104.695 200.6H103.995C104.089 200.973 104.135 201.44 104.135 202C104.135 202.537 104.089 203.003 103.995 203.4C104.089 203.773 104.135 204.24 104.135 204.8C104.135 205.337 104.089 205.803 103.995 206.2H101.895C101.802 205.803 101.755 205.337 101.755 204.8C101.755 204.24 101.802 203.773 101.895 203.4C101.802 203.003 101.755 202.537 101.755 202C101.755 201.44 101.802 200.973 101.895 200.6H101.195C101.102 200.203 101.055 199.737 101.055 199.2C101.055 198.64 101.102 198.173 101.195 197.8C101.102 197.403 101.055 196.937 101.055 196.4C101.055 195.84 101.102 195.373 101.195 195H100.145C100.239 195.373 100.285 195.84 100.285 196.4C100.285 196.937 100.239 197.403 100.145 197.8C100.239 198.173 100.285 198.64 100.285 199.2C100.285 199.737 100.239 200.203 100.145 200.6C100.239 200.973 100.285 201.44 100.285 202C100.285 202.537 100.239 203.003 100.145 203.4C100.239 203.773 100.285 204.24 100.285 204.8C100.285 205.337 100.239 205.803 100.145 206.2C100.239 206.573 100.285 207.04 100.285 207.6C100.285 208.137 100.239 208.603 100.145 209H97.3453C97.252 208.603 97.2053 208.137 97.2053 207.6C97.2053 207.04 97.252 206.573 97.3453 206.2C97.252 205.803 97.2053 205.337 97.2053 204.8C97.2053 204.24 97.252 203.773 97.3453 203.4C97.252 203.003 97.2053 202.537 97.2053 202C97.2053 201.44 97.252 200.973 97.3453 200.6C97.252 200.203 97.2053 199.737 97.2053 199.2C97.2053 198.64 97.252 198.173 97.3453 197.8C97.252 197.403 97.2053 196.937 97.2053 196.4C97.2053 195.84 97.252 195.373 97.3453 195C97.252 194.603 97.2053 194.137 97.2053 193.6C97.2053 193.04 97.252 192.573 97.3453 192.2C97.252 191.803 97.2053 191.337 97.2053 190.8C97.2053 190.24 97.252 189.773 97.3453 189.4H100.845C100.939 189.773 100.985 190.24 100.985 190.8C100.985 191.337 100.939 191.803 100.845 192.2H101.895C101.989 192.573 102.035 193.04 102.035 193.6C102.035 194.137 101.989 194.603 101.895 195H102.42C102.514 195.373 102.56 195.84 102.56 196.4C102.56 196.937 102.514 197.403 102.42 197.8H103.47C103.377 197.403 103.33 196.937 103.33 196.4C103.33 195.84 103.377 195.373 103.47 195H103.995C103.902 194.603 103.855 194.137 103.855 193.6C103.855 193.04 103.902 192.573 103.995 192.2H105.045C104.952 191.803 104.905 191.337 104.905 190.8C104.905 190.24 104.952 189.773 105.045 189.4H108.545C108.639 189.773 108.685 190.24 108.685 190.8C108.685 191.337 108.639 191.803 108.545 192.2ZM115.559 200.6C115.652 200.973 115.699 201.44 115.699 202C115.699 202.537 115.652 203.003 115.559 203.4C115.652 203.773 115.699 204.24 115.699 204.8C115.699 205.337 115.652 205.803 115.559 206.2H121.159C121.252 206.573 121.299 207.04 121.299 207.6C121.299 208.137 121.252 208.603 121.159 209H112.759C112.666 208.603 112.619 208.137 112.619 207.6C112.619 207.04 112.666 206.573 112.759 206.2C112.666 205.803 112.619 205.337 112.619 204.8C112.619 204.24 112.666 203.773 112.759 203.4C112.666 203.003 112.619 202.537 112.619 202C112.619 201.44 112.666 200.973 112.759 200.6C112.666 200.203 112.619 199.737 112.619 199.2C112.619 198.64 112.666 198.173 112.759 197.8C112.666 197.403 112.619 196.937 112.619 196.4C112.619 195.84 112.666 195.373 112.759 195C112.666 194.603 112.619 194.137 112.619 193.6C112.619 193.04 112.666 192.573 112.759 192.2C112.666 191.803 112.619 191.337 112.619 190.8C112.619 190.24 112.666 189.773 112.759 189.4H121.159C121.252 189.773 121.299 190.24 121.299 190.8C121.299 191.337 121.252 191.803 121.159 192.2H115.559C115.652 192.573 115.699 193.04 115.699 193.6C115.699 194.137 115.652 194.603 115.559 195C115.652 195.373 115.699 195.84 115.699 196.4C115.699 196.937 115.652 197.403 115.559 197.8H121.159C121.252 198.173 121.299 198.64 121.299 199.2C121.299 199.737 121.252 200.203 121.159 200.6H115.559ZM136.713 190.8C136.713 191.337 136.666 191.803 136.573 192.2H132.373C132.466 192.573 132.513 193.04 132.513 193.6C132.513 194.137 132.466 194.603 132.373 195C132.466 195.373 132.513 195.84 132.513 196.4C132.513 196.937 132.466 197.403 132.373 197.8C132.466 198.173 132.513 198.64 132.513 199.2C132.513 199.737 132.466 200.203 132.373 200.6C132.466 200.973 132.513 201.44 132.513 202C132.513 202.537 132.466 203.003 132.373 203.4C132.466 203.773 132.513 204.24 132.513 204.8C132.513 205.337 132.466 205.803 132.373 206.2C132.466 206.573 132.513 207.04 132.513 207.6C132.513 208.137 132.466 208.603 132.373 209H129.573C129.479 208.603 129.433 208.137 129.433 207.6C129.433 207.04 129.479 206.573 129.573 206.2C129.479 205.803 129.433 205.337 129.433 204.8C129.433 204.24 129.479 203.773 129.573 203.4C129.479 203.003 129.433 202.537 129.433 202C129.433 201.44 129.479 200.973 129.573 200.6C129.479 200.203 129.433 199.737 129.433 199.2C129.433 198.64 129.479 198.173 129.573 197.8C129.479 197.403 129.433 196.937 129.433 196.4C129.433 195.84 129.479 195.373 129.573 195C129.479 194.603 129.433 194.137 129.433 193.6C129.433 193.04 129.479 192.573 129.573 192.2H125.373C125.279 191.803 125.233 191.337 125.233 190.8C125.233 190.24 125.279 189.773 125.373 189.4H136.573C136.666 189.773 136.713 190.24 136.713 190.8ZM150.726 204.8C150.726 205.337 150.68 205.803 150.586 206.2C150.68 206.573 150.726 207.04 150.726 207.6C150.726 208.137 150.68 208.603 150.586 209H147.786C147.693 208.603 147.646 208.137 147.646 207.6C147.646 207.04 147.693 206.573 147.786 206.2C147.693 205.803 147.646 205.337 147.646 204.8C147.646 204.24 147.693 203.773 147.786 203.4H142.186C142.28 203.773 142.326 204.24 142.326 204.8C142.326 205.337 142.28 205.803 142.186 206.2C142.28 206.573 142.326 207.04 142.326 207.6C142.326 208.137 142.28 208.603 142.186 209H139.386C139.293 208.603 139.246 208.137 139.246 207.6C139.246 207.04 139.293 206.573 139.386 206.2C139.293 205.803 139.246 205.337 139.246 204.8C139.246 204.24 139.293 203.773 139.386 203.4H140.436C140.343 203.003 140.296 202.537 140.296 202C140.296 201.44 140.343 200.973 140.436 200.6C140.343 200.203 140.296 199.737 140.296 199.2C140.296 198.64 140.343 198.173 140.436 197.8H141.136C141.043 197.403 140.996 196.937 140.996 196.4C140.996 195.84 141.043 195.373 141.136 195H142.186C142.093 194.603 142.046 194.137 142.046 193.6C142.046 193.04 142.093 192.573 142.186 192.2H142.886C142.793 191.803 142.746 191.337 142.746 190.8C142.746 190.24 142.793 189.773 142.886 189.4H147.086C147.18 189.773 147.226 190.24 147.226 190.8C147.226 191.337 147.18 191.803 147.086 192.2H147.786C147.88 192.573 147.926 193.04 147.926 193.6C147.926 194.137 147.88 194.603 147.786 195H148.836C148.93 195.373 148.976 195.84 148.976 196.4C148.976 196.937 148.93 197.403 148.836 197.8H149.536C149.63 198.173 149.676 198.64 149.676 199.2C149.676 199.737 149.63 200.203 149.536 200.6C149.63 200.973 149.676 201.44 149.676 202C149.676 202.537 149.63 203.003 149.536 203.4H150.586C150.68 203.773 150.726 204.24 150.726 204.8ZM146.736 200.6C146.643 200.203 146.596 199.737 146.596 199.2C146.596 198.64 146.643 198.173 146.736 197.8H146.036C145.943 197.403 145.896 196.937 145.896 196.4C145.896 195.84 145.943 195.373 146.036 195H143.936C144.03 195.373 144.076 195.84 144.076 196.4C144.076 196.937 144.03 197.403 143.936 197.8H143.236C143.33 198.173 143.376 198.64 143.376 199.2C143.376 199.737 143.33 200.203 143.236 200.6H146.736ZM164.6 192.2C164.693 192.573 164.74 193.04 164.74 193.6C164.74 194.137 164.693 194.603 164.6 195C164.693 195.373 164.74 195.84 164.74 196.4C164.74 196.937 164.693 197.403 164.6 197.8C164.693 198.173 164.74 198.64 164.74 199.2C164.74 199.737 164.693 200.203 164.6 200.6C164.693 200.973 164.74 201.44 164.74 202C164.74 202.537 164.693 203.003 164.6 203.4C164.693 203.773 164.74 204.24 164.74 204.8C164.74 205.337 164.693 205.803 164.6 206.2C164.693 206.573 164.74 207.04 164.74 207.6C164.74 208.137 164.693 208.603 164.6 209H161.8C161.707 208.603 161.66 208.137 161.66 207.6C161.66 207.04 161.707 206.573 161.8 206.2C161.707 205.803 161.66 205.337 161.66 204.8C161.66 204.24 161.707 203.773 161.8 203.4C161.707 203.003 161.66 202.537 161.66 202C161.66 201.44 161.707 200.973 161.8 200.6C161.707 200.203 161.66 199.737 161.66 199.2C161.66 198.64 161.707 198.173 161.8 197.8C161.707 197.403 161.66 196.937 161.66 196.4C161.66 195.84 161.707 195.373 161.8 195H160.75C160.843 195.373 160.89 195.84 160.89 196.4C160.89 196.937 160.843 197.403 160.75 197.8C160.843 198.173 160.89 198.64 160.89 199.2C160.89 199.737 160.843 200.203 160.75 200.6H160.05C160.143 200.973 160.19 201.44 160.19 202C160.19 202.537 160.143 203.003 160.05 203.4C160.143 203.773 160.19 204.24 160.19 204.8C160.19 205.337 160.143 205.803 160.05 206.2H157.95C157.857 205.803 157.81 205.337 157.81 204.8C157.81 204.24 157.857 203.773 157.95 203.4C157.857 203.003 157.81 202.537 157.81 202C157.81 201.44 157.857 200.973 157.95 200.6H157.25C157.157 200.203 157.11 199.737 157.11 199.2C157.11 198.64 157.157 198.173 157.25 197.8C157.157 197.403 157.11 196.937 157.11 196.4C157.11 195.84 157.157 195.373 157.25 195H156.2C156.293 195.373 156.34 195.84 156.34 196.4C156.34 196.937 156.293 197.403 156.2 197.8C156.293 198.173 156.34 198.64 156.34 199.2C156.34 199.737 156.293 200.203 156.2 200.6C156.293 200.973 156.34 201.44 156.34 202C156.34 202.537 156.293 203.003 156.2 203.4C156.293 203.773 156.34 204.24 156.34 204.8C156.34 205.337 156.293 205.803 156.2 206.2C156.293 206.573 156.34 207.04 156.34 207.6C156.34 208.137 156.293 208.603 156.2 209H153.4C153.307 208.603 153.26 208.137 153.26 207.6C153.26 207.04 153.307 206.573 153.4 206.2C153.307 205.803 153.26 205.337 153.26 204.8C153.26 204.24 153.307 203.773 153.4 203.4C153.307 203.003 153.26 202.537 153.26 202C153.26 201.44 153.307 200.973 153.4 200.6C153.307 200.203 153.26 199.737 153.26 199.2C153.26 198.64 153.307 198.173 153.4 197.8C153.307 197.403 153.26 196.937 153.26 196.4C153.26 195.84 153.307 195.373 153.4 195C153.307 194.603 153.26 194.137 153.26 193.6C153.26 193.04 153.307 192.573 153.4 192.2C153.307 191.803 153.26 191.337 153.26 190.8C153.26 190.24 153.307 189.773 153.4 189.4H156.9C156.993 189.773 157.04 190.24 157.04 190.8C157.04 191.337 156.993 191.803 156.9 192.2H157.95C158.043 192.573 158.09 193.04 158.09 193.6C158.09 194.137 158.043 194.603 157.95 195H158.475C158.568 195.373 158.615 195.84 158.615 196.4C158.615 196.937 158.568 197.403 158.475 197.8H159.525C159.432 197.403 159.385 196.937 159.385 196.4C159.385 195.84 159.432 195.373 159.525 195H160.05C159.957 194.603 159.91 194.137 159.91 193.6C159.91 193.04 159.957 192.573 160.05 192.2H161.1C161.007 191.803 160.96 191.337 160.96 190.8C160.96 190.24 161.007 189.773 161.1 189.4H164.6C164.693 189.773 164.74 190.24 164.74 190.8C164.74 191.337 164.693 191.803 164.6 192.2ZM178.754 204.8C178.754 205.337 178.707 205.803 178.614 206.2C178.707 206.573 178.754 207.04 178.754 207.6C178.754 208.137 178.707 208.603 178.614 209H175.814C175.72 208.603 175.674 208.137 175.674 207.6C175.674 207.04 175.72 206.573 175.814 206.2C175.72 205.803 175.674 205.337 175.674 204.8C175.674 204.24 175.72 203.773 175.814 203.4H170.214C170.307 203.773 170.354 204.24 170.354 204.8C170.354 205.337 170.307 205.803 170.214 206.2C170.307 206.573 170.354 207.04 170.354 207.6C170.354 208.137 170.307 208.603 170.214 209H167.414C167.32 208.603 167.274 208.137 167.274 207.6C167.274 207.04 167.32 206.573 167.414 206.2C167.32 205.803 167.274 205.337 167.274 204.8C167.274 204.24 167.32 203.773 167.414 203.4H168.464C168.37 203.003 168.324 202.537 168.324 202C168.324 201.44 168.37 200.973 168.464 200.6C168.37 200.203 168.324 199.737 168.324 199.2C168.324 198.64 168.37 198.173 168.464 197.8H169.164C169.07 197.403 169.024 196.937 169.024 196.4C169.024 195.84 169.07 195.373 169.164 195H170.214C170.12 194.603 170.074 194.137 170.074 193.6C170.074 193.04 170.12 192.573 170.214 192.2H170.914C170.82 191.803 170.774 191.337 170.774 190.8C170.774 190.24 170.82 189.773 170.914 189.4H175.114C175.207 189.773 175.254 190.24 175.254 190.8C175.254 191.337 175.207 191.803 175.114 192.2H175.814C175.907 192.573 175.954 193.04 175.954 193.6C175.954 194.137 175.907 194.603 175.814 195H176.864C176.957 195.373 177.004 195.84 177.004 196.4C177.004 196.937 176.957 197.403 176.864 197.8H177.564C177.657 198.173 177.704 198.64 177.704 199.2C177.704 199.737 177.657 200.203 177.564 200.6C177.657 200.973 177.704 201.44 177.704 202C177.704 202.537 177.657 203.003 177.564 203.4H178.614C178.707 203.773 178.754 204.24 178.754 204.8ZM174.764 200.6C174.67 200.203 174.624 199.737 174.624 199.2C174.624 198.64 174.67 198.173 174.764 197.8H174.064C173.97 197.403 173.924 196.937 173.924 196.4C173.924 195.84 173.97 195.373 174.064 195H171.964C172.057 195.373 172.104 195.84 172.104 196.4C172.104 196.937 172.057 197.403 171.964 197.8H171.264C171.357 198.173 171.404 198.64 171.404 199.2C171.404 199.737 171.357 200.203 171.264 200.6H174.764ZM192.627 200.6C192.721 200.973 192.767 201.44 192.767 202C192.767 202.537 192.721 203.003 192.627 203.4C192.721 203.773 192.767 204.24 192.767 204.8C192.767 205.337 192.721 205.803 192.627 206.2H191.227C191.321 206.573 191.367 207.04 191.367 207.6C191.367 208.137 191.321 208.603 191.227 209H182.827C182.734 208.603 182.687 208.137 182.687 207.6C182.687 207.04 182.734 206.573 182.827 206.2H181.427C181.334 205.803 181.287 205.337 181.287 204.8C181.287 204.24 181.334 203.773 181.427 203.4H184.227C184.321 203.773 184.367 204.24 184.367 204.8C184.367 205.337 184.321 205.803 184.227 206.2H189.827C189.734 205.803 189.687 205.337 189.687 204.8C189.687 204.24 189.734 203.773 189.827 203.4C189.734 203.003 189.687 202.537 189.687 202C189.687 201.44 189.734 200.973 189.827 200.6H182.827C182.734 200.203 182.687 199.737 182.687 199.2C182.687 198.64 182.734 198.173 182.827 197.8H181.427C181.334 197.403 181.287 196.937 181.287 196.4C181.287 195.84 181.334 195.373 181.427 195C181.334 194.603 181.287 194.137 181.287 193.6C181.287 193.04 181.334 192.573 181.427 192.2H182.827C182.734 191.803 182.687 191.337 182.687 190.8C182.687 190.24 182.734 189.773 182.827 189.4H191.227C191.321 189.773 191.367 190.24 191.367 190.8C191.367 191.337 191.321 191.803 191.227 192.2H192.627C192.721 192.573 192.767 193.04 192.767 193.6C192.767 194.137 192.721 194.603 192.627 195H189.827C189.734 194.603 189.687 194.137 189.687 193.6C189.687 193.04 189.734 192.573 189.827 192.2H184.227C184.321 192.573 184.367 193.04 184.367 193.6C184.367 194.137 184.321 194.603 184.227 195C184.321 195.373 184.367 195.84 184.367 196.4C184.367 196.937 184.321 197.403 184.227 197.8H191.227C191.321 198.173 191.367 198.64 191.367 199.2C191.367 199.737 191.321 200.203 191.227 200.6H192.627ZM206.641 206.2C206.734 206.573 206.781 207.04 206.781 207.6C206.781 208.137 206.734 208.603 206.641 209H203.841C203.748 208.603 203.701 208.137 203.701 207.6C203.701 207.04 203.748 206.573 203.841 206.2H202.791C202.698 205.803 202.651 205.337 202.651 204.8C202.651 204.24 202.698 203.773 202.791 203.4H200.691C200.598 203.003 200.551 202.537 200.551 202C200.551 201.44 200.598 200.973 200.691 200.6H198.241C198.334 200.973 198.381 201.44 198.381 202C198.381 202.537 198.334 203.003 198.241 203.4C198.334 203.773 198.381 204.24 198.381 204.8C198.381 205.337 198.334 205.803 198.241 206.2C198.334 206.573 198.381 207.04 198.381 207.6C198.381 208.137 198.334 208.603 198.241 209H195.441C195.348 208.603 195.301 208.137 195.301 207.6C195.301 207.04 195.348 206.573 195.441 206.2C195.348 205.803 195.301 205.337 195.301 204.8C195.301 204.24 195.348 203.773 195.441 203.4C195.348 203.003 195.301 202.537 195.301 202C195.301 201.44 195.348 200.973 195.441 200.6C195.348 200.203 195.301 199.737 195.301 199.2C195.301 198.64 195.348 198.173 195.441 197.8C195.348 197.403 195.301 196.937 195.301 196.4C195.301 195.84 195.348 195.373 195.441 195C195.348 194.603 195.301 194.137 195.301 193.6C195.301 193.04 195.348 192.573 195.441 192.2C195.348 191.803 195.301 191.337 195.301 190.8C195.301 190.24 195.348 189.773 195.441 189.4H198.241C198.334 189.773 198.381 190.24 198.381 190.8C198.381 191.337 198.334 191.803 198.241 192.2C198.334 192.573 198.381 193.04 198.381 193.6C198.381 194.137 198.334 194.603 198.241 195C198.334 195.373 198.381 195.84 198.381 196.4C198.381 196.937 198.334 197.403 198.241 197.8H200.691C200.598 197.403 200.551 196.937 200.551 196.4C200.551 195.84 200.598 195.373 200.691 195H202.791C202.698 194.603 202.651 194.137 202.651 193.6C202.651 193.04 202.698 192.573 202.791 192.2H203.841C203.748 191.803 203.701 191.337 203.701 190.8C203.701 190.24 203.748 189.773 203.841 189.4H206.641C206.734 189.773 206.781 190.24 206.781 190.8C206.781 191.337 206.734 191.803 206.641 192.2H205.591C205.684 192.573 205.731 193.04 205.731 193.6C205.731 194.137 205.684 194.603 205.591 195H203.491C203.584 195.373 203.631 195.84 203.631 196.4C203.631 196.937 203.584 197.403 203.491 197.8H201.741C201.834 198.173 201.881 198.64 201.881 199.2C201.881 199.737 201.834 200.203 201.741 200.6H203.491C203.584 200.973 203.631 201.44 203.631 202C203.631 202.537 203.584 203.003 203.491 203.4H205.591C205.684 203.773 205.731 204.24 205.731 204.8C205.731 205.337 205.684 205.803 205.591 206.2H206.641ZM122.559 227.2C122.652 227.573 122.699 228.04 122.699 228.6C122.699 229.137 122.652 229.603 122.559 230C122.652 230.373 122.699 230.84 122.699 231.4C122.699 231.937 122.652 232.403 122.559 232.8C122.652 233.173 122.699 233.64 122.699 234.2C122.699 234.737 122.652 235.203 122.559 235.6H121.509C121.602 235.973 121.649 236.44 121.649 237C121.649 237.537 121.602 238.003 121.509 238.4C121.602 238.773 121.649 239.24 121.649 239.8C121.649 240.337 121.602 240.803 121.509 241.2H120.809C120.902 241.573 120.949 242.04 120.949 242.6C120.949 243.137 120.902 243.603 120.809 244H118.709C118.616 243.603 118.569 243.137 118.569 242.6C118.569 242.04 118.616 241.573 118.709 241.2H118.009C117.916 240.803 117.869 240.337 117.869 239.8C117.869 239.24 117.916 238.773 118.009 238.4H115.909C116.002 238.773 116.049 239.24 116.049 239.8C116.049 240.337 116.002 240.803 115.909 241.2H115.209C115.302 241.573 115.349 242.04 115.349 242.6C115.349 243.137 115.302 243.603 115.209 244H113.109C113.016 243.603 112.969 243.137 112.969 242.6C112.969 242.04 113.016 241.573 113.109 241.2H112.409C112.316 240.803 112.269 240.337 112.269 239.8C112.269 239.24 112.316 238.773 112.409 238.4C112.316 238.003 112.269 237.537 112.269 237C112.269 236.44 112.316 235.973 112.409 235.6H111.359C111.266 235.203 111.219 234.737 111.219 234.2C111.219 233.64 111.266 233.173 111.359 232.8C111.266 232.403 111.219 231.937 111.219 231.4C111.219 230.84 111.266 230.373 111.359 230C111.266 229.603 111.219 229.137 111.219 228.6C111.219 228.04 111.266 227.573 111.359 227.2C111.266 226.803 111.219 226.337 111.219 225.8C111.219 225.24 111.266 224.773 111.359 224.4H114.159C114.252 224.773 114.299 225.24 114.299 225.8C114.299 226.337 114.252 226.803 114.159 227.2C114.252 227.573 114.299 228.04 114.299 228.6C114.299 229.137 114.252 229.603 114.159 230C114.252 230.373 114.299 230.84 114.299 231.4C114.299 231.937 114.252 232.403 114.159 232.8C114.252 233.173 114.299 233.64 114.299 234.2C114.299 234.737 114.252 235.203 114.159 235.6C114.252 235.973 114.299 236.44 114.299 237C114.299 237.537 114.252 238.003 114.159 238.4H115.209C115.116 238.003 115.069 237.537 115.069 237C115.069 236.44 115.116 235.973 115.209 235.6H115.909C115.816 235.203 115.769 234.737 115.769 234.2C115.769 233.64 115.816 233.173 115.909 232.8C115.816 232.403 115.769 231.937 115.769 231.4C115.769 230.84 115.816 230.373 115.909 230C115.816 229.603 115.769 229.137 115.769 228.6C115.769 228.04 115.816 227.573 115.909 227.2C115.816 226.803 115.769 226.337 115.769 225.8C115.769 225.24 115.816 224.773 115.909 224.4H118.009C118.102 224.773 118.149 225.24 118.149 225.8C118.149 226.337 118.102 226.803 118.009 227.2C118.102 227.573 118.149 228.04 118.149 228.6C118.149 229.137 118.102 229.603 118.009 230C118.102 230.373 118.149 230.84 118.149 231.4C118.149 231.937 118.102 232.403 118.009 232.8C118.102 233.173 118.149 233.64 118.149 234.2C118.149 234.737 118.102 235.203 118.009 235.6H118.709C118.802 235.973 118.849 236.44 118.849 237C118.849 237.537 118.802 238.003 118.709 238.4H119.759C119.666 238.003 119.619 237.537 119.619 237C119.619 236.44 119.666 235.973 119.759 235.6C119.666 235.203 119.619 234.737 119.619 234.2C119.619 233.64 119.666 233.173 119.759 232.8C119.666 232.403 119.619 231.937 119.619 231.4C119.619 230.84 119.666 230.373 119.759 230C119.666 229.603 119.619 229.137 119.619 228.6C119.619 228.04 119.666 227.573 119.759 227.2C119.666 226.803 119.619 226.337 119.619 225.8C119.619 225.24 119.666 224.773 119.759 224.4H122.559C122.652 224.773 122.699 225.24 122.699 225.8C122.699 226.337 122.652 226.803 122.559 227.2ZM136.713 239.8C136.713 240.337 136.666 240.803 136.573 241.2C136.666 241.573 136.713 242.04 136.713 242.6C136.713 243.137 136.666 243.603 136.573 244H133.773C133.679 243.603 133.633 243.137 133.633 242.6C133.633 242.04 133.679 241.573 133.773 241.2C133.679 240.803 133.633 240.337 133.633 239.8C133.633 239.24 133.679 238.773 133.773 238.4H128.173C128.266 238.773 128.313 239.24 128.313 239.8C128.313 240.337 128.266 240.803 128.173 241.2C128.266 241.573 128.313 242.04 128.313 242.6C128.313 243.137 128.266 243.603 128.173 244H125.373C125.279 243.603 125.233 243.137 125.233 242.6C125.233 242.04 125.279 241.573 125.373 241.2C125.279 240.803 125.233 240.337 125.233 239.8C125.233 239.24 125.279 238.773 125.373 238.4H126.423C126.329 238.003 126.283 237.537 126.283 237C126.283 236.44 126.329 235.973 126.423 235.6C126.329 235.203 126.283 234.737 126.283 234.2C126.283 233.64 126.329 233.173 126.423 232.8H127.123C127.029 232.403 126.983 231.937 126.983 231.4C126.983 230.84 127.029 230.373 127.123 230H128.173C128.079 229.603 128.033 229.137 128.033 228.6C128.033 228.04 128.079 227.573 128.173 227.2H128.873C128.779 226.803 128.733 226.337 128.733 225.8C128.733 225.24 128.779 224.773 128.873 224.4H133.073C133.166 224.773 133.213 225.24 133.213 225.8C133.213 226.337 133.166 226.803 133.073 227.2H133.773C133.866 227.573 133.913 228.04 133.913 228.6C133.913 229.137 133.866 229.603 133.773 230H134.823C134.916 230.373 134.963 230.84 134.963 231.4C134.963 231.937 134.916 232.403 134.823 232.8H135.523C135.616 233.173 135.663 233.64 135.663 234.2C135.663 234.737 135.616 235.203 135.523 235.6C135.616 235.973 135.663 236.44 135.663 237C135.663 237.537 135.616 238.003 135.523 238.4H136.573C136.666 238.773 136.713 239.24 136.713 239.8ZM132.723 235.6C132.629 235.203 132.583 234.737 132.583 234.2C132.583 233.64 132.629 233.173 132.723 232.8H132.023C131.929 232.403 131.883 231.937 131.883 231.4C131.883 230.84 131.929 230.373 132.023 230H129.923C130.016 230.373 130.063 230.84 130.063 231.4C130.063 231.937 130.016 232.403 129.923 232.8H129.223C129.316 233.173 129.363 233.64 129.363 234.2C129.363 234.737 129.316 235.203 129.223 235.6H132.723ZM150.586 241.2C150.68 241.573 150.726 242.04 150.726 242.6C150.726 243.137 150.68 243.603 150.586 244H140.786C140.693 243.603 140.646 243.137 140.646 242.6C140.646 242.04 140.693 241.573 140.786 241.2C140.693 240.803 140.646 240.337 140.646 239.8C140.646 239.24 140.693 238.773 140.786 238.4C140.693 238.003 140.646 237.537 140.646 237C140.646 236.44 140.693 235.973 140.786 235.6C140.693 235.203 140.646 234.737 140.646 234.2C140.646 233.64 140.693 233.173 140.786 232.8C140.693 232.403 140.646 231.937 140.646 231.4C140.646 230.84 140.693 230.373 140.786 230C140.693 229.603 140.646 229.137 140.646 228.6C140.646 228.04 140.693 227.573 140.786 227.2C140.693 226.803 140.646 226.337 140.646 225.8C140.646 225.24 140.693 224.773 140.786 224.4H143.586C143.68 224.773 143.726 225.24 143.726 225.8C143.726 226.337 143.68 226.803 143.586 227.2C143.68 227.573 143.726 228.04 143.726 228.6C143.726 229.137 143.68 229.603 143.586 230C143.68 230.373 143.726 230.84 143.726 231.4C143.726 231.937 143.68 232.403 143.586 232.8C143.68 233.173 143.726 233.64 143.726 234.2C143.726 234.737 143.68 235.203 143.586 235.6C143.68 235.973 143.726 236.44 143.726 237C143.726 237.537 143.68 238.003 143.586 238.4C143.68 238.773 143.726 239.24 143.726 239.8C143.726 240.337 143.68 240.803 143.586 241.2H150.586ZM164.6 241.2C164.693 241.573 164.74 242.04 164.74 242.6C164.74 243.137 164.693 243.603 164.6 244H154.8C154.707 243.603 154.66 243.137 154.66 242.6C154.66 242.04 154.707 241.573 154.8 241.2C154.707 240.803 154.66 240.337 154.66 239.8C154.66 239.24 154.707 238.773 154.8 238.4C154.707 238.003 154.66 237.537 154.66 237C154.66 236.44 154.707 235.973 154.8 235.6C154.707 235.203 154.66 234.737 154.66 234.2C154.66 233.64 154.707 233.173 154.8 232.8C154.707 232.403 154.66 231.937 154.66 231.4C154.66 230.84 154.707 230.373 154.8 230C154.707 229.603 154.66 229.137 154.66 228.6C154.66 228.04 154.707 227.573 154.8 227.2C154.707 226.803 154.66 226.337 154.66 225.8C154.66 225.24 154.707 224.773 154.8 224.4H157.6C157.693 224.773 157.74 225.24 157.74 225.8C157.74 226.337 157.693 226.803 157.6 227.2C157.693 227.573 157.74 228.04 157.74 228.6C157.74 229.137 157.693 229.603 157.6 230C157.693 230.373 157.74 230.84 157.74 231.4C157.74 231.937 157.693 232.403 157.6 232.8C157.693 233.173 157.74 233.64 157.74 234.2C157.74 234.737 157.693 235.203 157.6 235.6C157.693 235.973 157.74 236.44 157.74 237C157.74 237.537 157.693 238.003 157.6 238.4C157.693 238.773 157.74 239.24 157.74 239.8C157.74 240.337 157.693 240.803 157.6 241.2H164.6ZM171.614 235.6C171.707 235.973 171.754 236.44 171.754 237C171.754 237.537 171.707 238.003 171.614 238.4C171.707 238.773 171.754 239.24 171.754 239.8C171.754 240.337 171.707 240.803 171.614 241.2H177.214C177.307 241.573 177.354 242.04 177.354 242.6C177.354 243.137 177.307 243.603 177.214 244H168.814C168.72 243.603 168.674 243.137 168.674 242.6C168.674 242.04 168.72 241.573 168.814 241.2C168.72 240.803 168.674 240.337 168.674 239.8C168.674 239.24 168.72 238.773 168.814 238.4C168.72 238.003 168.674 237.537 168.674 237C168.674 236.44 168.72 235.973 168.814 235.6C168.72 235.203 168.674 234.737 168.674 234.2C168.674 233.64 168.72 233.173 168.814 232.8C168.72 232.403 168.674 231.937 168.674 231.4C168.674 230.84 168.72 230.373 168.814 230C168.72 229.603 168.674 229.137 168.674 228.6C168.674 228.04 168.72 227.573 168.814 227.2C168.72 226.803 168.674 226.337 168.674 225.8C168.674 225.24 168.72 224.773 168.814 224.4H177.214C177.307 224.773 177.354 225.24 177.354 225.8C177.354 226.337 177.307 226.803 177.214 227.2H171.614C171.707 227.573 171.754 228.04 171.754 228.6C171.754 229.137 171.707 229.603 171.614 230C171.707 230.373 171.754 230.84 171.754 231.4C171.754 231.937 171.707 232.403 171.614 232.8H177.214C177.307 233.173 177.354 233.64 177.354 234.2C177.354 234.737 177.307 235.203 177.214 235.6H171.614ZM192.767 225.8C192.767 226.337 192.721 226.803 192.627 227.2H188.427C188.521 227.573 188.567 228.04 188.567 228.6C188.567 229.137 188.521 229.603 188.427 230C188.521 230.373 188.567 230.84 188.567 231.4C188.567 231.937 188.521 232.403 188.427 232.8C188.521 233.173 188.567 233.64 188.567 234.2C188.567 234.737 188.521 235.203 188.427 235.6C188.521 235.973 188.567 236.44 188.567 237C188.567 237.537 188.521 238.003 188.427 238.4C188.521 238.773 188.567 239.24 188.567 239.8C188.567 240.337 188.521 240.803 188.427 241.2C188.521 241.573 188.567 242.04 188.567 242.6C188.567 243.137 188.521 243.603 188.427 244H185.627C185.534 243.603 185.487 243.137 185.487 242.6C185.487 242.04 185.534 241.573 185.627 241.2C185.534 240.803 185.487 240.337 185.487 239.8C185.487 239.24 185.534 238.773 185.627 238.4C185.534 238.003 185.487 237.537 185.487 237C185.487 236.44 185.534 235.973 185.627 235.6C185.534 235.203 185.487 234.737 185.487 234.2C185.487 233.64 185.534 233.173 185.627 232.8C185.534 232.403 185.487 231.937 185.487 231.4C185.487 230.84 185.534 230.373 185.627 230C185.534 229.603 185.487 229.137 185.487 228.6C185.487 228.04 185.534 227.573 185.627 227.2H181.427C181.334 226.803 181.287 226.337 181.287 225.8C181.287 225.24 181.334 224.773 181.427 224.4H192.627C192.721 224.773 192.767 225.24 192.767 225.8Z" fill="#FFEE55"/>
</g>
<defs>
<filter id="filter0_d_8_158" x="0" y="0" width="304" height="300" filterUnits="userSpaceOnUse" color-interpolation-filters="sRGB">
<feFlood flood-opacity="0" result="BackgroundImageFix"/>
<feColorMatrix in="SourceAlpha" type="matrix" values="0 0 0 0 0 0 0 0 0 0 0 0 0 0 0 0 0 0 127 0" result="hardAlpha"/>
<feOffset dy="4"/>
<feGaussianBlur stdDeviation="2"/>
<feComposite in2="hardAlpha" operator="out"/>
<feColorMatrix type="matrix" values="0 0 0 0 0 0 0 0 0 0 0 0 0 0 0 0 0 0 0.25 0"/>
<feBlend mode="normal" in2="BackgroundImageFix" result="effect1_dropShadow_8_158"/>
<feBlend mode="normal" in="SourceGraphic" in2="effect1_dropShadow_8_158" result="shape"/>
</filter>
</defs>
</svg>
