<svg width="296" height="292" viewBox="0 0 296 292" fill="none" xmlns="http://www.w3.org/2000/svg">
<rect x="0.5" y="0.5" width="295" height="291" rx="10.5" fill="#FFEE55" stroke="#FFEE55"/>
<path d="M133.715 52.48C133.715 54.0287 133.58 55.3753 133.311 56.52H123.211C122.941 55.3753 122.807 54.0287 122.807 52.48C122.807 50.864 122.941 49.5173 123.211 48.44H133.311C133.58 49.5173 133.715 50.864 133.715 52.48ZM123.211 88.84C123.48 89.9173 123.615 91.264 123.615 92.88C123.615 94.4287 123.48 95.7753 123.211 96.92H118.161C117.891 95.7753 117.757 94.4287 117.757 92.88C117.757 91.264 117.891 89.9173 118.161 88.84H115.131C114.861 87.6953 114.727 86.3487 114.727 84.8C114.727 83.184 114.861 81.8373 115.131 80.76C114.861 79.6153 114.727 78.2687 114.727 76.72C114.727 75.104 114.861 73.7573 115.131 72.68C114.861 71.5353 114.727 70.1887 114.727 68.64C114.727 67.024 114.861 65.6773 115.131 64.6H118.161C117.891 63.4553 117.757 62.1087 117.757 60.56C117.757 58.944 117.891 57.5973 118.161 56.52H123.211C123.48 57.5973 123.615 58.944 123.615 60.56C123.615 62.1087 123.48 63.4553 123.211 64.6C123.48 65.6773 123.615 67.024 123.615 68.64C123.615 70.1887 123.48 71.5353 123.211 72.68C123.48 73.7573 123.615 75.104 123.615 76.72C123.615 78.2687 123.48 79.6153 123.211 80.76C123.48 81.8373 123.615 83.184 123.615 84.8C123.615 86.3487 123.48 87.6953 123.211 88.84ZM141.391 72.68C141.66 73.7573 141.795 75.104 141.795 76.72C141.795 78.2687 141.66 79.6153 141.391 80.76C141.66 81.8373 141.795 83.184 141.795 84.8C141.795 86.3487 141.66 87.6953 141.391 88.84H138.361C138.63 89.9173 138.765 91.264 138.765 92.88C138.765 94.4287 138.63 95.7753 138.361 96.92H133.311C133.041 95.7753 132.907 94.4287 132.907 92.88C132.907 91.264 133.041 89.9173 133.311 88.84C133.041 87.6953 132.907 86.3487 132.907 84.8C132.907 83.184 133.041 81.8373 133.311 80.76C133.041 79.6153 132.907 78.2687 132.907 76.72C132.907 75.104 133.041 73.7573 133.311 72.68C133.041 71.5353 132.907 70.1887 132.907 68.64C132.907 67.024 133.041 65.6773 133.311 64.6C133.041 63.4553 132.907 62.1087 132.907 60.56C132.907 58.944 133.041 57.5973 133.311 56.52H138.361C138.63 57.5973 138.765 58.944 138.765 60.56C138.765 62.1087 138.63 63.4553 138.361 64.6H141.391C141.66 65.6773 141.795 67.024 141.795 68.64C141.795 70.1887 141.66 71.5353 141.391 72.68ZM122.807 100.96C122.807 99.344 122.941 97.9973 123.211 96.92H133.311C133.58 97.9973 133.715 99.344 133.715 100.96C133.715 102.509 133.58 103.855 133.311 105H123.211C122.941 103.855 122.807 102.509 122.807 100.96ZM185.264 84.8C185.264 86.3487 185.129 87.6953 184.86 88.84H180.82C181.089 89.9173 181.224 91.264 181.224 92.88C181.224 94.4287 181.089 95.7753 180.82 96.92C181.089 97.9973 181.224 99.344 181.224 100.96C181.224 102.509 181.089 103.855 180.82 105H172.74C172.471 103.855 172.336 102.509 172.336 100.96C172.336 99.344 172.471 97.9973 172.74 96.92C172.471 95.7753 172.336 94.4287 172.336 92.88C172.336 91.264 172.471 89.9173 172.74 88.84H152.54C152.271 87.6953 152.136 86.3487 152.136 84.8C152.136 83.184 152.271 81.8373 152.54 80.76H155.57C155.301 79.6153 155.166 78.2687 155.166 76.72C155.166 75.104 155.301 73.7573 155.57 72.68H158.6C158.331 71.5353 158.196 70.1887 158.196 68.64C158.196 67.024 158.331 65.6773 158.6 64.6H161.63C161.361 63.4553 161.226 62.1087 161.226 60.56C161.226 58.944 161.361 57.5973 161.63 56.52H166.68C166.949 57.5973 167.084 58.944 167.084 60.56C167.084 62.1087 166.949 63.4553 166.68 64.6H163.65C163.919 65.6773 164.054 67.024 164.054 68.64C164.054 70.1887 163.919 71.5353 163.65 72.68H160.62C160.889 73.7573 161.024 75.104 161.024 76.72C161.024 78.2687 160.889 79.6153 160.62 80.76H172.74C172.471 79.6153 172.336 78.2687 172.336 76.72C172.336 75.104 172.471 73.7573 172.74 72.68C172.471 71.5353 172.336 70.1887 172.336 68.64C172.336 67.024 172.471 65.6773 172.74 64.6C172.471 63.4553 172.336 62.1087 172.336 60.56C172.336 58.944 172.471 57.5973 172.74 56.52H166.68C166.411 55.3753 166.276 54.0287 166.276 52.48C166.276 50.864 166.411 49.5173 166.68 48.44H180.82C181.089 49.5173 181.224 50.864 181.224 52.48C181.224 54.0287 181.089 55.3753 180.82 56.52C181.089 57.5973 181.224 58.944 181.224 60.56C181.224 62.1087 181.089 63.4553 180.82 64.6C181.089 65.6773 181.224 67.024 181.224 68.64C181.224 70.1887 181.089 71.5353 180.82 72.68C181.089 73.7573 181.224 75.104 181.224 76.72C181.224 78.2687 181.089 79.6153 180.82 80.76H184.86C185.129 81.8373 185.264 83.184 185.264 84.8Z" fill="black"/>
<path d="M76.518 165.6C76.6113 165.973 76.658 166.44 76.658 167C76.658 167.537 76.6113 168.003 76.518 168.4C76.6113 168.773 76.658 169.24 76.658 169.8C76.658 170.337 76.6113 170.803 76.518 171.2H75.118C75.2113 171.573 75.258 172.04 75.258 172.6C75.258 173.137 75.2113 173.603 75.118 174H66.718C66.6246 173.603 66.578 173.137 66.578 172.6C66.578 172.04 66.6246 171.573 66.718 171.2H65.318C65.2246 170.803 65.178 170.337 65.178 169.8C65.178 169.24 65.2246 168.773 65.318 168.4H68.118C68.2113 168.773 68.258 169.24 68.258 169.8C68.258 170.337 68.2113 170.803 68.118 171.2H73.718C73.6246 170.803 73.578 170.337 73.578 169.8C73.578 169.24 73.6246 168.773 73.718 168.4C73.6246 168.003 73.578 167.537 73.578 167C73.578 166.44 73.6246 165.973 73.718 165.6H66.718C66.6246 165.203 66.578 164.737 66.578 164.2C66.578 163.64 66.6246 163.173 66.718 162.8H65.318C65.2246 162.403 65.178 161.937 65.178 161.4C65.178 160.84 65.2246 160.373 65.318 160C65.2246 159.603 65.178 159.137 65.178 158.6C65.178 158.04 65.2246 157.573 65.318 157.2H66.718C66.6246 156.803 66.578 156.337 66.578 155.8C66.578 155.24 66.6246 154.773 66.718 154.4H75.118C75.2113 154.773 75.258 155.24 75.258 155.8C75.258 156.337 75.2113 156.803 75.118 157.2H76.518C76.6113 157.573 76.658 158.04 76.658 158.6C76.658 159.137 76.6113 159.603 76.518 160H73.718C73.6246 159.603 73.578 159.137 73.578 158.6C73.578 158.04 73.6246 157.573 73.718 157.2H68.118C68.2113 157.573 68.258 158.04 68.258 158.6C68.258 159.137 68.2113 159.603 68.118 160C68.2113 160.373 68.258 160.84 68.258 161.4C68.258 161.937 68.2113 162.403 68.118 162.8H75.118C75.2113 163.173 75.258 163.64 75.258 164.2C75.258 164.737 75.2113 165.203 75.118 165.6H76.518ZM90.5316 157.2C90.625 157.573 90.6716 158.04 90.6716 158.6C90.6716 159.137 90.625 159.603 90.5316 160C90.625 160.373 90.6716 160.84 90.6716 161.4C90.6716 161.937 90.625 162.403 90.5316 162.8C90.625 163.173 90.6716 163.64 90.6716 164.2C90.6716 164.737 90.625 165.203 90.5316 165.6H89.4816C89.575 165.973 89.6216 166.44 89.6216 167C89.6216 167.537 89.575 168.003 89.4816 168.4C89.575 168.773 89.6216 169.24 89.6216 169.8C89.6216 170.337 89.575 170.803 89.4816 171.2H88.7816C88.875 171.573 88.9216 172.04 88.9216 172.6C88.9216 173.137 88.875 173.603 88.7816 174H86.6816C86.5883 173.603 86.5416 173.137 86.5416 172.6C86.5416 172.04 86.5883 171.573 86.6816 171.2H85.9816C85.8883 170.803 85.8416 170.337 85.8416 169.8C85.8416 169.24 85.8883 168.773 85.9816 168.4H83.8816C83.975 168.773 84.0216 169.24 84.0216 169.8C84.0216 170.337 83.975 170.803 83.8816 171.2H83.1816C83.275 171.573 83.3216 172.04 83.3216 172.6C83.3216 173.137 83.275 173.603 83.1816 174H81.0816C80.9883 173.603 80.9416 173.137 80.9416 172.6C80.9416 172.04 80.9883 171.573 81.0816 171.2H80.3816C80.2883 170.803 80.2416 170.337 80.2416 169.8C80.2416 169.24 80.2883 168.773 80.3816 168.4C80.2883 168.003 80.2416 167.537 80.2416 167C80.2416 166.44 80.2883 165.973 80.3816 165.6H79.3316C79.2383 165.203 79.1916 164.737 79.1916 164.2C79.1916 163.64 79.2383 163.173 79.3316 162.8C79.2383 162.403 79.1916 161.937 79.1916 161.4C79.1916 160.84 79.2383 160.373 79.3316 160C79.2383 159.603 79.1916 159.137 79.1916 158.6C79.1916 158.04 79.2383 157.573 79.3316 157.2C79.2383 156.803 79.1916 156.337 79.1916 155.8C79.1916 155.24 79.2383 154.773 79.3316 154.4H82.1316C82.225 154.773 82.2716 155.24 82.2716 155.8C82.2716 156.337 82.225 156.803 82.1316 157.2C82.225 157.573 82.2716 158.04 82.2716 158.6C82.2716 159.137 82.225 159.603 82.1316 160C82.225 160.373 82.2716 160.84 82.2716 161.4C82.2716 161.937 82.225 162.403 82.1316 162.8C82.225 163.173 82.2716 163.64 82.2716 164.2C82.2716 164.737 82.225 165.203 82.1316 165.6C82.225 165.973 82.2716 166.44 82.2716 167C82.2716 167.537 82.225 168.003 82.1316 168.4H83.1816C83.0883 168.003 83.0416 167.537 83.0416 167C83.0416 166.44 83.0883 165.973 83.1816 165.6H83.8816C83.7883 165.203 83.7416 164.737 83.7416 164.2C83.7416 163.64 83.7883 163.173 83.8816 162.8C83.7883 162.403 83.7416 161.937 83.7416 161.4C83.7416 160.84 83.7883 160.373 83.8816 160C83.7883 159.603 83.7416 159.137 83.7416 158.6C83.7416 158.04 83.7883 157.573 83.8816 157.2C83.7883 156.803 83.7416 156.337 83.7416 155.8C83.7416 155.24 83.7883 154.773 83.8816 154.4H85.9816C86.075 154.773 86.1216 155.24 86.1216 155.8C86.1216 156.337 86.075 156.803 85.9816 157.2C86.075 157.573 86.1216 158.04 86.1216 158.6C86.1216 159.137 86.075 159.603 85.9816 160C86.075 160.373 86.1216 160.84 86.1216 161.4C86.1216 161.937 86.075 162.403 85.9816 162.8C86.075 163.173 86.1216 163.64 86.1216 164.2C86.1216 164.737 86.075 165.203 85.9816 165.6H86.6816C86.775 165.973 86.8216 166.44 86.8216 167C86.8216 167.537 86.775 168.003 86.6816 168.4H87.7316C87.6383 168.003 87.5916 167.537 87.5916 167C87.5916 166.44 87.6383 165.973 87.7316 165.6C87.6383 165.203 87.5916 164.737 87.5916 164.2C87.5916 163.64 87.6383 163.173 87.7316 162.8C87.6383 162.403 87.5916 161.937 87.5916 161.4C87.5916 160.84 87.6383 160.373 87.7316 160C87.6383 159.603 87.5916 159.137 87.5916 158.6C87.5916 158.04 87.6383 157.573 87.7316 157.2C87.6383 156.803 87.5916 156.337 87.5916 155.8C87.5916 155.24 87.6383 154.773 87.7316 154.4H90.5316C90.625 154.773 90.6716 155.24 90.6716 155.8C90.6716 156.337 90.625 156.803 90.5316 157.2ZM104.685 169.8C104.685 170.337 104.639 170.803 104.545 171.2C104.639 171.573 104.685 172.04 104.685 172.6C104.685 173.137 104.639 173.603 104.545 174H101.745C101.652 173.603 101.605 173.137 101.605 172.6C101.605 172.04 101.652 171.573 101.745 171.2C101.652 170.803 101.605 170.337 101.605 169.8C101.605 169.24 101.652 168.773 101.745 168.4H96.1453C96.2386 168.773 96.2853 169.24 96.2853 169.8C96.2853 170.337 96.2386 170.803 96.1453 171.2C96.2386 171.573 96.2853 172.04 96.2853 172.6C96.2853 173.137 96.2386 173.603 96.1453 174H93.3453C93.252 173.603 93.2053 173.137 93.2053 172.6C93.2053 172.04 93.252 171.573 93.3453 171.2C93.252 170.803 93.2053 170.337 93.2053 169.8C93.2053 169.24 93.252 168.773 93.3453 168.4H94.3953C94.302 168.003 94.2553 167.537 94.2553 167C94.2553 166.44 94.302 165.973 94.3953 165.6C94.302 165.203 94.2553 164.737 94.2553 164.2C94.2553 163.64 94.302 163.173 94.3953 162.8H95.0953C95.002 162.403 94.9553 161.937 94.9553 161.4C94.9553 160.84 95.002 160.373 95.0953 160H96.1453C96.052 159.603 96.0053 159.137 96.0053 158.6C96.0053 158.04 96.052 157.573 96.1453 157.2H96.8453C96.752 156.803 96.7053 156.337 96.7053 155.8C96.7053 155.24 96.752 154.773 96.8453 154.4H101.045C101.139 154.773 101.185 155.24 101.185 155.8C101.185 156.337 101.139 156.803 101.045 157.2H101.745C101.839 157.573 101.885 158.04 101.885 158.6C101.885 159.137 101.839 159.603 101.745 160H102.795C102.889 160.373 102.935 160.84 102.935 161.4C102.935 161.937 102.889 162.403 102.795 162.8H103.495C103.589 163.173 103.635 163.64 103.635 164.2C103.635 164.737 103.589 165.203 103.495 165.6C103.589 165.973 103.635 166.44 103.635 167C103.635 167.537 103.589 168.003 103.495 168.4H104.545C104.639 168.773 104.685 169.24 104.685 169.8ZM100.695 165.6C100.602 165.203 100.555 164.737 100.555 164.2C100.555 163.64 100.602 163.173 100.695 162.8H99.9953C99.902 162.403 99.8553 161.937 99.8553 161.4C99.8553 160.84 99.902 160.373 99.9953 160H97.8953C97.9886 160.373 98.0353 160.84 98.0353 161.4C98.0353 161.937 97.9886 162.403 97.8953 162.8H97.1953C97.2886 163.173 97.3353 163.64 97.3353 164.2C97.3353 164.737 97.2886 165.203 97.1953 165.6H100.695ZM118.699 158.6C118.699 159.137 118.652 159.603 118.559 160C118.652 160.373 118.699 160.84 118.699 161.4C118.699 161.937 118.652 162.403 118.559 162.8H117.159C117.252 163.173 117.299 163.64 117.299 164.2C117.299 164.737 117.252 165.203 117.159 165.6H110.159C110.252 165.973 110.299 166.44 110.299 167C110.299 167.537 110.252 168.003 110.159 168.4C110.252 168.773 110.299 169.24 110.299 169.8C110.299 170.337 110.252 170.803 110.159 171.2C110.252 171.573 110.299 172.04 110.299 172.6C110.299 173.137 110.252 173.603 110.159 174H107.359C107.266 173.603 107.219 173.137 107.219 172.6C107.219 172.04 107.266 171.573 107.359 171.2C107.266 170.803 107.219 170.337 107.219 169.8C107.219 169.24 107.266 168.773 107.359 168.4C107.266 168.003 107.219 167.537 107.219 167C107.219 166.44 107.266 165.973 107.359 165.6C107.266 165.203 107.219 164.737 107.219 164.2C107.219 163.64 107.266 163.173 107.359 162.8C107.266 162.403 107.219 161.937 107.219 161.4C107.219 160.84 107.266 160.373 107.359 160C107.266 159.603 107.219 159.137 107.219 158.6C107.219 158.04 107.266 157.573 107.359 157.2C107.266 156.803 107.219 156.337 107.219 155.8C107.219 155.24 107.266 154.773 107.359 154.4H117.159C117.252 154.773 117.299 155.24 117.299 155.8C117.299 156.337 117.252 156.803 117.159 157.2H118.559C118.652 157.573 118.699 158.04 118.699 158.6ZM115.759 162.8C115.666 162.403 115.619 161.937 115.619 161.4C115.619 160.84 115.666 160.373 115.759 160C115.666 159.603 115.619 159.137 115.619 158.6C115.619 158.04 115.666 157.573 115.759 157.2H110.159C110.252 157.573 110.299 158.04 110.299 158.6C110.299 159.137 110.252 159.603 110.159 160C110.252 160.373 110.299 160.84 110.299 161.4C110.299 161.937 110.252 162.403 110.159 162.8H115.759ZM139.586 165.6C139.68 165.973 139.726 166.44 139.726 167C139.726 167.537 139.68 168.003 139.586 168.4C139.68 168.773 139.726 169.24 139.726 169.8C139.726 170.337 139.68 170.803 139.586 171.2H145.186C145.28 171.573 145.326 172.04 145.326 172.6C145.326 173.137 145.28 173.603 145.186 174H136.786C136.693 173.603 136.646 173.137 136.646 172.6C136.646 172.04 136.693 171.573 136.786 171.2C136.693 170.803 136.646 170.337 136.646 169.8C136.646 169.24 136.693 168.773 136.786 168.4C136.693 168.003 136.646 167.537 136.646 167C136.646 166.44 136.693 165.973 136.786 165.6C136.693 165.203 136.646 164.737 136.646 164.2C136.646 163.64 136.693 163.173 136.786 162.8C136.693 162.403 136.646 161.937 136.646 161.4C136.646 160.84 136.693 160.373 136.786 160C136.693 159.603 136.646 159.137 136.646 158.6C136.646 158.04 136.693 157.573 136.786 157.2C136.693 156.803 136.646 156.337 136.646 155.8C136.646 155.24 136.693 154.773 136.786 154.4H145.186C145.28 154.773 145.326 155.24 145.326 155.8C145.326 156.337 145.28 156.803 145.186 157.2H139.586C139.68 157.573 139.726 158.04 139.726 158.6C139.726 159.137 139.68 159.603 139.586 160C139.68 160.373 139.726 160.84 139.726 161.4C139.726 161.937 139.68 162.403 139.586 162.8H145.186C145.28 163.173 145.326 163.64 145.326 164.2C145.326 164.737 145.28 165.203 145.186 165.6H139.586ZM160.74 155.8C160.74 156.337 160.693 156.803 160.6 157.2H156.4C156.493 157.573 156.54 158.04 156.54 158.6C156.54 159.137 156.493 159.603 156.4 160C156.493 160.373 156.54 160.84 156.54 161.4C156.54 161.937 156.493 162.403 156.4 162.8C156.493 163.173 156.54 163.64 156.54 164.2C156.54 164.737 156.493 165.203 156.4 165.6C156.493 165.973 156.54 166.44 156.54 167C156.54 167.537 156.493 168.003 156.4 168.4C156.493 168.773 156.54 169.24 156.54 169.8C156.54 170.337 156.493 170.803 156.4 171.2C156.493 171.573 156.54 172.04 156.54 172.6C156.54 173.137 156.493 173.603 156.4 174H153.6C153.507 173.603 153.46 173.137 153.46 172.6C153.46 172.04 153.507 171.573 153.6 171.2C153.507 170.803 153.46 170.337 153.46 169.8C153.46 169.24 153.507 168.773 153.6 168.4C153.507 168.003 153.46 167.537 153.46 167C153.46 166.44 153.507 165.973 153.6 165.6C153.507 165.203 153.46 164.737 153.46 164.2C153.46 163.64 153.507 163.173 153.6 162.8C153.507 162.403 153.46 161.937 153.46 161.4C153.46 160.84 153.507 160.373 153.6 160C153.507 159.603 153.46 159.137 153.46 158.6C153.46 158.04 153.507 157.573 153.6 157.2H149.4C149.307 156.803 149.26 156.337 149.26 155.8C149.26 155.24 149.307 154.773 149.4 154.4H160.6C160.693 154.773 160.74 155.24 160.74 155.8ZM174.614 157.2C174.707 157.573 174.754 158.04 174.754 158.6C174.754 159.137 174.707 159.603 174.614 160C174.707 160.373 174.754 160.84 174.754 161.4C174.754 161.937 174.707 162.403 174.614 162.8C174.707 163.173 174.754 163.64 174.754 164.2C174.754 164.737 174.707 165.203 174.614 165.6C174.707 165.973 174.754 166.44 174.754 167C174.754 167.537 174.707 168.003 174.614 168.4C174.707 168.773 174.754 169.24 174.754 169.8C174.754 170.337 174.707 170.803 174.614 171.2C174.707 171.573 174.754 172.04 174.754 172.6C174.754 173.137 174.707 173.603 174.614 174H171.814C171.72 173.603 171.674 173.137 171.674 172.6C171.674 172.04 171.72 171.573 171.814 171.2C171.72 170.803 171.674 170.337 171.674 169.8C171.674 169.24 171.72 168.773 171.814 168.4C171.72 168.003 171.674 167.537 171.674 167C171.674 166.44 171.72 165.973 171.814 165.6H166.214C166.307 165.973 166.354 166.44 166.354 167C166.354 167.537 166.307 168.003 166.214 168.4C166.307 168.773 166.354 169.24 166.354 169.8C166.354 170.337 166.307 170.803 166.214 171.2C166.307 171.573 166.354 172.04 166.354 172.6C166.354 173.137 166.307 173.603 166.214 174H163.414C163.32 173.603 163.274 173.137 163.274 172.6C163.274 172.04 163.32 171.573 163.414 171.2C163.32 170.803 163.274 170.337 163.274 169.8C163.274 169.24 163.32 168.773 163.414 168.4C163.32 168.003 163.274 167.537 163.274 167C163.274 166.44 163.32 165.973 163.414 165.6C163.32 165.203 163.274 164.737 163.274 164.2C163.274 163.64 163.32 163.173 163.414 162.8C163.32 162.403 163.274 161.937 163.274 161.4C163.274 160.84 163.32 160.373 163.414 160C163.32 159.603 163.274 159.137 163.274 158.6C163.274 158.04 163.32 157.573 163.414 157.2C163.32 156.803 163.274 156.337 163.274 155.8C163.274 155.24 163.32 154.773 163.414 154.4H166.214C166.307 154.773 166.354 155.24 166.354 155.8C166.354 156.337 166.307 156.803 166.214 157.2C166.307 157.573 166.354 158.04 166.354 158.6C166.354 159.137 166.307 159.603 166.214 160C166.307 160.373 166.354 160.84 166.354 161.4C166.354 161.937 166.307 162.403 166.214 162.8H171.814C171.72 162.403 171.674 161.937 171.674 161.4C171.674 160.84 171.72 160.373 171.814 160C171.72 159.603 171.674 159.137 171.674 158.6C171.674 158.04 171.72 157.573 171.814 157.2C171.72 156.803 171.674 156.337 171.674 155.8C171.674 155.24 171.72 154.773 171.814 154.4H174.614C174.707 154.773 174.754 155.24 174.754 155.8C174.754 156.337 174.707 156.803 174.614 157.2ZM201.241 162.8C201.334 163.173 201.381 163.64 201.381 164.2C201.381 164.737 201.334 165.203 201.241 165.6H195.641C195.734 165.973 195.781 166.44 195.781 167C195.781 167.537 195.734 168.003 195.641 168.4C195.734 168.773 195.781 169.24 195.781 169.8C195.781 170.337 195.734 170.803 195.641 171.2C195.734 171.573 195.781 172.04 195.781 172.6C195.781 173.137 195.734 173.603 195.641 174H192.841C192.748 173.603 192.701 173.137 192.701 172.6C192.701 172.04 192.748 171.573 192.841 171.2C192.748 170.803 192.701 170.337 192.701 169.8C192.701 169.24 192.748 168.773 192.841 168.4C192.748 168.003 192.701 167.537 192.701 167C192.701 166.44 192.748 165.973 192.841 165.6C192.748 165.203 192.701 164.737 192.701 164.2C192.701 163.64 192.748 163.173 192.841 162.8C192.748 162.403 192.701 161.937 192.701 161.4C192.701 160.84 192.748 160.373 192.841 160C192.748 159.603 192.701 159.137 192.701 158.6C192.701 158.04 192.748 157.573 192.841 157.2C192.748 156.803 192.701 156.337 192.701 155.8C192.701 155.24 192.748 154.773 192.841 154.4H201.241C201.334 154.773 201.381 155.24 201.381 155.8C201.381 156.337 201.334 156.803 201.241 157.2H195.641C195.734 157.573 195.781 158.04 195.781 158.6C195.781 159.137 195.734 159.603 195.641 160C195.734 160.373 195.781 160.84 195.781 161.4C195.781 161.937 195.734 162.403 195.641 162.8H201.241ZM216.655 162.8C216.748 163.173 216.795 163.64 216.795 164.2C216.795 164.737 216.748 165.203 216.655 165.6C216.748 165.973 216.795 166.44 216.795 167C216.795 167.537 216.748 168.003 216.655 168.4H215.605C215.698 168.773 215.745 169.24 215.745 169.8C215.745 170.337 215.698 170.803 215.605 171.2H213.855C213.948 171.573 213.995 172.04 213.995 172.6C213.995 173.137 213.948 173.603 213.855 174H208.255C208.161 173.603 208.115 173.137 208.115 172.6C208.115 172.04 208.161 171.573 208.255 171.2H206.505C206.411 170.803 206.365 170.337 206.365 169.8C206.365 169.24 206.411 168.773 206.505 168.4H205.455C205.361 168.003 205.315 167.537 205.315 167C205.315 166.44 205.361 165.973 205.455 165.6C205.361 165.203 205.315 164.737 205.315 164.2C205.315 163.64 205.361 163.173 205.455 162.8C205.361 162.403 205.315 161.937 205.315 161.4C205.315 160.84 205.361 160.373 205.455 160H206.505C206.411 159.603 206.365 159.137 206.365 158.6C206.365 158.04 206.411 157.573 206.505 157.2H208.255C208.161 156.803 208.115 156.337 208.115 155.8C208.115 155.24 208.161 154.773 208.255 154.4H213.855C213.948 154.773 213.995 155.24 213.995 155.8C213.995 156.337 213.948 156.803 213.855 157.2H215.605C215.698 157.573 215.745 158.04 215.745 158.6C215.745 159.137 215.698 159.603 215.605 160H216.655C216.748 160.373 216.795 160.84 216.795 161.4C216.795 161.937 216.748 162.403 216.655 162.8ZM213.855 168.4C213.761 168.003 213.715 167.537 213.715 167C213.715 166.44 213.761 165.973 213.855 165.6C213.761 165.203 213.715 164.737 213.715 164.2C213.715 163.64 213.761 163.173 213.855 162.8C213.761 162.403 213.715 161.937 213.715 161.4C213.715 160.84 213.761 160.373 213.855 160H212.805C212.711 159.603 212.665 159.137 212.665 158.6C212.665 158.04 212.711 157.573 212.805 157.2H209.305C209.398 157.573 209.445 158.04 209.445 158.6C209.445 159.137 209.398 159.603 209.305 160H208.255C208.348 160.373 208.395 160.84 208.395 161.4C208.395 161.937 208.348 162.403 208.255 162.8C208.348 163.173 208.395 163.64 208.395 164.2C208.395 164.737 208.348 165.203 208.255 165.6C208.348 165.973 208.395 166.44 208.395 167C208.395 167.537 208.348 168.003 208.255 168.4H209.305C209.398 168.773 209.445 169.24 209.445 169.8C209.445 170.337 209.398 170.803 209.305 171.2H212.805C212.711 170.803 212.665 170.337 212.665 169.8C212.665 169.24 212.711 168.773 212.805 168.4H213.855ZM230.668 171.2C230.762 171.573 230.808 172.04 230.808 172.6C230.808 173.137 230.762 173.603 230.668 174H227.868C227.775 173.603 227.728 173.137 227.728 172.6C227.728 172.04 227.775 171.573 227.868 171.2H226.818C226.725 170.803 226.678 170.337 226.678 169.8C226.678 169.24 226.725 168.773 226.818 168.4H225.768C225.675 168.003 225.628 167.537 225.628 167C225.628 166.44 225.675 165.973 225.768 165.6H222.268C222.362 165.973 222.408 166.44 222.408 167C222.408 167.537 222.362 168.003 222.268 168.4C222.362 168.773 222.408 169.24 222.408 169.8C222.408 170.337 222.362 170.803 222.268 171.2C222.362 171.573 222.408 172.04 222.408 172.6C222.408 173.137 222.362 173.603 222.268 174H219.468C219.375 173.603 219.328 173.137 219.328 172.6C219.328 172.04 219.375 171.573 219.468 171.2C219.375 170.803 219.328 170.337 219.328 169.8C219.328 169.24 219.375 168.773 219.468 168.4C219.375 168.003 219.328 167.537 219.328 167C219.328 166.44 219.375 165.973 219.468 165.6C219.375 165.203 219.328 164.737 219.328 164.2C219.328 163.64 219.375 163.173 219.468 162.8C219.375 162.403 219.328 161.937 219.328 161.4C219.328 160.84 219.375 160.373 219.468 160C219.375 159.603 219.328 159.137 219.328 158.6C219.328 158.04 219.375 157.573 219.468 157.2C219.375 156.803 219.328 156.337 219.328 155.8C219.328 155.24 219.375 154.773 219.468 154.4H229.268C229.362 154.773 229.408 155.24 229.408 155.8C229.408 156.337 229.362 156.803 229.268 157.2H230.668C230.762 157.573 230.808 158.04 230.808 158.6C230.808 159.137 230.762 159.603 230.668 160H229.968C230.062 160.373 230.108 160.84 230.108 161.4C230.108 161.937 230.062 162.403 229.968 162.8H227.868C227.962 163.173 228.008 163.64 228.008 164.2C228.008 164.737 227.962 165.203 227.868 165.6H228.568C228.662 165.973 228.708 166.44 228.708 167C228.708 167.537 228.662 168.003 228.568 168.4H229.618C229.712 168.773 229.758 169.24 229.758 169.8C229.758 170.337 229.712 170.803 229.618 171.2H230.668ZM227.168 162.8C227.075 162.403 227.028 161.937 227.028 161.4C227.028 160.84 227.075 160.373 227.168 160C227.075 159.603 227.028 159.137 227.028 158.6C227.028 158.04 227.075 157.573 227.168 157.2H222.268C222.362 157.573 222.408 158.04 222.408 158.6C222.408 159.137 222.362 159.603 222.268 160C222.362 160.373 222.408 160.84 222.408 161.4C222.408 161.937 222.362 162.403 222.268 162.8H227.168ZM83.5248 200.6C83.6181 200.973 83.6648 201.44 83.6648 202C83.6648 202.537 83.6181 203.003 83.5248 203.4C83.6181 203.773 83.6648 204.24 83.6648 204.8C83.6648 205.337 83.6181 205.803 83.5248 206.2H82.1248C82.2181 206.573 82.2648 207.04 82.2648 207.6C82.2648 208.137 82.2181 208.603 82.1248 209H78.9748C79.0681 209.373 79.1148 209.84 79.1148 210.4C79.1148 210.937 79.0681 211.403 78.9748 211.8H76.8748C76.7815 211.403 76.7348 210.937 76.7348 210.4C76.7348 209.84 76.7815 209.373 76.8748 209H73.7248C73.6315 208.603 73.5848 208.137 73.5848 207.6C73.5848 207.04 73.6315 206.573 73.7248 206.2H72.3248C72.2315 205.803 72.1848 205.337 72.1848 204.8C72.1848 204.24 72.2315 203.773 72.3248 203.4H75.1248C75.2181 203.773 75.2648 204.24 75.2648 204.8C75.2648 205.337 75.2181 205.803 75.1248 206.2H76.8748C76.7815 205.803 76.7348 205.337 76.7348 204.8C76.7348 204.24 76.7815 203.773 76.8748 203.4C76.7815 203.003 76.7348 202.537 76.7348 202C76.7348 201.44 76.7815 200.973 76.8748 200.6H73.7248C73.6315 200.203 73.5848 199.737 73.5848 199.2C73.5848 198.64 73.6315 198.173 73.7248 197.8H72.3248C72.2315 197.403 72.1848 196.937 72.1848 196.4C72.1848 195.84 72.2315 195.373 72.3248 195C72.2315 194.603 72.1848 194.137 72.1848 193.6C72.1848 193.04 72.2315 192.573 72.3248 192.2H73.7248C73.6315 191.803 73.5848 191.337 73.5848 190.8C73.5848 190.24 73.6315 189.773 73.7248 189.4H76.8748C76.7815 189.003 76.7348 188.537 76.7348 188C76.7348 187.44 76.7815 186.973 76.8748 186.6H78.9748C79.0681 186.973 79.1148 187.44 79.1148 188C79.1148 188.537 79.0681 189.003 78.9748 189.4H82.1248C82.2181 189.773 82.2648 190.24 82.2648 190.8C82.2648 191.337 82.2181 191.803 82.1248 192.2H83.5248C83.6181 192.573 83.6648 193.04 83.6648 193.6C83.6648 194.137 83.6181 194.603 83.5248 195H80.7248C80.6315 194.603 80.5848 194.137 80.5848 193.6C80.5848 193.04 80.6315 192.573 80.7248 192.2H78.9748C79.0681 192.573 79.1148 193.04 79.1148 193.6C79.1148 194.137 79.0681 194.603 78.9748 195C79.0681 195.373 79.1148 195.84 79.1148 196.4C79.1148 196.937 79.0681 197.403 78.9748 197.8H82.1248C82.2181 198.173 82.2648 198.64 82.2648 199.2C82.2648 199.737 82.2181 200.203 82.1248 200.6H83.5248ZM76.8748 197.8C76.7815 197.403 76.7348 196.937 76.7348 196.4C76.7348 195.84 76.7815 195.373 76.8748 195C76.7815 194.603 76.7348 194.137 76.7348 193.6C76.7348 193.04 76.7815 192.573 76.8748 192.2H75.1248C75.2181 192.573 75.2648 193.04 75.2648 193.6C75.2648 194.137 75.2181 194.603 75.1248 195C75.2181 195.373 75.2648 195.84 75.2648 196.4C75.2648 196.937 75.2181 197.403 75.1248 197.8H76.8748ZM80.7248 206.2C80.6315 205.803 80.5848 205.337 80.5848 204.8C80.5848 204.24 80.6315 203.773 80.7248 203.4C80.6315 203.003 80.5848 202.537 80.5848 202C80.5848 201.44 80.6315 200.973 80.7248 200.6H78.9748C79.0681 200.973 79.1148 201.44 79.1148 202C79.1148 202.537 79.0681 203.003 78.9748 203.4C79.0681 203.773 79.1148 204.24 79.1148 204.8C79.1148 205.337 79.0681 205.803 78.9748 206.2H80.7248ZM97.6785 196.4C97.6785 196.937 97.6318 197.403 97.5385 197.8H96.1385C96.2318 198.173 96.2785 198.64 96.2785 199.2C96.2785 199.737 96.2318 200.203 96.1385 200.6H97.5385C97.6318 200.973 97.6785 201.44 97.6785 202C97.6785 202.537 97.6318 203.003 97.5385 203.4C97.6318 203.773 97.6785 204.24 97.6785 204.8C97.6785 205.337 97.6318 205.803 97.5385 206.2H96.1385C96.2318 206.573 96.2785 207.04 96.2785 207.6C96.2785 208.137 96.2318 208.603 96.1385 209H86.3385C86.2451 208.603 86.1985 208.137 86.1985 207.6C86.1985 207.04 86.2451 206.573 86.3385 206.2C86.2451 205.803 86.1985 205.337 86.1985 204.8C86.1985 204.24 86.2451 203.773 86.3385 203.4C86.2451 203.003 86.1985 202.537 86.1985 202C86.1985 201.44 86.2451 200.973 86.3385 200.6C86.2451 200.203 86.1985 199.737 86.1985 199.2C86.1985 198.64 86.2451 198.173 86.3385 197.8C86.2451 197.403 86.1985 196.937 86.1985 196.4C86.1985 195.84 86.2451 195.373 86.3385 195C86.2451 194.603 86.1985 194.137 86.1985 193.6C86.1985 193.04 86.2451 192.573 86.3385 192.2C86.2451 191.803 86.1985 191.337 86.1985 190.8C86.1985 190.24 86.2451 189.773 86.3385 189.4H96.1385C96.2318 189.773 96.2785 190.24 96.2785 190.8C96.2785 191.337 96.2318 191.803 96.1385 192.2H97.5385C97.6318 192.573 97.6785 193.04 97.6785 193.6C97.6785 194.137 97.6318 194.603 97.5385 195C97.6318 195.373 97.6785 195.84 97.6785 196.4ZM94.7385 197.8C94.6451 197.403 94.5985 196.937 94.5985 196.4C94.5985 195.84 94.6451 195.373 94.7385 195C94.6451 194.603 94.5985 194.137 94.5985 193.6C94.5985 193.04 94.6451 192.573 94.7385 192.2H89.1385C89.2318 192.573 89.2785 193.04 89.2785 193.6C89.2785 194.137 89.2318 194.603 89.1385 195C89.2318 195.373 89.2785 195.84 89.2785 196.4C89.2785 196.937 89.2318 197.403 89.1385 197.8H94.7385ZM94.7385 203.4C94.6451 203.003 94.5985 202.537 94.5985 202C94.5985 201.44 94.6451 200.973 94.7385 200.6H89.1385C89.2318 200.973 89.2785 201.44 89.2785 202C89.2785 202.537 89.2318 203.003 89.1385 203.4C89.2318 203.773 89.2785 204.24 89.2785 204.8C89.2785 205.337 89.2318 205.803 89.1385 206.2H94.7385C94.6451 205.803 94.5985 205.337 94.5985 204.8C94.5985 204.24 94.6451 203.773 94.7385 203.4ZM111.552 197.8C111.645 198.173 111.692 198.64 111.692 199.2C111.692 199.737 111.645 200.203 111.552 200.6C111.645 200.973 111.692 201.44 111.692 202C111.692 202.537 111.645 203.003 111.552 203.4H110.502C110.595 203.773 110.642 204.24 110.642 204.8C110.642 205.337 110.595 205.803 110.502 206.2H108.752C108.845 206.573 108.892 207.04 108.892 207.6C108.892 208.137 108.845 208.603 108.752 209H103.152C103.059 208.603 103.012 208.137 103.012 207.6C103.012 207.04 103.059 206.573 103.152 206.2H101.402C101.309 205.803 101.262 205.337 101.262 204.8C101.262 204.24 101.309 203.773 101.402 203.4H100.352C100.259 203.003 100.212 202.537 100.212 202C100.212 201.44 100.259 200.973 100.352 200.6C100.259 200.203 100.212 199.737 100.212 199.2C100.212 198.64 100.259 198.173 100.352 197.8C100.259 197.403 100.212 196.937 100.212 196.4C100.212 195.84 100.259 195.373 100.352 195H101.402C101.309 194.603 101.262 194.137 101.262 193.6C101.262 193.04 101.309 192.573 101.402 192.2H103.152C103.059 191.803 103.012 191.337 103.012 190.8C103.012 190.24 103.059 189.773 103.152 189.4H108.752C108.845 189.773 108.892 190.24 108.892 190.8C108.892 191.337 108.845 191.803 108.752 192.2H110.502C110.595 192.573 110.642 193.04 110.642 193.6C110.642 194.137 110.595 194.603 110.502 195H111.552C111.645 195.373 111.692 195.84 111.692 196.4C111.692 196.937 111.645 197.403 111.552 197.8ZM108.752 203.4C108.659 203.003 108.612 202.537 108.612 202C108.612 201.44 108.659 200.973 108.752 200.6C108.659 200.203 108.612 199.737 108.612 199.2C108.612 198.64 108.659 198.173 108.752 197.8C108.659 197.403 108.612 196.937 108.612 196.4C108.612 195.84 108.659 195.373 108.752 195H107.702C107.609 194.603 107.562 194.137 107.562 193.6C107.562 193.04 107.609 192.573 107.702 192.2H104.202C104.295 192.573 104.342 193.04 104.342 193.6C104.342 194.137 104.295 194.603 104.202 195H103.152C103.245 195.373 103.292 195.84 103.292 196.4C103.292 196.937 103.245 197.403 103.152 197.8C103.245 198.173 103.292 198.64 103.292 199.2C103.292 199.737 103.245 200.203 103.152 200.6C103.245 200.973 103.292 201.44 103.292 202C103.292 202.537 103.245 203.003 103.152 203.4H104.202C104.295 203.773 104.342 204.24 104.342 204.8C104.342 205.337 104.295 205.803 104.202 206.2H107.702C107.609 205.803 107.562 205.337 107.562 204.8C107.562 204.24 107.609 203.773 107.702 203.4H108.752ZM125.566 197.8C125.659 198.173 125.706 198.64 125.706 199.2C125.706 199.737 125.659 200.203 125.566 200.6C125.659 200.973 125.706 201.44 125.706 202C125.706 202.537 125.659 203.003 125.566 203.4H124.516C124.609 203.773 124.656 204.24 124.656 204.8C124.656 205.337 124.609 205.803 124.516 206.2H122.766C122.859 206.573 122.906 207.04 122.906 207.6C122.906 208.137 122.859 208.603 122.766 209H117.166C117.072 208.603 117.026 208.137 117.026 207.6C117.026 207.04 117.072 206.573 117.166 206.2H115.416C115.322 205.803 115.276 205.337 115.276 204.8C115.276 204.24 115.322 203.773 115.416 203.4H114.366C114.272 203.003 114.226 202.537 114.226 202C114.226 201.44 114.272 200.973 114.366 200.6C114.272 200.203 114.226 199.737 114.226 199.2C114.226 198.64 114.272 198.173 114.366 197.8C114.272 197.403 114.226 196.937 114.226 196.4C114.226 195.84 114.272 195.373 114.366 195H115.416C115.322 194.603 115.276 194.137 115.276 193.6C115.276 193.04 115.322 192.573 115.416 192.2H117.166C117.072 191.803 117.026 191.337 117.026 190.8C117.026 190.24 117.072 189.773 117.166 189.4H122.766C122.859 189.773 122.906 190.24 122.906 190.8C122.906 191.337 122.859 191.803 122.766 192.2H124.516C124.609 192.573 124.656 193.04 124.656 193.6C124.656 194.137 124.609 194.603 124.516 195H125.566C125.659 195.373 125.706 195.84 125.706 196.4C125.706 196.937 125.659 197.403 125.566 197.8ZM122.766 203.4C122.672 203.003 122.626 202.537 122.626 202C122.626 201.44 122.672 200.973 122.766 200.6C122.672 200.203 122.626 199.737 122.626 199.2C122.626 198.64 122.672 198.173 122.766 197.8C122.672 197.403 122.626 196.937 122.626 196.4C122.626 195.84 122.672 195.373 122.766 195H121.716C121.622 194.603 121.576 194.137 121.576 193.6C121.576 193.04 121.622 192.573 121.716 192.2H118.216C118.309 192.573 118.356 193.04 118.356 193.6C118.356 194.137 118.309 194.603 118.216 195H117.166C117.259 195.373 117.306 195.84 117.306 196.4C117.306 196.937 117.259 197.403 117.166 197.8C117.259 198.173 117.306 198.64 117.306 199.2C117.306 199.737 117.259 200.203 117.166 200.6C117.259 200.973 117.306 201.44 117.306 202C117.306 202.537 117.259 203.003 117.166 203.4H118.216C118.309 203.773 118.356 204.24 118.356 204.8C118.356 205.337 118.309 205.803 118.216 206.2H121.716C121.622 205.803 121.576 205.337 121.576 204.8C121.576 204.24 121.622 203.773 121.716 203.4H122.766ZM139.579 197.8C139.673 198.173 139.719 198.64 139.719 199.2C139.719 199.737 139.673 200.203 139.579 200.6C139.673 200.973 139.719 201.44 139.719 202C139.719 202.537 139.673 203.003 139.579 203.4H138.529C138.623 203.773 138.669 204.24 138.669 204.8C138.669 205.337 138.623 205.803 138.529 206.2H136.779C136.873 206.573 136.919 207.04 136.919 207.6C136.919 208.137 136.873 208.603 136.779 209H131.179C131.086 208.603 131.039 208.137 131.039 207.6C131.039 207.04 131.086 206.573 131.179 206.2H129.429C129.336 205.803 129.289 205.337 129.289 204.8C129.289 204.24 129.336 203.773 129.429 203.4H128.379C128.286 203.003 128.239 202.537 128.239 202C128.239 201.44 128.286 200.973 128.379 200.6C128.286 200.203 128.239 199.737 128.239 199.2C128.239 198.64 128.286 198.173 128.379 197.8C128.286 197.403 128.239 196.937 128.239 196.4C128.239 195.84 128.286 195.373 128.379 195H129.429C129.336 194.603 129.289 194.137 129.289 193.6C129.289 193.04 129.336 192.573 129.429 192.2H131.179C131.086 191.803 131.039 191.337 131.039 190.8C131.039 190.24 131.086 189.773 131.179 189.4H136.779C136.873 189.773 136.919 190.24 136.919 190.8C136.919 191.337 136.873 191.803 136.779 192.2H138.529C138.623 192.573 138.669 193.04 138.669 193.6C138.669 194.137 138.623 194.603 138.529 195H139.579C139.673 195.373 139.719 195.84 139.719 196.4C139.719 196.937 139.673 197.403 139.579 197.8ZM136.779 203.4C136.686 203.003 136.639 202.537 136.639 202C136.639 201.44 136.686 200.973 136.779 200.6C136.686 200.203 136.639 199.737 136.639 199.2C136.639 198.64 136.686 198.173 136.779 197.8C136.686 197.403 136.639 196.937 136.639 196.4C136.639 195.84 136.686 195.373 136.779 195H135.729C135.636 194.603 135.589 194.137 135.589 193.6C135.589 193.04 135.636 192.573 135.729 192.2H132.229C132.323 192.573 132.369 193.04 132.369 193.6C132.369 194.137 132.323 194.603 132.229 195H131.179C131.273 195.373 131.319 195.84 131.319 196.4C131.319 196.937 131.273 197.403 131.179 197.8C131.273 198.173 131.319 198.64 131.319 199.2C131.319 199.737 131.273 200.203 131.179 200.6C131.273 200.973 131.319 201.44 131.319 202C131.319 202.537 131.273 203.003 131.179 203.4H132.229C132.323 203.773 132.369 204.24 132.369 204.8C132.369 205.337 132.323 205.803 132.229 206.2H135.729C135.636 205.803 135.589 205.337 135.589 204.8C135.589 204.24 135.636 203.773 135.729 203.4H136.779ZM153.593 197.8C153.686 198.173 153.733 198.64 153.733 199.2C153.733 199.737 153.686 200.203 153.593 200.6C153.686 200.973 153.733 201.44 153.733 202C153.733 202.537 153.686 203.003 153.593 203.4H152.543C152.636 203.773 152.683 204.24 152.683 204.8C152.683 205.337 152.636 205.803 152.543 206.2H150.793C150.886 206.573 150.933 207.04 150.933 207.6C150.933 208.137 150.886 208.603 150.793 209H145.193C145.1 208.603 145.053 208.137 145.053 207.6C145.053 207.04 145.1 206.573 145.193 206.2H143.443C143.35 205.803 143.303 205.337 143.303 204.8C143.303 204.24 143.35 203.773 143.443 203.4H142.393C142.3 203.003 142.253 202.537 142.253 202C142.253 201.44 142.3 200.973 142.393 200.6C142.3 200.203 142.253 199.737 142.253 199.2C142.253 198.64 142.3 198.173 142.393 197.8C142.3 197.403 142.253 196.937 142.253 196.4C142.253 195.84 142.3 195.373 142.393 195H143.443C143.35 194.603 143.303 194.137 143.303 193.6C143.303 193.04 143.35 192.573 143.443 192.2H145.193C145.1 191.803 145.053 191.337 145.053 190.8C145.053 190.24 145.1 189.773 145.193 189.4H150.793C150.886 189.773 150.933 190.24 150.933 190.8C150.933 191.337 150.886 191.803 150.793 192.2H152.543C152.636 192.573 152.683 193.04 152.683 193.6C152.683 194.137 152.636 194.603 152.543 195H153.593C153.686 195.373 153.733 195.84 153.733 196.4C153.733 196.937 153.686 197.403 153.593 197.8ZM150.793 203.4C150.7 203.003 150.653 202.537 150.653 202C150.653 201.44 150.7 200.973 150.793 200.6C150.7 200.203 150.653 199.737 150.653 199.2C150.653 198.64 150.7 198.173 150.793 197.8C150.7 197.403 150.653 196.937 150.653 196.4C150.653 195.84 150.7 195.373 150.793 195H149.743C149.65 194.603 149.603 194.137 149.603 193.6C149.603 193.04 149.65 192.573 149.743 192.2H146.243C146.336 192.573 146.383 193.04 146.383 193.6C146.383 194.137 146.336 194.603 146.243 195H145.193C145.286 195.373 145.333 195.84 145.333 196.4C145.333 196.937 145.286 197.403 145.193 197.8C145.286 198.173 145.333 198.64 145.333 199.2C145.333 199.737 145.286 200.203 145.193 200.6C145.286 200.973 145.333 201.44 145.333 202C145.333 202.537 145.286 203.003 145.193 203.4H146.243C146.336 203.773 146.383 204.24 146.383 204.8C146.383 205.337 146.336 205.803 146.243 206.2H149.743C149.65 205.803 149.603 205.337 149.603 204.8C149.603 204.24 149.65 203.773 149.743 203.4H150.793ZM167.607 192.2C167.7 192.573 167.747 193.04 167.747 193.6C167.747 194.137 167.7 194.603 167.607 195C167.7 195.373 167.747 195.84 167.747 196.4C167.747 196.937 167.7 197.403 167.607 197.8C167.7 198.173 167.747 198.64 167.747 199.2C167.747 199.737 167.7 200.203 167.607 200.6C167.7 200.973 167.747 201.44 167.747 202C167.747 202.537 167.7 203.003 167.607 203.4C167.7 203.773 167.747 204.24 167.747 204.8C167.747 205.337 167.7 205.803 167.607 206.2C167.7 206.573 167.747 207.04 167.747 207.6C167.747 208.137 167.7 208.603 167.607 209H164.807C164.714 208.603 164.667 208.137 164.667 207.6C164.667 207.04 164.714 206.573 164.807 206.2C164.714 205.803 164.667 205.337 164.667 204.8C164.667 204.24 164.714 203.773 164.807 203.4C164.714 203.003 164.667 202.537 164.667 202C164.667 201.44 164.714 200.973 164.807 200.6C164.714 200.203 164.667 199.737 164.667 199.2C164.667 198.64 164.714 198.173 164.807 197.8C164.714 197.403 164.667 196.937 164.667 196.4C164.667 195.84 164.714 195.373 164.807 195H163.757C163.85 195.373 163.897 195.84 163.897 196.4C163.897 196.937 163.85 197.403 163.757 197.8C163.85 198.173 163.897 198.64 163.897 199.2C163.897 199.737 163.85 200.203 163.757 200.6H163.057C163.15 200.973 163.197 201.44 163.197 202C163.197 202.537 163.15 203.003 163.057 203.4C163.15 203.773 163.197 204.24 163.197 204.8C163.197 205.337 163.15 205.803 163.057 206.2H160.957C160.864 205.803 160.817 205.337 160.817 204.8C160.817 204.24 160.864 203.773 160.957 203.4C160.864 203.003 160.817 202.537 160.817 202C160.817 201.44 160.864 200.973 160.957 200.6H160.257C160.164 200.203 160.117 199.737 160.117 199.2C160.117 198.64 160.164 198.173 160.257 197.8C160.164 197.403 160.117 196.937 160.117 196.4C160.117 195.84 160.164 195.373 160.257 195H159.207C159.3 195.373 159.347 195.84 159.347 196.4C159.347 196.937 159.3 197.403 159.207 197.8C159.3 198.173 159.347 198.64 159.347 199.2C159.347 199.737 159.3 200.203 159.207 200.6C159.3 200.973 159.347 201.44 159.347 202C159.347 202.537 159.3 203.003 159.207 203.4C159.3 203.773 159.347 204.24 159.347 204.8C159.347 205.337 159.3 205.803 159.207 206.2C159.3 206.573 159.347 207.04 159.347 207.6C159.347 208.137 159.3 208.603 159.207 209H156.407C156.314 208.603 156.267 208.137 156.267 207.6C156.267 207.04 156.314 206.573 156.407 206.2C156.314 205.803 156.267 205.337 156.267 204.8C156.267 204.24 156.314 203.773 156.407 203.4C156.314 203.003 156.267 202.537 156.267 202C156.267 201.44 156.314 200.973 156.407 200.6C156.314 200.203 156.267 199.737 156.267 199.2C156.267 198.64 156.314 198.173 156.407 197.8C156.314 197.403 156.267 196.937 156.267 196.4C156.267 195.84 156.314 195.373 156.407 195C156.314 194.603 156.267 194.137 156.267 193.6C156.267 193.04 156.314 192.573 156.407 192.2C156.314 191.803 156.267 191.337 156.267 190.8C156.267 190.24 156.314 189.773 156.407 189.4H159.907C160 189.773 160.047 190.24 160.047 190.8C160.047 191.337 160 191.803 159.907 192.2H160.957C161.05 192.573 161.097 193.04 161.097 193.6C161.097 194.137 161.05 194.603 160.957 195H161.482C161.575 195.373 161.622 195.84 161.622 196.4C161.622 196.937 161.575 197.403 161.482 197.8H162.532C162.439 197.403 162.392 196.937 162.392 196.4C162.392 195.84 162.439 195.373 162.532 195H163.057C162.964 194.603 162.917 194.137 162.917 193.6C162.917 193.04 162.964 192.573 163.057 192.2H164.107C164.014 191.803 163.967 191.337 163.967 190.8C163.967 190.24 164.014 189.773 164.107 189.4H167.607C167.7 189.773 167.747 190.24 167.747 190.8C167.747 191.337 167.7 191.803 167.607 192.2ZM195.774 204.8C195.774 205.337 195.728 205.803 195.634 206.2C195.728 206.573 195.774 207.04 195.774 207.6C195.774 208.137 195.728 208.603 195.634 209H192.834C192.741 208.603 192.694 208.137 192.694 207.6C192.694 207.04 192.741 206.573 192.834 206.2C192.741 205.803 192.694 205.337 192.694 204.8C192.694 204.24 192.741 203.773 192.834 203.4H187.234C187.328 203.773 187.374 204.24 187.374 204.8C187.374 205.337 187.328 205.803 187.234 206.2C187.328 206.573 187.374 207.04 187.374 207.6C187.374 208.137 187.328 208.603 187.234 209H184.434C184.341 208.603 184.294 208.137 184.294 207.6C184.294 207.04 184.341 206.573 184.434 206.2C184.341 205.803 184.294 205.337 184.294 204.8C184.294 204.24 184.341 203.773 184.434 203.4H185.484C185.391 203.003 185.344 202.537 185.344 202C185.344 201.44 185.391 200.973 185.484 200.6C185.391 200.203 185.344 199.737 185.344 199.2C185.344 198.64 185.391 198.173 185.484 197.8H186.184C186.091 197.403 186.044 196.937 186.044 196.4C186.044 195.84 186.091 195.373 186.184 195H187.234C187.141 194.603 187.094 194.137 187.094 193.6C187.094 193.04 187.141 192.573 187.234 192.2H187.934C187.841 191.803 187.794 191.337 187.794 190.8C187.794 190.24 187.841 189.773 187.934 189.4H192.134C192.228 189.773 192.274 190.24 192.274 190.8C192.274 191.337 192.228 191.803 192.134 192.2H192.834C192.928 192.573 192.974 193.04 192.974 193.6C192.974 194.137 192.928 194.603 192.834 195H193.884C193.978 195.373 194.024 195.84 194.024 196.4C194.024 196.937 193.978 197.403 193.884 197.8H194.584C194.678 198.173 194.724 198.64 194.724 199.2C194.724 199.737 194.678 200.203 194.584 200.6C194.678 200.973 194.724 201.44 194.724 202C194.724 202.537 194.678 203.003 194.584 203.4H195.634C195.728 203.773 195.774 204.24 195.774 204.8ZM191.784 200.6C191.691 200.203 191.644 199.737 191.644 199.2C191.644 198.64 191.691 198.173 191.784 197.8H191.084C190.991 197.403 190.944 196.937 190.944 196.4C190.944 195.84 190.991 195.373 191.084 195H188.984C189.078 195.373 189.124 195.84 189.124 196.4C189.124 196.937 189.078 197.403 188.984 197.8H188.284C188.378 198.173 188.424 198.64 188.424 199.2C188.424 199.737 188.378 200.203 188.284 200.6H191.784ZM209.648 192.2C209.741 192.573 209.788 193.04 209.788 193.6C209.788 194.137 209.741 194.603 209.648 195C209.741 195.373 209.788 195.84 209.788 196.4C209.788 196.937 209.741 197.403 209.648 197.8C209.741 198.173 209.788 198.64 209.788 199.2C209.788 199.737 209.741 200.203 209.648 200.6C209.741 200.973 209.788 201.44 209.788 202C209.788 202.537 209.741 203.003 209.648 203.4C209.741 203.773 209.788 204.24 209.788 204.8C209.788 205.337 209.741 205.803 209.648 206.2C209.741 206.573 209.788 207.04 209.788 207.6C209.788 208.137 209.741 208.603 209.648 209H206.848C206.755 208.603 206.708 208.137 206.708 207.6C206.708 207.04 206.755 206.573 206.848 206.2H205.098C205.005 205.803 204.958 205.337 204.958 204.8C204.958 204.24 205.005 203.773 205.098 203.4H204.048C203.955 203.003 203.908 202.537 203.908 202C203.908 201.44 203.955 200.973 204.048 200.6H202.648C202.555 200.203 202.508 199.737 202.508 199.2C202.508 198.64 202.555 198.173 202.648 197.8H201.248C201.341 198.173 201.388 198.64 201.388 199.2C201.388 199.737 201.341 200.203 201.248 200.6C201.341 200.973 201.388 201.44 201.388 202C201.388 202.537 201.341 203.003 201.248 203.4C201.341 203.773 201.388 204.24 201.388 204.8C201.388 205.337 201.341 205.803 201.248 206.2C201.341 206.573 201.388 207.04 201.388 207.6C201.388 208.137 201.341 208.603 201.248 209H198.448C198.355 208.603 198.308 208.137 198.308 207.6C198.308 207.04 198.355 206.573 198.448 206.2C198.355 205.803 198.308 205.337 198.308 204.8C198.308 204.24 198.355 203.773 198.448 203.4C198.355 203.003 198.308 202.537 198.308 202C198.308 201.44 198.355 200.973 198.448 200.6C198.355 200.203 198.308 199.737 198.308 199.2C198.308 198.64 198.355 198.173 198.448 197.8C198.355 197.403 198.308 196.937 198.308 196.4C198.308 195.84 198.355 195.373 198.448 195C198.355 194.603 198.308 194.137 198.308 193.6C198.308 193.04 198.355 192.573 198.448 192.2C198.355 191.803 198.308 191.337 198.308 190.8C198.308 190.24 198.355 189.773 198.448 189.4H201.948C202.041 189.773 202.088 190.24 202.088 190.8C202.088 191.337 202.041 191.803 201.948 192.2H202.998C203.091 192.573 203.138 193.04 203.138 193.6C203.138 194.137 203.091 194.603 202.998 195H204.048C204.141 195.373 204.188 195.84 204.188 196.4C204.188 196.937 204.141 197.403 204.048 197.8H205.448C205.541 198.173 205.588 198.64 205.588 199.2C205.588 199.737 205.541 200.203 205.448 200.6H206.848C206.755 200.203 206.708 199.737 206.708 199.2C206.708 198.64 206.755 198.173 206.848 197.8C206.755 197.403 206.708 196.937 206.708 196.4C206.708 195.84 206.755 195.373 206.848 195C206.755 194.603 206.708 194.137 206.708 193.6C206.708 193.04 206.755 192.573 206.848 192.2C206.755 191.803 206.708 191.337 206.708 190.8C206.708 190.24 206.755 189.773 206.848 189.4H209.648C209.741 189.773 209.788 190.24 209.788 190.8C209.788 191.337 209.741 191.803 209.648 192.2ZM223.662 197.8C223.755 198.173 223.802 198.64 223.802 199.2C223.802 199.737 223.755 200.203 223.662 200.6C223.755 200.973 223.802 201.44 223.802 202C223.802 202.537 223.755 203.003 223.662 203.4H222.262C222.355 203.773 222.402 204.24 222.402 204.8C222.402 205.337 222.355 205.803 222.262 206.2H220.862C220.955 206.573 221.002 207.04 221.002 207.6C221.002 208.137 220.955 208.603 220.862 209H212.462C212.368 208.603 212.322 208.137 212.322 207.6C212.322 207.04 212.368 206.573 212.462 206.2C212.368 205.803 212.322 205.337 212.322 204.8C212.322 204.24 212.368 203.773 212.462 203.4C212.368 203.003 212.322 202.537 212.322 202C212.322 201.44 212.368 200.973 212.462 200.6C212.368 200.203 212.322 199.737 212.322 199.2C212.322 198.64 212.368 198.173 212.462 197.8C212.368 197.403 212.322 196.937 212.322 196.4C212.322 195.84 212.368 195.373 212.462 195C212.368 194.603 212.322 194.137 212.322 193.6C212.322 193.04 212.368 192.573 212.462 192.2C212.368 191.803 212.322 191.337 212.322 190.8C212.322 190.24 212.368 189.773 212.462 189.4H220.862C220.955 189.773 221.002 190.24 221.002 190.8C221.002 191.337 220.955 191.803 220.862 192.2H222.262C222.355 192.573 222.402 193.04 222.402 193.6C222.402 194.137 222.355 194.603 222.262 195H223.662C223.755 195.373 223.802 195.84 223.802 196.4C223.802 196.937 223.755 197.403 223.662 197.8ZM220.862 203.4C220.768 203.003 220.722 202.537 220.722 202C220.722 201.44 220.768 200.973 220.862 200.6C220.768 200.203 220.722 199.737 220.722 199.2C220.722 198.64 220.768 198.173 220.862 197.8C220.768 197.403 220.722 196.937 220.722 196.4C220.722 195.84 220.768 195.373 220.862 195H219.462C219.368 194.603 219.322 194.137 219.322 193.6C219.322 193.04 219.368 192.573 219.462 192.2H215.262C215.355 192.573 215.402 193.04 215.402 193.6C215.402 194.137 215.355 194.603 215.262 195C215.355 195.373 215.402 195.84 215.402 196.4C215.402 196.937 215.355 197.403 215.262 197.8C215.355 198.173 215.402 198.64 215.402 199.2C215.402 199.737 215.355 200.203 215.262 200.6C215.355 200.973 215.402 201.44 215.402 202C215.402 202.537 215.355 203.003 215.262 203.4C215.355 203.773 215.402 204.24 215.402 204.8C215.402 205.337 215.355 205.803 215.262 206.2H219.462C219.368 205.803 219.322 205.337 219.322 204.8C219.322 204.24 219.368 203.773 219.462 203.4H220.862ZM68.9511 225.8C68.9511 226.337 68.9045 226.803 68.8111 227.2H66.7111C66.8045 227.573 66.8511 228.04 66.8511 228.6C66.8511 229.137 66.8045 229.603 66.7111 230C66.8045 230.373 66.8511 230.84 66.8511 231.4C66.8511 231.937 66.8045 232.403 66.7111 232.8C66.8045 233.173 66.8511 233.64 66.8511 234.2C66.8511 234.737 66.8045 235.203 66.7111 235.6C66.8045 235.973 66.8511 236.44 66.8511 237C66.8511 237.537 66.8045 238.003 66.7111 238.4C66.8045 238.773 66.8511 239.24 66.8511 239.8C66.8511 240.337 66.8045 240.803 66.7111 241.2H65.3111C65.4045 241.573 65.4511 242.04 65.4511 242.6C65.4511 243.137 65.4045 243.603 65.3111 244H59.7111C59.6178 243.603 59.5711 243.137 59.5711 242.6C59.5711 242.04 59.6178 241.573 59.7111 241.2H58.3111C58.2178 240.803 58.1711 240.337 58.1711 239.8C58.1711 239.24 58.2178 238.773 58.3111 238.4H61.1111C61.2045 238.773 61.2511 239.24 61.2511 239.8C61.2511 240.337 61.2045 240.803 61.1111 241.2H63.9111C63.8178 240.803 63.7711 240.337 63.7711 239.8C63.7711 239.24 63.8178 238.773 63.9111 238.4C63.8178 238.003 63.7711 237.537 63.7711 237C63.7711 236.44 63.8178 235.973 63.9111 235.6C63.8178 235.203 63.7711 234.737 63.7711 234.2C63.7711 233.64 63.8178 233.173 63.9111 232.8C63.8178 232.403 63.7711 231.937 63.7711 231.4C63.7711 230.84 63.8178 230.373 63.9111 230C63.8178 229.603 63.7711 229.137 63.7711 228.6C63.7711 228.04 63.8178 227.573 63.9111 227.2H61.8111C61.7178 226.803 61.6711 226.337 61.6711 225.8C61.6711 225.24 61.7178 224.773 61.8111 224.4H68.8111C68.9045 224.773 68.9511 225.24 68.9511 225.8ZM83.5248 232.8C83.6181 233.173 83.6648 233.64 83.6648 234.2C83.6648 234.737 83.6181 235.203 83.5248 235.6C83.6181 235.973 83.6648 236.44 83.6648 237C83.6648 237.537 83.6181 238.003 83.5248 238.4H82.4748C82.5681 238.773 82.6148 239.24 82.6148 239.8C82.6148 240.337 82.5681 240.803 82.4748 241.2H80.7248C80.8181 241.573 80.8648 242.04 80.8648 242.6C80.8648 243.137 80.8181 243.603 80.7248 244H75.1248C75.0315 243.603 74.9848 243.137 74.9848 242.6C74.9848 242.04 75.0315 241.573 75.1248 241.2H73.3748C73.2815 240.803 73.2348 240.337 73.2348 239.8C73.2348 239.24 73.2815 238.773 73.3748 238.4H72.3248C72.2315 238.003 72.1848 237.537 72.1848 237C72.1848 236.44 72.2315 235.973 72.3248 235.6C72.2315 235.203 72.1848 234.737 72.1848 234.2C72.1848 233.64 72.2315 233.173 72.3248 232.8C72.2315 232.403 72.1848 231.937 72.1848 231.4C72.1848 230.84 72.2315 230.373 72.3248 230H73.3748C73.2815 229.603 73.2348 229.137 73.2348 228.6C73.2348 228.04 73.2815 227.573 73.3748 227.2H75.1248C75.0315 226.803 74.9848 226.337 74.9848 225.8C74.9848 225.24 75.0315 224.773 75.1248 224.4H80.7248C80.8181 224.773 80.8648 225.24 80.8648 225.8C80.8648 226.337 80.8181 226.803 80.7248 227.2H82.4748C82.5681 227.573 82.6148 228.04 82.6148 228.6C82.6148 229.137 82.5681 229.603 82.4748 230H83.5248C83.6181 230.373 83.6648 230.84 83.6648 231.4C83.6648 231.937 83.6181 232.403 83.5248 232.8ZM80.7248 238.4C80.6315 238.003 80.5848 237.537 80.5848 237C80.5848 236.44 80.6315 235.973 80.7248 235.6C80.6315 235.203 80.5848 234.737 80.5848 234.2C80.5848 233.64 80.6315 233.173 80.7248 232.8C80.6315 232.403 80.5848 231.937 80.5848 231.4C80.5848 230.84 80.6315 230.373 80.7248 230H79.6748C79.5815 229.603 79.5348 229.137 79.5348 228.6C79.5348 228.04 79.5815 227.573 79.6748 227.2H76.1748C76.2681 227.573 76.3148 228.04 76.3148 228.6C76.3148 229.137 76.2681 229.603 76.1748 230H75.1248C75.2181 230.373 75.2648 230.84 75.2648 231.4C75.2648 231.937 75.2181 232.403 75.1248 232.8C75.2181 233.173 75.2648 233.64 75.2648 234.2C75.2648 234.737 75.2181 235.203 75.1248 235.6C75.2181 235.973 75.2648 236.44 75.2648 237C75.2648 237.537 75.2181 238.003 75.1248 238.4H76.1748C76.2681 238.773 76.3148 239.24 76.3148 239.8C76.3148 240.337 76.2681 240.803 76.1748 241.2H79.6748C79.5815 240.803 79.5348 240.337 79.5348 239.8C79.5348 239.24 79.5815 238.773 79.6748 238.4H80.7248ZM95.4385 241.2C95.5318 241.573 95.5785 242.04 95.5785 242.6C95.5785 243.137 95.5318 243.603 95.4385 244H88.4385C88.3451 243.603 88.2985 243.137 88.2985 242.6C88.2985 242.04 88.3451 241.573 88.4385 241.2H90.5385C90.4451 240.803 90.3985 240.337 90.3985 239.8C90.3985 239.24 90.4451 238.773 90.5385 238.4C90.4451 238.003 90.3985 237.537 90.3985 237C90.3985 236.44 90.4451 235.973 90.5385 235.6C90.4451 235.203 90.3985 234.737 90.3985 234.2C90.3985 233.64 90.4451 233.173 90.5385 232.8C90.4451 232.403 90.3985 231.937 90.3985 231.4C90.3985 230.84 90.4451 230.373 90.5385 230C90.4451 229.603 90.3985 229.137 90.3985 228.6C90.3985 228.04 90.4451 227.573 90.5385 227.2H88.4385C88.3451 226.803 88.2985 226.337 88.2985 225.8C88.2985 225.24 88.3451 224.773 88.4385 224.4H95.4385C95.5318 224.773 95.5785 225.24 95.5785 225.8C95.5785 226.337 95.5318 226.803 95.4385 227.2H93.3385C93.4318 227.573 93.4785 228.04 93.4785 228.6C93.4785 229.137 93.4318 229.603 93.3385 230C93.4318 230.373 93.4785 230.84 93.4785 231.4C93.4785 231.937 93.4318 232.403 93.3385 232.8C93.4318 233.173 93.4785 233.64 93.4785 234.2C93.4785 234.737 93.4318 235.203 93.3385 235.6C93.4318 235.973 93.4785 236.44 93.4785 237C93.4785 237.537 93.4318 238.003 93.3385 238.4C93.4318 238.773 93.4785 239.24 93.4785 239.8C93.4785 240.337 93.4318 240.803 93.3385 241.2H95.4385ZM111.552 227.2C111.645 227.573 111.692 228.04 111.692 228.6C111.692 229.137 111.645 229.603 111.552 230C111.645 230.373 111.692 230.84 111.692 231.4C111.692 231.937 111.645 232.403 111.552 232.8C111.645 233.173 111.692 233.64 111.692 234.2C111.692 234.737 111.645 235.203 111.552 235.6C111.645 235.973 111.692 236.44 111.692 237C111.692 237.537 111.645 238.003 111.552 238.4C111.645 238.773 111.692 239.24 111.692 239.8C111.692 240.337 111.645 240.803 111.552 241.2C111.645 241.573 111.692 242.04 111.692 242.6C111.692 243.137 111.645 243.603 111.552 244H108.752C108.659 243.603 108.612 243.137 108.612 242.6C108.612 242.04 108.659 241.573 108.752 241.2H107.002C106.909 240.803 106.862 240.337 106.862 239.8C106.862 239.24 106.909 238.773 107.002 238.4H105.952C105.859 238.003 105.812 237.537 105.812 237C105.812 236.44 105.859 235.973 105.952 235.6H104.552C104.459 235.203 104.412 234.737 104.412 234.2C104.412 233.64 104.459 233.173 104.552 232.8H103.152C103.245 233.173 103.292 233.64 103.292 234.2C103.292 234.737 103.245 235.203 103.152 235.6C103.245 235.973 103.292 236.44 103.292 237C103.292 237.537 103.245 238.003 103.152 238.4C103.245 238.773 103.292 239.24 103.292 239.8C103.292 240.337 103.245 240.803 103.152 241.2C103.245 241.573 103.292 242.04 103.292 242.6C103.292 243.137 103.245 243.603 103.152 244H100.352C100.259 243.603 100.212 243.137 100.212 242.6C100.212 242.04 100.259 241.573 100.352 241.2C100.259 240.803 100.212 240.337 100.212 239.8C100.212 239.24 100.259 238.773 100.352 238.4C100.259 238.003 100.212 237.537 100.212 237C100.212 236.44 100.259 235.973 100.352 235.6C100.259 235.203 100.212 234.737 100.212 234.2C100.212 233.64 100.259 233.173 100.352 232.8C100.259 232.403 100.212 231.937 100.212 231.4C100.212 230.84 100.259 230.373 100.352 230C100.259 229.603 100.212 229.137 100.212 228.6C100.212 228.04 100.259 227.573 100.352 227.2C100.259 226.803 100.212 226.337 100.212 225.8C100.212 225.24 100.259 224.773 100.352 224.4H103.852C103.945 224.773 103.992 225.24 103.992 225.8C103.992 226.337 103.945 226.803 103.852 227.2H104.902C104.995 227.573 105.042 228.04 105.042 228.6C105.042 229.137 104.995 229.603 104.902 230H105.952C106.045 230.373 106.092 230.84 106.092 231.4C106.092 231.937 106.045 232.403 105.952 232.8H107.352C107.445 233.173 107.492 233.64 107.492 234.2C107.492 234.737 107.445 235.203 107.352 235.6H108.752C108.659 235.203 108.612 234.737 108.612 234.2C108.612 233.64 108.659 233.173 108.752 232.8C108.659 232.403 108.612 231.937 108.612 231.4C108.612 230.84 108.659 230.373 108.752 230C108.659 229.603 108.612 229.137 108.612 228.6C108.612 228.04 108.659 227.573 108.752 227.2C108.659 226.803 108.612 226.337 108.612 225.8C108.612 225.24 108.659 224.773 108.752 224.4H111.552C111.645 224.773 111.692 225.24 111.692 225.8C111.692 226.337 111.645 226.803 111.552 227.2ZM139.719 225.8C139.719 226.337 139.673 226.803 139.579 227.2H135.379C135.473 227.573 135.519 228.04 135.519 228.6C135.519 229.137 135.473 229.603 135.379 230C135.473 230.373 135.519 230.84 135.519 231.4C135.519 231.937 135.473 232.403 135.379 232.8C135.473 233.173 135.519 233.64 135.519 234.2C135.519 234.737 135.473 235.203 135.379 235.6C135.473 235.973 135.519 236.44 135.519 237C135.519 237.537 135.473 238.003 135.379 238.4C135.473 238.773 135.519 239.24 135.519 239.8C135.519 240.337 135.473 240.803 135.379 241.2C135.473 241.573 135.519 242.04 135.519 242.6C135.519 243.137 135.473 243.603 135.379 244H132.579C132.486 243.603 132.439 243.137 132.439 242.6C132.439 242.04 132.486 241.573 132.579 241.2C132.486 240.803 132.439 240.337 132.439 239.8C132.439 239.24 132.486 238.773 132.579 238.4C132.486 238.003 132.439 237.537 132.439 237C132.439 236.44 132.486 235.973 132.579 235.6C132.486 235.203 132.439 234.737 132.439 234.2C132.439 233.64 132.486 233.173 132.579 232.8C132.486 232.403 132.439 231.937 132.439 231.4C132.439 230.84 132.486 230.373 132.579 230C132.486 229.603 132.439 229.137 132.439 228.6C132.439 228.04 132.486 227.573 132.579 227.2H128.379C128.286 226.803 128.239 226.337 128.239 225.8C128.239 225.24 128.286 224.773 128.379 224.4H139.579C139.673 224.773 139.719 225.24 139.719 225.8ZM153.593 227.2C153.686 227.573 153.733 228.04 153.733 228.6C153.733 229.137 153.686 229.603 153.593 230C153.686 230.373 153.733 230.84 153.733 231.4C153.733 231.937 153.686 232.403 153.593 232.8C153.686 233.173 153.733 233.64 153.733 234.2C153.733 234.737 153.686 235.203 153.593 235.6C153.686 235.973 153.733 236.44 153.733 237C153.733 237.537 153.686 238.003 153.593 238.4C153.686 238.773 153.733 239.24 153.733 239.8C153.733 240.337 153.686 240.803 153.593 241.2C153.686 241.573 153.733 242.04 153.733 242.6C153.733 243.137 153.686 243.603 153.593 244H150.793C150.7 243.603 150.653 243.137 150.653 242.6C150.653 242.04 150.7 241.573 150.793 241.2C150.7 240.803 150.653 240.337 150.653 239.8C150.653 239.24 150.7 238.773 150.793 238.4C150.7 238.003 150.653 237.537 150.653 237C150.653 236.44 150.7 235.973 150.793 235.6H145.193C145.286 235.973 145.333 236.44 145.333 237C145.333 237.537 145.286 238.003 145.193 238.4C145.286 238.773 145.333 239.24 145.333 239.8C145.333 240.337 145.286 240.803 145.193 241.2C145.286 241.573 145.333 242.04 145.333 242.6C145.333 243.137 145.286 243.603 145.193 244H142.393C142.3 243.603 142.253 243.137 142.253 242.6C142.253 242.04 142.3 241.573 142.393 241.2C142.3 240.803 142.253 240.337 142.253 239.8C142.253 239.24 142.3 238.773 142.393 238.4C142.3 238.003 142.253 237.537 142.253 237C142.253 236.44 142.3 235.973 142.393 235.6C142.3 235.203 142.253 234.737 142.253 234.2C142.253 233.64 142.3 233.173 142.393 232.8C142.3 232.403 142.253 231.937 142.253 231.4C142.253 230.84 142.3 230.373 142.393 230C142.3 229.603 142.253 229.137 142.253 228.6C142.253 228.04 142.3 227.573 142.393 227.2C142.3 226.803 142.253 226.337 142.253 225.8C142.253 225.24 142.3 224.773 142.393 224.4H145.193C145.286 224.773 145.333 225.24 145.333 225.8C145.333 226.337 145.286 226.803 145.193 227.2C145.286 227.573 145.333 228.04 145.333 228.6C145.333 229.137 145.286 229.603 145.193 230C145.286 230.373 145.333 230.84 145.333 231.4C145.333 231.937 145.286 232.403 145.193 232.8H150.793C150.7 232.403 150.653 231.937 150.653 231.4C150.653 230.84 150.7 230.373 150.793 230C150.7 229.603 150.653 229.137 150.653 228.6C150.653 228.04 150.7 227.573 150.793 227.2C150.7 226.803 150.653 226.337 150.653 225.8C150.653 225.24 150.7 224.773 150.793 224.4H153.593C153.686 224.773 153.733 225.24 153.733 225.8C153.733 226.337 153.686 226.803 153.593 227.2ZM160.607 235.6C160.7 235.973 160.747 236.44 160.747 237C160.747 237.537 160.7 238.003 160.607 238.4C160.7 238.773 160.747 239.24 160.747 239.8C160.747 240.337 160.7 240.803 160.607 241.2H166.207C166.3 241.573 166.347 242.04 166.347 242.6C166.347 243.137 166.3 243.603 166.207 244H157.807C157.714 243.603 157.667 243.137 157.667 242.6C157.667 242.04 157.714 241.573 157.807 241.2C157.714 240.803 157.667 240.337 157.667 239.8C157.667 239.24 157.714 238.773 157.807 238.4C157.714 238.003 157.667 237.537 157.667 237C157.667 236.44 157.714 235.973 157.807 235.6C157.714 235.203 157.667 234.737 157.667 234.2C157.667 233.64 157.714 233.173 157.807 232.8C157.714 232.403 157.667 231.937 157.667 231.4C157.667 230.84 157.714 230.373 157.807 230C157.714 229.603 157.667 229.137 157.667 228.6C157.667 228.04 157.714 227.573 157.807 227.2C157.714 226.803 157.667 226.337 157.667 225.8C157.667 225.24 157.714 224.773 157.807 224.4H166.207C166.3 224.773 166.347 225.24 166.347 225.8C166.347 226.337 166.3 226.803 166.207 227.2H160.607C160.7 227.573 160.747 228.04 160.747 228.6C160.747 229.137 160.7 229.603 160.607 230C160.7 230.373 160.747 230.84 160.747 231.4C160.747 231.937 160.7 232.403 160.607 232.8H166.207C166.3 233.173 166.347 233.64 166.347 234.2C166.347 234.737 166.3 235.203 166.207 235.6H160.607ZM195.634 227.2C195.728 227.573 195.774 228.04 195.774 228.6C195.774 229.137 195.728 229.603 195.634 230C195.728 230.373 195.774 230.84 195.774 231.4C195.774 231.937 195.728 232.403 195.634 232.8C195.728 233.173 195.774 233.64 195.774 234.2C195.774 234.737 195.728 235.203 195.634 235.6C195.728 235.973 195.774 236.44 195.774 237C195.774 237.537 195.728 238.003 195.634 238.4C195.728 238.773 195.774 239.24 195.774 239.8C195.774 240.337 195.728 240.803 195.634 241.2C195.728 241.573 195.774 242.04 195.774 242.6C195.774 243.137 195.728 243.603 195.634 244H192.834C192.741 243.603 192.694 243.137 192.694 242.6C192.694 242.04 192.741 241.573 192.834 241.2C192.741 240.803 192.694 240.337 192.694 239.8C192.694 239.24 192.741 238.773 192.834 238.4C192.741 238.003 192.694 237.537 192.694 237C192.694 236.44 192.741 235.973 192.834 235.6C192.741 235.203 192.694 234.737 192.694 234.2C192.694 233.64 192.741 233.173 192.834 232.8C192.741 232.403 192.694 231.937 192.694 231.4C192.694 230.84 192.741 230.373 192.834 230H191.784C191.878 230.373 191.924 230.84 191.924 231.4C191.924 231.937 191.878 232.403 191.784 232.8C191.878 233.173 191.924 233.64 191.924 234.2C191.924 234.737 191.878 235.203 191.784 235.6H191.084C191.178 235.973 191.224 236.44 191.224 237C191.224 237.537 191.178 238.003 191.084 238.4C191.178 238.773 191.224 239.24 191.224 239.8C191.224 240.337 191.178 240.803 191.084 241.2H188.984C188.891 240.803 188.844 240.337 188.844 239.8C188.844 239.24 188.891 238.773 188.984 238.4C188.891 238.003 188.844 237.537 188.844 237C188.844 236.44 188.891 235.973 188.984 235.6H188.284C188.191 235.203 188.144 234.737 188.144 234.2C188.144 233.64 188.191 233.173 188.284 232.8C188.191 232.403 188.144 231.937 188.144 231.4C188.144 230.84 188.191 230.373 188.284 230H187.234C187.328 230.373 187.374 230.84 187.374 231.4C187.374 231.937 187.328 232.403 187.234 232.8C187.328 233.173 187.374 233.64 187.374 234.2C187.374 234.737 187.328 235.203 187.234 235.6C187.328 235.973 187.374 236.44 187.374 237C187.374 237.537 187.328 238.003 187.234 238.4C187.328 238.773 187.374 239.24 187.374 239.8C187.374 240.337 187.328 240.803 187.234 241.2C187.328 241.573 187.374 242.04 187.374 242.6C187.374 243.137 187.328 243.603 187.234 244H184.434C184.341 243.603 184.294 243.137 184.294 242.6C184.294 242.04 184.341 241.573 184.434 241.2C184.341 240.803 184.294 240.337 184.294 239.8C184.294 239.24 184.341 238.773 184.434 238.4C184.341 238.003 184.294 237.537 184.294 237C184.294 236.44 184.341 235.973 184.434 235.6C184.341 235.203 184.294 234.737 184.294 234.2C184.294 233.64 184.341 233.173 184.434 232.8C184.341 232.403 184.294 231.937 184.294 231.4C184.294 230.84 184.341 230.373 184.434 230C184.341 229.603 184.294 229.137 184.294 228.6C184.294 228.04 184.341 227.573 184.434 227.2C184.341 226.803 184.294 226.337 184.294 225.8C184.294 225.24 184.341 224.773 184.434 224.4H187.934C188.028 224.773 188.074 225.24 188.074 225.8C188.074 226.337 188.028 226.803 187.934 227.2H188.984C189.078 227.573 189.124 228.04 189.124 228.6C189.124 229.137 189.078 229.603 188.984 230H189.509C189.603 230.373 189.649 230.84 189.649 231.4C189.649 231.937 189.603 232.403 189.509 232.8H190.559C190.466 232.403 190.419 231.937 190.419 231.4C190.419 230.84 190.466 230.373 190.559 230H191.084C190.991 229.603 190.944 229.137 190.944 228.6C190.944 228.04 190.991 227.573 191.084 227.2H192.134C192.041 226.803 191.994 226.337 191.994 225.8C191.994 225.24 192.041 224.773 192.134 224.4H195.634C195.728 224.773 195.774 225.24 195.774 225.8C195.774 226.337 195.728 226.803 195.634 227.2ZM202.648 235.6C202.741 235.973 202.788 236.44 202.788 237C202.788 237.537 202.741 238.003 202.648 238.4C202.741 238.773 202.788 239.24 202.788 239.8C202.788 240.337 202.741 240.803 202.648 241.2H208.248C208.341 241.573 208.388 242.04 208.388 242.6C208.388 243.137 208.341 243.603 208.248 244H199.848C199.755 243.603 199.708 243.137 199.708 242.6C199.708 242.04 199.755 241.573 199.848 241.2C199.755 240.803 199.708 240.337 199.708 239.8C199.708 239.24 199.755 238.773 199.848 238.4C199.755 238.003 199.708 237.537 199.708 237C199.708 236.44 199.755 235.973 199.848 235.6C199.755 235.203 199.708 234.737 199.708 234.2C199.708 233.64 199.755 233.173 199.848 232.8C199.755 232.403 199.708 231.937 199.708 231.4C199.708 230.84 199.755 230.373 199.848 230C199.755 229.603 199.708 229.137 199.708 228.6C199.708 228.04 199.755 227.573 199.848 227.2C199.755 226.803 199.708 226.337 199.708 225.8C199.708 225.24 199.755 224.773 199.848 224.4H208.248C208.341 224.773 208.388 225.24 208.388 225.8C208.388 226.337 208.341 226.803 208.248 227.2H202.648C202.741 227.573 202.788 228.04 202.788 228.6C202.788 229.137 202.741 229.603 202.648 230C202.741 230.373 202.788 230.84 202.788 231.4C202.788 231.937 202.741 232.403 202.648 232.8H208.248C208.341 233.173 208.388 233.64 208.388 234.2C208.388 234.737 208.341 235.203 208.248 235.6H202.648ZM223.662 227.2C223.755 227.573 223.802 228.04 223.802 228.6C223.802 229.137 223.755 229.603 223.662 230C223.755 230.373 223.802 230.84 223.802 231.4C223.802 231.937 223.755 232.403 223.662 232.8C223.755 233.173 223.802 233.64 223.802 234.2C223.802 234.737 223.755 235.203 223.662 235.6C223.755 235.973 223.802 236.44 223.802 237C223.802 237.537 223.755 238.003 223.662 238.4C223.755 238.773 223.802 239.24 223.802 239.8C223.802 240.337 223.755 240.803 223.662 241.2C223.755 241.573 223.802 242.04 223.802 242.6C223.802 243.137 223.755 243.603 223.662 244H220.862C220.768 243.603 220.722 243.137 220.722 242.6C220.722 242.04 220.768 241.573 220.862 241.2C220.768 240.803 220.722 240.337 220.722 239.8C220.722 239.24 220.768 238.773 220.862 238.4C220.768 238.003 220.722 237.537 220.722 237C220.722 236.44 220.768 235.973 220.862 235.6C220.768 235.203 220.722 234.737 220.722 234.2C220.722 233.64 220.768 233.173 220.862 232.8C220.768 232.403 220.722 231.937 220.722 231.4C220.722 230.84 220.768 230.373 220.862 230H219.812C219.905 230.373 219.952 230.84 219.952 231.4C219.952 231.937 219.905 232.403 219.812 232.8C219.905 233.173 219.952 233.64 219.952 234.2C219.952 234.737 219.905 235.203 219.812 235.6H219.112C219.205 235.973 219.252 236.44 219.252 237C219.252 237.537 219.205 238.003 219.112 238.4C219.205 238.773 219.252 239.24 219.252 239.8C219.252 240.337 219.205 240.803 219.112 241.2H217.012C216.918 240.803 216.872 240.337 216.872 239.8C216.872 239.24 216.918 238.773 217.012 238.4C216.918 238.003 216.872 237.537 216.872 237C216.872 236.44 216.918 235.973 217.012 235.6H216.312C216.218 235.203 216.172 234.737 216.172 234.2C216.172 233.64 216.218 233.173 216.312 232.8C216.218 232.403 216.172 231.937 216.172 231.4C216.172 230.84 216.218 230.373 216.312 230H215.262C215.355 230.373 215.402 230.84 215.402 231.4C215.402 231.937 215.355 232.403 215.262 232.8C215.355 233.173 215.402 233.64 215.402 234.2C215.402 234.737 215.355 235.203 215.262 235.6C215.355 235.973 215.402 236.44 215.402 237C215.402 237.537 215.355 238.003 215.262 238.4C215.355 238.773 215.402 239.24 215.402 239.8C215.402 240.337 215.355 240.803 215.262 241.2C215.355 241.573 215.402 242.04 215.402 242.6C215.402 243.137 215.355 243.603 215.262 244H212.462C212.368 243.603 212.322 243.137 212.322 242.6C212.322 242.04 212.368 241.573 212.462 241.2C212.368 240.803 212.322 240.337 212.322 239.8C212.322 239.24 212.368 238.773 212.462 238.4C212.368 238.003 212.322 237.537 212.322 237C212.322 236.44 212.368 235.973 212.462 235.6C212.368 235.203 212.322 234.737 212.322 234.2C212.322 233.64 212.368 233.173 212.462 232.8C212.368 232.403 212.322 231.937 212.322 231.4C212.322 230.84 212.368 230.373 212.462 230C212.368 229.603 212.322 229.137 212.322 228.6C212.322 228.04 212.368 227.573 212.462 227.2C212.368 226.803 212.322 226.337 212.322 225.8C212.322 225.24 212.368 224.773 212.462 224.4H215.962C216.055 224.773 216.102 225.24 216.102 225.8C216.102 226.337 216.055 226.803 215.962 227.2H217.012C217.105 227.573 217.152 228.04 217.152 228.6C217.152 229.137 217.105 229.603 217.012 230H217.537C217.63 230.373 217.677 230.84 217.677 231.4C217.677 231.937 217.63 232.403 217.537 232.8H218.587C218.493 232.403 218.447 231.937 218.447 231.4C218.447 230.84 218.493 230.373 218.587 230H219.112C219.018 229.603 218.972 229.137 218.972 228.6C218.972 228.04 219.018 227.573 219.112 227.2H220.162C220.068 226.803 220.022 226.337 220.022 225.8C220.022 225.24 220.068 224.773 220.162 224.4H223.662C223.755 224.773 223.802 225.24 223.802 225.8C223.802 226.337 223.755 226.803 223.662 227.2ZM230.675 235.6C230.769 235.973 230.815 236.44 230.815 237C230.815 237.537 230.769 238.003 230.675 238.4C230.769 238.773 230.815 239.24 230.815 239.8C230.815 240.337 230.769 240.803 230.675 241.2H236.275C236.369 241.573 236.415 242.04 236.415 242.6C236.415 243.137 236.369 243.603 236.275 244H227.875C227.782 243.603 227.735 243.137 227.735 242.6C227.735 242.04 227.782 241.573 227.875 241.2C227.782 240.803 227.735 240.337 227.735 239.8C227.735 239.24 227.782 238.773 227.875 238.4C227.782 238.003 227.735 237.537 227.735 237C227.735 236.44 227.782 235.973 227.875 235.6C227.782 235.203 227.735 234.737 227.735 234.2C227.735 233.64 227.782 233.173 227.875 232.8C227.782 232.403 227.735 231.937 227.735 231.4C227.735 230.84 227.782 230.373 227.875 230C227.782 229.603 227.735 229.137 227.735 228.6C227.735 228.04 227.782 227.573 227.875 227.2C227.782 226.803 227.735 226.337 227.735 225.8C227.735 225.24 227.782 224.773 227.875 224.4H236.275C236.369 224.773 236.415 225.24 236.415 225.8C236.415 226.337 236.369 226.803 236.275 227.2H230.675C230.769 227.573 230.815 228.04 230.815 228.6C230.815 229.137 230.769 229.603 230.675 230C230.769 230.373 230.815 230.84 230.815 231.4C230.815 231.937 230.769 232.403 230.675 232.8H236.275C236.369 233.173 236.415 233.64 236.415 234.2C236.415 234.737 236.369 235.203 236.275 235.6H230.675ZM83.5248 276.2C83.6181 276.573 83.6648 277.04 83.6648 277.6C83.6648 278.137 83.6181 278.603 83.5248 279H80.7248C80.6315 278.603 80.5848 278.137 80.5848 277.6C80.5848 277.04 80.6315 276.573 80.7248 276.2H79.6748C79.5815 275.803 79.5348 275.337 79.5348 274.8C79.5348 274.24 79.5815 273.773 79.6748 273.4H78.6248C78.5315 273.003 78.4848 272.537 78.4848 272C78.4848 271.44 78.5315 270.973 78.6248 270.6H75.1248C75.2181 270.973 75.2648 271.44 75.2648 272C75.2648 272.537 75.2181 273.003 75.1248 273.4C75.2181 273.773 75.2648 274.24 75.2648 274.8C75.2648 275.337 75.2181 275.803 75.1248 276.2C75.2181 276.573 75.2648 277.04 75.2648 277.6C75.2648 278.137 75.2181 278.603 75.1248 279H72.3248C72.2315 278.603 72.1848 278.137 72.1848 277.6C72.1848 277.04 72.2315 276.573 72.3248 276.2C72.2315 275.803 72.1848 275.337 72.1848 274.8C72.1848 274.24 72.2315 273.773 72.3248 273.4C72.2315 273.003 72.1848 272.537 72.1848 272C72.1848 271.44 72.2315 270.973 72.3248 270.6C72.2315 270.203 72.1848 269.737 72.1848 269.2C72.1848 268.64 72.2315 268.173 72.3248 267.8C72.2315 267.403 72.1848 266.937 72.1848 266.4C72.1848 265.84 72.2315 265.373 72.3248 265C72.2315 264.603 72.1848 264.137 72.1848 263.6C72.1848 263.04 72.2315 262.573 72.3248 262.2C72.2315 261.803 72.1848 261.337 72.1848 260.8C72.1848 260.24 72.2315 259.773 72.3248 259.4H82.1248C82.2181 259.773 82.2648 260.24 82.2648 260.8C82.2648 261.337 82.2181 261.803 82.1248 262.2H83.5248C83.6181 262.573 83.6648 263.04 83.6648 263.6C83.6648 264.137 83.6181 264.603 83.5248 265H82.8248C82.9181 265.373 82.9648 265.84 82.9648 266.4C82.9648 266.937 82.9181 267.403 82.8248 267.8H80.7248C80.8181 268.173 80.8648 268.64 80.8648 269.2C80.8648 269.737 80.8181 270.203 80.7248 270.6H81.4248C81.5181 270.973 81.5648 271.44 81.5648 272C81.5648 272.537 81.5181 273.003 81.4248 273.4H82.4748C82.5681 273.773 82.6148 274.24 82.6148 274.8C82.6148 275.337 82.5681 275.803 82.4748 276.2H83.5248ZM80.0248 267.8C79.9315 267.403 79.8848 266.937 79.8848 266.4C79.8848 265.84 79.9315 265.373 80.0248 265C79.9315 264.603 79.8848 264.137 79.8848 263.6C79.8848 263.04 79.9315 262.573 80.0248 262.2H75.1248C75.2181 262.573 75.2648 263.04 75.2648 263.6C75.2648 264.137 75.2181 264.603 75.1248 265C75.2181 265.373 75.2648 265.84 75.2648 266.4C75.2648 266.937 75.2181 267.403 75.1248 267.8H80.0248ZM90.5385 270.6C90.6318 270.973 90.6785 271.44 90.6785 272C90.6785 272.537 90.6318 273.003 90.5385 273.4C90.6318 273.773 90.6785 274.24 90.6785 274.8C90.6785 275.337 90.6318 275.803 90.5385 276.2H96.1385C96.2318 276.573 96.2785 277.04 96.2785 277.6C96.2785 278.137 96.2318 278.603 96.1385 279H87.7385C87.6451 278.603 87.5985 278.137 87.5985 277.6C87.5985 277.04 87.6451 276.573 87.7385 276.2C87.6451 275.803 87.5985 275.337 87.5985 274.8C87.5985 274.24 87.6451 273.773 87.7385 273.4C87.6451 273.003 87.5985 272.537 87.5985 272C87.5985 271.44 87.6451 270.973 87.7385 270.6C87.6451 270.203 87.5985 269.737 87.5985 269.2C87.5985 268.64 87.6451 268.173 87.7385 267.8C87.6451 267.403 87.5985 266.937 87.5985 266.4C87.5985 265.84 87.6451 265.373 87.7385 265C87.6451 264.603 87.5985 264.137 87.5985 263.6C87.5985 263.04 87.6451 262.573 87.7385 262.2C87.6451 261.803 87.5985 261.337 87.5985 260.8C87.5985 260.24 87.6451 259.773 87.7385 259.4H96.1385C96.2318 259.773 96.2785 260.24 96.2785 260.8C96.2785 261.337 96.2318 261.803 96.1385 262.2H90.5385C90.6318 262.573 90.6785 263.04 90.6785 263.6C90.6785 264.137 90.6318 264.603 90.5385 265C90.6318 265.373 90.6785 265.84 90.6785 266.4C90.6785 266.937 90.6318 267.403 90.5385 267.8H96.1385C96.2318 268.173 96.2785 268.64 96.2785 269.2C96.2785 269.737 96.2318 270.203 96.1385 270.6H90.5385ZM111.552 262.2C111.645 262.573 111.692 263.04 111.692 263.6C111.692 264.137 111.645 264.603 111.552 265C111.645 265.373 111.692 265.84 111.692 266.4C111.692 266.937 111.645 267.403 111.552 267.8H110.502C110.595 268.173 110.642 268.64 110.642 269.2C110.642 269.737 110.595 270.203 110.502 270.6H109.452C109.545 270.973 109.592 271.44 109.592 272C109.592 272.537 109.545 273.003 109.452 273.4H108.752C108.845 273.773 108.892 274.24 108.892 274.8C108.892 275.337 108.845 275.803 108.752 276.2H107.352C107.445 276.573 107.492 277.04 107.492 277.6C107.492 278.137 107.445 278.603 107.352 279H104.552C104.459 278.603 104.412 278.137 104.412 277.6C104.412 277.04 104.459 276.573 104.552 276.2H103.152C103.059 275.803 103.012 275.337 103.012 274.8C103.012 274.24 103.059 273.773 103.152 273.4H102.452C102.359 273.003 102.312 272.537 102.312 272C102.312 271.44 102.359 270.973 102.452 270.6H101.402C101.309 270.203 101.262 269.737 101.262 269.2C101.262 268.64 101.309 268.173 101.402 267.8H100.352C100.259 267.403 100.212 266.937 100.212 266.4C100.212 265.84 100.259 265.373 100.352 265C100.259 264.603 100.212 264.137 100.212 263.6C100.212 263.04 100.259 262.573 100.352 262.2C100.259 261.803 100.212 261.337 100.212 260.8C100.212 260.24 100.259 259.773 100.352 259.4H103.152C103.245 259.773 103.292 260.24 103.292 260.8C103.292 261.337 103.245 261.803 103.152 262.2C103.245 262.573 103.292 263.04 103.292 263.6C103.292 264.137 103.245 264.603 103.152 265C103.245 265.373 103.292 265.84 103.292 266.4C103.292 266.937 103.245 267.403 103.152 267.8H104.202C104.295 268.173 104.342 268.64 104.342 269.2C104.342 269.737 104.295 270.203 104.202 270.6H105.252C105.345 270.973 105.392 271.44 105.392 272C105.392 272.537 105.345 273.003 105.252 273.4H106.652C106.559 273.003 106.512 272.537 106.512 272C106.512 271.44 106.559 270.973 106.652 270.6H107.702C107.609 270.203 107.562 269.737 107.562 269.2C107.562 268.64 107.609 268.173 107.702 267.8H108.752C108.659 267.403 108.612 266.937 108.612 266.4C108.612 265.84 108.659 265.373 108.752 265C108.659 264.603 108.612 264.137 108.612 263.6C108.612 263.04 108.659 262.573 108.752 262.2C108.659 261.803 108.612 261.337 108.612 260.8C108.612 260.24 108.659 259.773 108.752 259.4H111.552C111.645 259.773 111.692 260.24 111.692 260.8C111.692 261.337 111.645 261.803 111.552 262.2ZM125.566 267.8C125.659 268.173 125.706 268.64 125.706 269.2C125.706 269.737 125.659 270.203 125.566 270.6C125.659 270.973 125.706 271.44 125.706 272C125.706 272.537 125.659 273.003 125.566 273.4H124.516C124.609 273.773 124.656 274.24 124.656 274.8C124.656 275.337 124.609 275.803 124.516 276.2H122.766C122.859 276.573 122.906 277.04 122.906 277.6C122.906 278.137 122.859 278.603 122.766 279H117.166C117.072 278.603 117.026 278.137 117.026 277.6C117.026 277.04 117.072 276.573 117.166 276.2H115.416C115.322 275.803 115.276 275.337 115.276 274.8C115.276 274.24 115.322 273.773 115.416 273.4H114.366C114.272 273.003 114.226 272.537 114.226 272C114.226 271.44 114.272 270.973 114.366 270.6C114.272 270.203 114.226 269.737 114.226 269.2C114.226 268.64 114.272 268.173 114.366 267.8C114.272 267.403 114.226 266.937 114.226 266.4C114.226 265.84 114.272 265.373 114.366 265H115.416C115.322 264.603 115.276 264.137 115.276 263.6C115.276 263.04 115.322 262.573 115.416 262.2H117.166C117.072 261.803 117.026 261.337 117.026 260.8C117.026 260.24 117.072 259.773 117.166 259.4H122.766C122.859 259.773 122.906 260.24 122.906 260.8C122.906 261.337 122.859 261.803 122.766 262.2H124.516C124.609 262.573 124.656 263.04 124.656 263.6C124.656 264.137 124.609 264.603 124.516 265H125.566C125.659 265.373 125.706 265.84 125.706 266.4C125.706 266.937 125.659 267.403 125.566 267.8ZM122.766 273.4C122.672 273.003 122.626 272.537 122.626 272C122.626 271.44 122.672 270.973 122.766 270.6C122.672 270.203 122.626 269.737 122.626 269.2C122.626 268.64 122.672 268.173 122.766 267.8C122.672 267.403 122.626 266.937 122.626 266.4C122.626 265.84 122.672 265.373 122.766 265H121.716C121.622 264.603 121.576 264.137 121.576 263.6C121.576 263.04 121.622 262.573 121.716 262.2H118.216C118.309 262.573 118.356 263.04 118.356 263.6C118.356 264.137 118.309 264.603 118.216 265H117.166C117.259 265.373 117.306 265.84 117.306 266.4C117.306 266.937 117.259 267.403 117.166 267.8C117.259 268.173 117.306 268.64 117.306 269.2C117.306 269.737 117.259 270.203 117.166 270.6C117.259 270.973 117.306 271.44 117.306 272C117.306 272.537 117.259 273.003 117.166 273.4H118.216C118.309 273.773 118.356 274.24 118.356 274.8C118.356 275.337 118.309 275.803 118.216 276.2H121.716C121.622 275.803 121.576 275.337 121.576 274.8C121.576 274.24 121.622 273.773 121.716 273.4H122.766ZM139.579 276.2C139.673 276.573 139.719 277.04 139.719 277.6C139.719 278.137 139.673 278.603 139.579 279H129.779C129.686 278.603 129.639 278.137 129.639 277.6C129.639 277.04 129.686 276.573 129.779 276.2C129.686 275.803 129.639 275.337 129.639 274.8C129.639 274.24 129.686 273.773 129.779 273.4C129.686 273.003 129.639 272.537 129.639 272C129.639 271.44 129.686 270.973 129.779 270.6C129.686 270.203 129.639 269.737 129.639 269.2C129.639 268.64 129.686 268.173 129.779 267.8C129.686 267.403 129.639 266.937 129.639 266.4C129.639 265.84 129.686 265.373 129.779 265C129.686 264.603 129.639 264.137 129.639 263.6C129.639 263.04 129.686 262.573 129.779 262.2C129.686 261.803 129.639 261.337 129.639 260.8C129.639 260.24 129.686 259.773 129.779 259.4H132.579C132.673 259.773 132.719 260.24 132.719 260.8C132.719 261.337 132.673 261.803 132.579 262.2C132.673 262.573 132.719 263.04 132.719 263.6C132.719 264.137 132.673 264.603 132.579 265C132.673 265.373 132.719 265.84 132.719 266.4C132.719 266.937 132.673 267.403 132.579 267.8C132.673 268.173 132.719 268.64 132.719 269.2C132.719 269.737 132.673 270.203 132.579 270.6C132.673 270.973 132.719 271.44 132.719 272C132.719 272.537 132.673 273.003 132.579 273.4C132.673 273.773 132.719 274.24 132.719 274.8C132.719 275.337 132.673 275.803 132.579 276.2H139.579ZM153.593 262.2C153.686 262.573 153.733 263.04 153.733 263.6C153.733 264.137 153.686 264.603 153.593 265C153.686 265.373 153.733 265.84 153.733 266.4C153.733 266.937 153.686 267.403 153.593 267.8C153.686 268.173 153.733 268.64 153.733 269.2C153.733 269.737 153.686 270.203 153.593 270.6C153.686 270.973 153.733 271.44 153.733 272C153.733 272.537 153.686 273.003 153.593 273.4C153.686 273.773 153.733 274.24 153.733 274.8C153.733 275.337 153.686 275.803 153.593 276.2H152.193C152.286 276.573 152.333 277.04 152.333 277.6C152.333 278.137 152.286 278.603 152.193 279H143.793C143.7 278.603 143.653 278.137 143.653 277.6C143.653 277.04 143.7 276.573 143.793 276.2H142.393C142.3 275.803 142.253 275.337 142.253 274.8C142.253 274.24 142.3 273.773 142.393 273.4C142.3 273.003 142.253 272.537 142.253 272C142.253 271.44 142.3 270.973 142.393 270.6C142.3 270.203 142.253 269.737 142.253 269.2C142.253 268.64 142.3 268.173 142.393 267.8C142.3 267.403 142.253 266.937 142.253 266.4C142.253 265.84 142.3 265.373 142.393 265C142.3 264.603 142.253 264.137 142.253 263.6C142.253 263.04 142.3 262.573 142.393 262.2C142.3 261.803 142.253 261.337 142.253 260.8C142.253 260.24 142.3 259.773 142.393 259.4H145.193C145.286 259.773 145.333 260.24 145.333 260.8C145.333 261.337 145.286 261.803 145.193 262.2C145.286 262.573 145.333 263.04 145.333 263.6C145.333 264.137 145.286 264.603 145.193 265C145.286 265.373 145.333 265.84 145.333 266.4C145.333 266.937 145.286 267.403 145.193 267.8C145.286 268.173 145.333 268.64 145.333 269.2C145.333 269.737 145.286 270.203 145.193 270.6C145.286 270.973 145.333 271.44 145.333 272C145.333 272.537 145.286 273.003 145.193 273.4C145.286 273.773 145.333 274.24 145.333 274.8C145.333 275.337 145.286 275.803 145.193 276.2H150.793C150.7 275.803 150.653 275.337 150.653 274.8C150.653 274.24 150.7 273.773 150.793 273.4C150.7 273.003 150.653 272.537 150.653 272C150.653 271.44 150.7 270.973 150.793 270.6C150.7 270.203 150.653 269.737 150.653 269.2C150.653 268.64 150.7 268.173 150.793 267.8C150.7 267.403 150.653 266.937 150.653 266.4C150.653 265.84 150.7 265.373 150.793 265C150.7 264.603 150.653 264.137 150.653 263.6C150.653 263.04 150.7 262.573 150.793 262.2C150.7 261.803 150.653 261.337 150.653 260.8C150.653 260.24 150.7 259.773 150.793 259.4H153.593C153.686 259.773 153.733 260.24 153.733 260.8C153.733 261.337 153.686 261.803 153.593 262.2ZM167.747 260.8C167.747 261.337 167.7 261.803 167.607 262.2H163.407C163.5 262.573 163.547 263.04 163.547 263.6C163.547 264.137 163.5 264.603 163.407 265C163.5 265.373 163.547 265.84 163.547 266.4C163.547 266.937 163.5 267.403 163.407 267.8C163.5 268.173 163.547 268.64 163.547 269.2C163.547 269.737 163.5 270.203 163.407 270.6C163.5 270.973 163.547 271.44 163.547 272C163.547 272.537 163.5 273.003 163.407 273.4C163.5 273.773 163.547 274.24 163.547 274.8C163.547 275.337 163.5 275.803 163.407 276.2C163.5 276.573 163.547 277.04 163.547 277.6C163.547 278.137 163.5 278.603 163.407 279H160.607C160.514 278.603 160.467 278.137 160.467 277.6C160.467 277.04 160.514 276.573 160.607 276.2C160.514 275.803 160.467 275.337 160.467 274.8C160.467 274.24 160.514 273.773 160.607 273.4C160.514 273.003 160.467 272.537 160.467 272C160.467 271.44 160.514 270.973 160.607 270.6C160.514 270.203 160.467 269.737 160.467 269.2C160.467 268.64 160.514 268.173 160.607 267.8C160.514 267.403 160.467 266.937 160.467 266.4C160.467 265.84 160.514 265.373 160.607 265C160.514 264.603 160.467 264.137 160.467 263.6C160.467 263.04 160.514 262.573 160.607 262.2H156.407C156.314 261.803 156.267 261.337 156.267 260.8C156.267 260.24 156.314 259.773 156.407 259.4H167.607C167.7 259.773 167.747 260.24 167.747 260.8ZM179.521 276.2C179.614 276.573 179.661 277.04 179.661 277.6C179.661 278.137 179.614 278.603 179.521 279H172.521C172.427 278.603 172.381 278.137 172.381 277.6C172.381 277.04 172.427 276.573 172.521 276.2H174.621C174.527 275.803 174.481 275.337 174.481 274.8C174.481 274.24 174.527 273.773 174.621 273.4C174.527 273.003 174.481 272.537 174.481 272C174.481 271.44 174.527 270.973 174.621 270.6C174.527 270.203 174.481 269.737 174.481 269.2C174.481 268.64 174.527 268.173 174.621 267.8C174.527 267.403 174.481 266.937 174.481 266.4C174.481 265.84 174.527 265.373 174.621 265C174.527 264.603 174.481 264.137 174.481 263.6C174.481 263.04 174.527 262.573 174.621 262.2H172.521C172.427 261.803 172.381 261.337 172.381 260.8C172.381 260.24 172.427 259.773 172.521 259.4H179.521C179.614 259.773 179.661 260.24 179.661 260.8C179.661 261.337 179.614 261.803 179.521 262.2H177.421C177.514 262.573 177.561 263.04 177.561 263.6C177.561 264.137 177.514 264.603 177.421 265C177.514 265.373 177.561 265.84 177.561 266.4C177.561 266.937 177.514 267.403 177.421 267.8C177.514 268.173 177.561 268.64 177.561 269.2C177.561 269.737 177.514 270.203 177.421 270.6C177.514 270.973 177.561 271.44 177.561 272C177.561 272.537 177.514 273.003 177.421 273.4C177.514 273.773 177.561 274.24 177.561 274.8C177.561 275.337 177.514 275.803 177.421 276.2H179.521ZM195.634 267.8C195.728 268.173 195.774 268.64 195.774 269.2C195.774 269.737 195.728 270.203 195.634 270.6C195.728 270.973 195.774 271.44 195.774 272C195.774 272.537 195.728 273.003 195.634 273.4H194.584C194.678 273.773 194.724 274.24 194.724 274.8C194.724 275.337 194.678 275.803 194.584 276.2H192.834C192.928 276.573 192.974 277.04 192.974 277.6C192.974 278.137 192.928 278.603 192.834 279H187.234C187.141 278.603 187.094 278.137 187.094 277.6C187.094 277.04 187.141 276.573 187.234 276.2H185.484C185.391 275.803 185.344 275.337 185.344 274.8C185.344 274.24 185.391 273.773 185.484 273.4H184.434C184.341 273.003 184.294 272.537 184.294 272C184.294 271.44 184.341 270.973 184.434 270.6C184.341 270.203 184.294 269.737 184.294 269.2C184.294 268.64 184.341 268.173 184.434 267.8C184.341 267.403 184.294 266.937 184.294 266.4C184.294 265.84 184.341 265.373 184.434 265H185.484C185.391 264.603 185.344 264.137 185.344 263.6C185.344 263.04 185.391 262.573 185.484 262.2H187.234C187.141 261.803 187.094 261.337 187.094 260.8C187.094 260.24 187.141 259.773 187.234 259.4H192.834C192.928 259.773 192.974 260.24 192.974 260.8C192.974 261.337 192.928 261.803 192.834 262.2H194.584C194.678 262.573 194.724 263.04 194.724 263.6C194.724 264.137 194.678 264.603 194.584 265H195.634C195.728 265.373 195.774 265.84 195.774 266.4C195.774 266.937 195.728 267.403 195.634 267.8ZM192.834 273.4C192.741 273.003 192.694 272.537 192.694 272C192.694 271.44 192.741 270.973 192.834 270.6C192.741 270.203 192.694 269.737 192.694 269.2C192.694 268.64 192.741 268.173 192.834 267.8C192.741 267.403 192.694 266.937 192.694 266.4C192.694 265.84 192.741 265.373 192.834 265H191.784C191.691 264.603 191.644 264.137 191.644 263.6C191.644 263.04 191.691 262.573 191.784 262.2H188.284C188.378 262.573 188.424 263.04 188.424 263.6C188.424 264.137 188.378 264.603 188.284 265H187.234C187.328 265.373 187.374 265.84 187.374 266.4C187.374 266.937 187.328 267.403 187.234 267.8C187.328 268.173 187.374 268.64 187.374 269.2C187.374 269.737 187.328 270.203 187.234 270.6C187.328 270.973 187.374 271.44 187.374 272C187.374 272.537 187.328 273.003 187.234 273.4H188.284C188.378 273.773 188.424 274.24 188.424 274.8C188.424 275.337 188.378 275.803 188.284 276.2H191.784C191.691 275.803 191.644 275.337 191.644 274.8C191.644 274.24 191.691 273.773 191.784 273.4H192.834ZM209.648 262.2C209.741 262.573 209.788 263.04 209.788 263.6C209.788 264.137 209.741 264.603 209.648 265C209.741 265.373 209.788 265.84 209.788 266.4C209.788 266.937 209.741 267.403 209.648 267.8C209.741 268.173 209.788 268.64 209.788 269.2C209.788 269.737 209.741 270.203 209.648 270.6C209.741 270.973 209.788 271.44 209.788 272C209.788 272.537 209.741 273.003 209.648 273.4C209.741 273.773 209.788 274.24 209.788 274.8C209.788 275.337 209.741 275.803 209.648 276.2C209.741 276.573 209.788 277.04 209.788 277.6C209.788 278.137 209.741 278.603 209.648 279H206.848C206.755 278.603 206.708 278.137 206.708 277.6C206.708 277.04 206.755 276.573 206.848 276.2H205.098C205.005 275.803 204.958 275.337 204.958 274.8C204.958 274.24 205.005 273.773 205.098 273.4H204.048C203.955 273.003 203.908 272.537 203.908 272C203.908 271.44 203.955 270.973 204.048 270.6H202.648C202.555 270.203 202.508 269.737 202.508 269.2C202.508 268.64 202.555 268.173 202.648 267.8H201.248C201.341 268.173 201.388 268.64 201.388 269.2C201.388 269.737 201.341 270.203 201.248 270.6C201.341 270.973 201.388 271.44 201.388 272C201.388 272.537 201.341 273.003 201.248 273.4C201.341 273.773 201.388 274.24 201.388 274.8C201.388 275.337 201.341 275.803 201.248 276.2C201.341 276.573 201.388 277.04 201.388 277.6C201.388 278.137 201.341 278.603 201.248 279H198.448C198.355 278.603 198.308 278.137 198.308 277.6C198.308 277.04 198.355 276.573 198.448 276.2C198.355 275.803 198.308 275.337 198.308 274.8C198.308 274.24 198.355 273.773 198.448 273.4C198.355 273.003 198.308 272.537 198.308 272C198.308 271.44 198.355 270.973 198.448 270.6C198.355 270.203 198.308 269.737 198.308 269.2C198.308 268.64 198.355 268.173 198.448 267.8C198.355 267.403 198.308 266.937 198.308 266.4C198.308 265.84 198.355 265.373 198.448 265C198.355 264.603 198.308 264.137 198.308 263.6C198.308 263.04 198.355 262.573 198.448 262.2C198.355 261.803 198.308 261.337 198.308 260.8C198.308 260.24 198.355 259.773 198.448 259.4H201.948C202.041 259.773 202.088 260.24 202.088 260.8C202.088 261.337 202.041 261.803 201.948 262.2H202.998C203.091 262.573 203.138 263.04 203.138 263.6C203.138 264.137 203.091 264.603 202.998 265H204.048C204.141 265.373 204.188 265.84 204.188 266.4C204.188 266.937 204.141 267.403 204.048 267.8H205.448C205.541 268.173 205.588 268.64 205.588 269.2C205.588 269.737 205.541 270.203 205.448 270.6H206.848C206.755 270.203 206.708 269.737 206.708 269.2C206.708 268.64 206.755 268.173 206.848 267.8C206.755 267.403 206.708 266.937 206.708 266.4C206.708 265.84 206.755 265.373 206.848 265C206.755 264.603 206.708 264.137 206.708 263.6C206.708 263.04 206.755 262.573 206.848 262.2C206.755 261.803 206.708 261.337 206.708 260.8C206.708 260.24 206.755 259.773 206.848 259.4H209.648C209.741 259.773 209.788 260.24 209.788 260.8C209.788 261.337 209.741 261.803 209.648 262.2ZM219.462 262.2C219.555 262.573 219.602 263.04 219.602 263.6C219.602 264.137 219.555 264.603 219.462 265C219.555 265.373 219.602 265.84 219.602 266.4C219.602 266.937 219.555 267.403 219.462 267.8C219.555 268.173 219.602 268.64 219.602 269.2C219.602 269.737 219.555 270.203 219.462 270.6C219.555 270.973 219.602 271.44 219.602 272C219.602 272.537 219.555 273.003 219.462 273.4H216.662C216.568 273.003 216.522 272.537 216.522 272C216.522 271.44 216.568 270.973 216.662 270.6C216.568 270.203 216.522 269.737 216.522 269.2C216.522 268.64 216.568 268.173 216.662 267.8C216.568 267.403 216.522 266.937 216.522 266.4C216.522 265.84 216.568 265.373 216.662 265C216.568 264.603 216.522 264.137 216.522 263.6C216.522 263.04 216.568 262.573 216.662 262.2C216.568 261.803 216.522 261.337 216.522 260.8C216.522 260.24 216.568 259.773 216.662 259.4H219.462C219.555 259.773 219.602 260.24 219.602 260.8C219.602 261.337 219.555 261.803 219.462 262.2ZM219.462 276.2C219.555 276.573 219.602 277.04 219.602 277.6C219.602 278.137 219.555 278.603 219.462 279H216.662C216.568 278.603 216.522 278.137 216.522 277.6C216.522 277.04 216.568 276.573 216.662 276.2H219.462Z" fill="black"/>
</svg>
